<!-- Generator: Adobe Illustrator 18.0.0, SVG Export Plug-In  -->
<svg version="1.1"
	 xmlns="http://www.w3.org/2000/svg" xmlns:xlink="http://www.w3.org/1999/xlink" xmlns:a="http://ns.adobe.com/AdobeSVGViewerExtensions/3.0/"
	 x="0px" y="0px" width="34.5px" height="31.9px" viewBox="0 0 34.5 31.9" enable-background="new 0 0 34.5 31.9"
	 xml:space="preserve">
<defs>
</defs>
<g>
	<g>
		<g>
			
				<radialGradient id="SVGID_5_" cx="89.6229" cy="-106.466" r="13.6818" gradientTransform="matrix(1.053 -0.5023 0.5023 1.053 -23.5429 173.0981)" gradientUnits="userSpaceOnUse">
				<stop  offset="0.25" style="stop-color:#E5DEDB"/>
				<stop  offset="0.6386" style="stop-color:#E3DCD9"/>
				<stop  offset="0.7786" style="stop-color:#DDD6D3"/>
				<stop  offset="0.878" style="stop-color:#D2CBC9"/>
				<stop  offset="0.9239" style="stop-color:#CAC4C2"/>
				<stop  offset="1" style="stop-color:#E5E1DC"/>
			</radialGradient>
			<circle fill="url(#SVGID_5_)" cx="17.3" cy="16" r="16"/>
			
				<linearGradient id="SVGID_6_" gradientUnits="userSpaceOnUse" x1="59.4788" y1="-105.6617" x2="59.4788" y2="-130.7066" gradientTransform="matrix(0.9026 -0.4306 0.4306 0.9026 13.3145 145.6501)">
				<stop  offset="0" style="stop-color:#E5DEDB"/>
				<stop  offset="1" style="stop-color:#E5E1DC"/>
			</linearGradient>
			<path fill="url(#SVGID_6_)" d="M28.4,7.5c-3-6.2-10.9-8.7-17.6-5.5S0.9,13,3.9,19.2s10.9,8.7,17.6,5.5S31.3,13.8,28.4,7.5z"/>
			
				<linearGradient id="SVGID_7_" gradientUnits="userSpaceOnUse" x1="59.4788" y1="-116.8477" x2="59.4788" y2="-129.7599" gradientTransform="matrix(0.9026 -0.4306 0.4306 0.9026 13.3145 145.6501)">
				<stop  offset="5.076140e-03" style="stop-color:#E5E1DC"/>
				<stop  offset="1" style="stop-color:#FFFAF6"/>
			</linearGradient>
			<path fill="url(#SVGID_7_)" d="M24.4,5.6c-1.9-4.1-7.9-5.3-13.2-2.7c-5.4,2.6-8.1,7.9-6.2,12c1.9,4.1,6.4,2.2,11.8-0.3
				C22.1,12,26.3,9.7,24.4,5.6z"/>
		</g>
		<g>
			<defs>
				<path id="SVGID_4_" d="M1.7,22.3c0-0.3,0.1-0.5,0.2-0.8c1.3-3.8,7.9-4.9,14.7-2.5c6.8,2.4,11.2,7.4,9.9,11.2
					c-0.1,0.3-0.2,0.5-0.4,0.7c3.5-1.5,6.3-4.2,7.6-7.9c2.7-7.7-2.5-16.6-11.6-19.8C13.1,0.1,3.5,3.7,0.7,11.4
					C-0.6,15-0.1,18.9,1.7,22.3z"/>
			</defs>
			<clipPath id="SVGID_8_">
				<use xlink:href="#SVGID_4_"  overflow="visible"/>
			</clipPath>
			<g clip-path="url(#SVGID_8_)">
				<g>
					<g>
						<g>
							
								<radialGradient id="SVGID_9_" cx="89.6229" cy="-106.4657" r="13.6818" gradientTransform="matrix(1.053 -0.5023 0.5023 1.053 -23.5432 173.0978)" gradientUnits="userSpaceOnUse">
								<stop  offset="0.25" style="stop-color:#D32627"/>
								<stop  offset="0.6201" style="stop-color:#D42727"/>
								<stop  offset="0.7533" style="stop-color:#D92A29"/>
								<stop  offset="0.848" style="stop-color:#E02F2E"/>
								<stop  offset="0.9239" style="stop-color:#EF3735"/>
								<stop  offset="1" style="stop-color:#EF4343"/>
							</radialGradient>
							<circle fill="url(#SVGID_9_)" cx="17.3" cy="16" r="16"/>
							
								<linearGradient id="SVGID_10_" gradientUnits="userSpaceOnUse" x1="59.4788" y1="-105.6617" x2="59.4788" y2="-130.7066" gradientTransform="matrix(0.9026 -0.4306 0.4306 0.9026 13.3145 145.6501)">
								<stop  offset="0" style="stop-color:#D32327"/>
								<stop  offset="1" style="stop-color:#EE7878"/>
							</linearGradient>
							<path fill="url(#SVGID_10_)" d="M28.4,7.5c-3-6.2-10.9-8.7-17.6-5.5S0.9,13,3.9,19.2s10.9,8.7,17.6,5.5S31.3,13.8,28.4,7.5z"
								/>
							
								<linearGradient id="SVGID_11_" gradientUnits="userSpaceOnUse" x1="59.4788" y1="-116.8477" x2="59.4788" y2="-129.7599" gradientTransform="matrix(0.9026 -0.4306 0.4306 0.9026 13.3145 145.6501)">
								<stop  offset="5.076140e-03" style="stop-color:#E44745"/>
								<stop  offset="1" style="stop-color:#FBEDED"/>
							</linearGradient>
							<path fill="url(#SVGID_11_)" d="M24.4,5.6c-1.9-4.1-7.9-5.3-13.2-2.7c-5.4,2.6-8.1,7.9-6.2,12c1.9,4.1,6.4,2.2,11.8-0.3
								C22.1,12,26.3,9.7,24.4,5.6z"/>
						</g>
					</g>
				</g>
			</g>
		</g>
		<g>
			<defs>
				<circle id="SVGID_3_" cx="19.2" cy="11.1" r="6.9"/>
			</defs>
			<clipPath id="SVGID_12_">
				<use xlink:href="#SVGID_3_"  overflow="visible"/>
			</clipPath>
			<g clip-path="url(#SVGID_12_)">
				
					<radialGradient id="SVGID_13_" cx="89.6229" cy="-106.466" r="13.6818" gradientTransform="matrix(1.053 -0.5023 0.5023 1.053 -23.5429 173.0981)" gradientUnits="userSpaceOnUse">
					<stop  offset="0.25" style="stop-color:#E5DEDB"/>
					<stop  offset="0.6386" style="stop-color:#E3DCD9"/>
					<stop  offset="0.7786" style="stop-color:#DDD6D3"/>
					<stop  offset="0.878" style="stop-color:#D2CBC9"/>
					<stop  offset="0.9239" style="stop-color:#CAC4C2"/>
					<stop  offset="1" style="stop-color:#E5E1DC"/>
				</radialGradient>
				<circle fill="url(#SVGID_13_)" cx="17.3" cy="16" r="16"/>
				
					<linearGradient id="SVGID_14_" gradientUnits="userSpaceOnUse" x1="59.4788" y1="-105.6617" x2="59.4788" y2="-130.7066" gradientTransform="matrix(0.9026 -0.4306 0.4306 0.9026 13.3145 145.6501)">
					<stop  offset="0" style="stop-color:#E5DEDB"/>
					<stop  offset="1" style="stop-color:#E5E1DC"/>
				</linearGradient>
				<path fill="url(#SVGID_14_)" d="M28.4,7.5c-3-6.2-10.9-8.7-17.6-5.5S0.9,13,3.9,19.2s10.9,8.7,17.6,5.5S31.3,13.8,28.4,7.5z"/>
				
					<linearGradient id="SVGID_15_" gradientUnits="userSpaceOnUse" x1="59.4788" y1="-116.8477" x2="59.4788" y2="-129.7599" gradientTransform="matrix(0.9026 -0.4306 0.4306 0.9026 13.3145 145.6501)">
					<stop  offset="5.076140e-03" style="stop-color:#E5E1DC"/>
					<stop  offset="1" style="stop-color:#FFFAF6"/>
				</linearGradient>
				<path fill="url(#SVGID_15_)" d="M24.4,5.6c-1.9-4.1-7.9-5.3-13.2-2.7c-5.4,2.6-8.1,7.9-6.2,12c1.9,4.1,6.4,2.2,11.8-0.3
					C22.1,12,26.3,9.7,24.4,5.6z"/>
			</g>
		</g>
	</g>
	<g>
		<g>
			<path d="M15.2,10.3c-0.3-0.1-0.6-0.1-1-0.2c-0.2-0.2-0.3-0.4-0.5-0.5c0-0.2,0.1-0.3,0.1-0.5c0.2,0,0.5,0.1,0.7,0.1
				c0,0.2-0.1,0.3-0.1,0.5c0.2,0,0.4,0.1,0.7,0.1c0.1-0.3,0.1-0.6,0.2-1c-0.3-0.1-0.5-0.1-0.8-0.2c-0.2-0.2-0.3-0.4-0.5-0.6
				c0.1-0.3,0.1-0.7,0.2-1c0.2-0.1,0.4-0.2,0.7-0.4c0.3,0.1,0.6,0.1,0.9,0.2c0.2,0.2,0.3,0.4,0.5,0.6c0,0.2-0.1,0.3-0.1,0.5
				c-0.2,0-0.5-0.1-0.7-0.1c0-0.2,0.1-0.3,0.1-0.5c-0.2,0-0.5-0.1-0.7-0.1c-0.1,0.3-0.1,0.6-0.2,1c0.3,0.1,0.5,0.1,0.8,0.2
				c0.2,0.2,0.3,0.4,0.5,0.6c-0.1,0.3-0.1,0.7-0.2,1C15.6,10,15.4,10.2,15.2,10.3z"/>
			<path d="M17.6,10.7c-0.3-0.1-0.6-0.1-0.9-0.2c-0.1-0.2-0.3-0.4-0.5-0.6c0.2-0.8,0.4-1.6,0.5-2.4c0.2-0.1,0.5-0.2,0.7-0.3
				c0.3,0.1,0.6,0.1,1,0.2c0.2,0.2,0.3,0.4,0.5,0.6c-0.2,0.8-0.4,1.6-0.6,2.4C18,10.5,17.8,10.6,17.6,10.7z M18.1,7.8
				c-0.2,0-0.4-0.1-0.7-0.1c-0.2,0.8-0.4,1.6-0.6,2.4c0.2,0,0.4,0.1,0.6,0.1C17.7,9.4,17.9,8.6,18.1,7.8z"/>
			<path d="M19.9,11.2c-0.3-0.1-0.6-0.1-0.9-0.2c-0.2-0.2-0.3-0.4-0.5-0.6c0.2-0.8,0.4-1.6,0.6-2.4c0.2-0.1,0.5-0.2,0.7-0.3
				c0.3,0.1,0.6,0.2,1,0.3c0.1,0.2,0.3,0.4,0.4,0.6c-0.1,0.2-0.1,0.4-0.2,0.7c-0.2-0.1-0.4-0.1-0.7-0.2c0.1-0.2,0.1-0.4,0.2-0.7
				c-0.2-0.1-0.5-0.1-0.7-0.2c-0.2,0.8-0.4,1.6-0.7,2.4c0.2,0.1,0.4,0.1,0.7,0.2c0.1-0.3,0.2-0.5,0.2-0.8c0.2,0.1,0.4,0.1,0.7,0.2
				c-0.1,0.3-0.2,0.5-0.2,0.8C20.4,11,20.1,11.1,19.9,11.2z"/>
			<path d="M20.8,11.5c0.3-1.1,0.6-2.1,1-3.2c0.2,0.1,0.5,0.1,0.7,0.2c-0.4,1-0.7,2.1-1,3.1C21.3,11.6,21.1,11.5,20.8,11.5z"/>
			<path d="M23.2,12.1c0-0.2,0.1-0.4,0.1-0.6c-0.2-0.1-0.5-0.1-0.7-0.2c-0.1,0.2-0.2,0.4-0.3,0.6c-0.2-0.1-0.4-0.1-0.6-0.2
				c0.5-1,1-2,1.6-3C23.6,8.8,24,9,24.4,9.1c-0.2,1.1-0.4,2.1-0.6,3.2C23.6,12.2,23.4,12.2,23.2,12.1z M23.7,9.4c0,0-0.1,0-0.1,0
				c-0.3,0.5-0.5,1-0.8,1.5c0.2,0.1,0.4,0.1,0.6,0.2C23.5,10.5,23.6,9.9,23.7,9.4z"/>
			<path d="M24,12.3c0.4-1,0.8-2,1.2-3c0.2,0.1,0.5,0.2,0.7,0.2c-0.4,0.9-0.7,1.7-1,2.6c0.3,0.1,0.6,0.2,0.8,0.3
				c-0.1,0.1-0.1,0.3-0.2,0.4C25,12.6,24.5,12.5,24,12.3z"/>
			<path d="M14.5,14.4c-0.3,0-0.6-0.1-0.8-0.1c-0.2-0.2-0.3-0.4-0.5-0.6c0.1-0.9,0.2-1.7,0.4-2.5c0.2-0.1,0.4-0.3,0.6-0.4
				c0.3,0.1,0.6,0.1,0.9,0.2c0.2,0.2,0.3,0.4,0.5,0.5c0,0.2-0.1,0.5-0.1,0.7c-0.2,0-0.4-0.1-0.6-0.1c0-0.2,0.1-0.5,0.1-0.7
				c-0.2,0-0.4-0.1-0.7-0.1c-0.1,0.8-0.3,1.7-0.4,2.5c0.2,0,0.4,0.1,0.6,0.1c0-0.3,0.1-0.6,0.1-0.9c0.2,0,0.4,0.1,0.6,0.1
				c-0.1,0.3-0.1,0.6-0.1,0.9C14.9,14.1,14.7,14.3,14.5,14.4z"/>
			<path d="M15.3,14.5c0.2-1.1,0.4-2.3,0.6-3.4c0.2,0,0.5,0.1,0.7,0.1c-0.2,1-0.4,1.9-0.6,2.9c0.3,0,0.6,0.1,0.8,0.1
				c0,0.2-0.1,0.3-0.1,0.5C16.3,14.7,15.8,14.6,15.3,14.5z"/>
			<path d="M17.1,14.8c0.2-1.1,0.5-2.2,0.7-3.3c0.2,0,0.5,0.1,0.7,0.1c-0.3,1.1-0.5,2.2-0.8,3.3C17.5,14.9,17.3,14.8,17.1,14.8z"/>
			<path d="M19.7,14.1c-0.2,0-0.4-0.1-0.6-0.1c-0.1,0.4-0.2,0.8-0.3,1.2c-0.2,0-0.4-0.1-0.6-0.1c0.2-1.1,0.5-2.2,0.8-3.3
				c0.4,0.1,0.9,0.2,1.3,0.3c0.1,0.2,0.3,0.4,0.4,0.6c-0.1,0.4-0.2,0.8-0.3,1.2C20.2,13.9,19.9,14,19.7,14.1z M20.1,12.4
				c-0.2,0-0.4-0.1-0.6-0.1c-0.1,0.4-0.2,0.8-0.3,1.2c0.2,0,0.4,0.1,0.6,0.1C19.9,13.2,20,12.8,20.1,12.4z"/>
		</g>
	</g>
</g>
</svg>
