<!-- Generator: Adobe Illustrator 18.0.0, SVG Export Plug-In  -->
<svg version="1.1"
	 xmlns="http://www.w3.org/2000/svg" xmlns:xlink="http://www.w3.org/1999/xlink" xmlns:a="http://ns.adobe.com/AdobeSVGViewerExtensions/3.0/"
	 x="0px" y="0px" width="33.8px" height="32.3px" viewBox="0 0 33.8 32.3" enable-background="new 0 0 33.8 32.3"
	 xml:space="preserve">
<defs>
</defs>
<g>
	<g>
		
			<radialGradient id="SVGID_1_" cx="1211.9807" cy="380.871" r="13.6738" gradientTransform="matrix(-1.1268 0.3023 -0.3023 -1.1268 1497.4128 79.1091)" gradientUnits="userSpaceOnUse">
			<stop  offset="0.25" style="stop-color:#E5DEDB"/>
			<stop  offset="0.6386" style="stop-color:#E3DCD9"/>
			<stop  offset="0.7786" style="stop-color:#DDD6D3"/>
			<stop  offset="0.878" style="stop-color:#D2CBC9"/>
			<stop  offset="0.9239" style="stop-color:#CAC4C2"/>
			<stop  offset="1" style="stop-color:#E5E1DC"/>
		</radialGradient>
		<circle fill="url(#SVGID_1_)" cx="16.5" cy="16.3" r="16"/>
		
			<linearGradient id="SVGID_2_" gradientUnits="userSpaceOnUse" x1="1356.4718" y1="469.4391" x2="1356.4718" y2="444.4089" gradientTransform="matrix(-0.9658 0.2591 -0.2591 -0.9658 1445.832 108.9285)">
			<stop  offset="0" style="stop-color:#E5DEDB"/>
			<stop  offset="1" style="stop-color:#E5E1DC"/>
		</linearGradient>
		<path fill="url(#SVGID_2_)" d="M4.2,22.6c1.8,6.7,9.1,10.5,16.4,8.6s11.7-8.9,9.9-15.6C28.6,8.9,21.3,5.1,14,7S2.4,16,4.2,22.6z"
			/>
		
			<linearGradient id="SVGID_3_" gradientUnits="userSpaceOnUse" x1="1356.4718" y1="458.2595" x2="1356.4718" y2="445.3553" gradientTransform="matrix(-0.9658 0.2591 -0.2591 -0.9658 1445.832 108.9285)">
			<stop  offset="5.076140e-03" style="stop-color:#E5E1DC"/>
			<stop  offset="1" style="stop-color:#FFFAF6"/>
		</linearGradient>
		<path fill="url(#SVGID_3_)" d="M7.8,25.2c1.2,4.3,6.8,6.6,12.5,5.1c5.7-1.5,9.5-6.3,8.3-10.7c-1.2-4.3-5.9-3.3-11.6-1.8
			C11.2,19.4,6.6,20.9,7.8,25.2z"/>
	</g>
	<g>
		<defs>
			<path id="SVGID_4_" d="M33.1,13c-0.1,0.3-0.2,0.5-0.3,0.8c-2,3.5-8.7,3.4-14.9-0.2c-6.2-3.6-9.7-9.3-7.7-12.8
				c0.1-0.2,0.3-0.5,0.5-0.7c-3.8,0.9-7,3-8.9,6.3c-4.1,7.1-0.6,16.7,7.8,21.6c8.4,4.8,18.5,3,22.6-4.1C34,20.5,34.2,16.6,33.1,13z"
				/>
		</defs>
		<clipPath id="SVGID_5_">
			<use xlink:href="#SVGID_4_"  overflow="visible"/>
		</clipPath>
		<g clip-path="url(#SVGID_5_)">
			<g>
				<g>
					<g>
						
							<radialGradient id="SVGID_6_" cx="1211.9808" cy="380.8713" r="13.6738" gradientTransform="matrix(-1.1268 0.3023 -0.3023 -1.1268 1497.4131 79.1094)" gradientUnits="userSpaceOnUse">
							<stop  offset="0.25" style="stop-color:#801517"/>
							<stop  offset="0.6012" style="stop-color:#811517"/>
							<stop  offset="0.7277" style="stop-color:#861719"/>
							<stop  offset="0.8178" style="stop-color:#8F191C"/>
							<stop  offset="0.8902" style="stop-color:#9C1C20"/>
							<stop  offset="0.9239" style="stop-color:#A51E22"/>
							<stop  offset="1" style="stop-color:#BE2026"/>
						</radialGradient>
						<circle fill="url(#SVGID_6_)" cx="16.5" cy="16.3" r="16"/>
						
							<linearGradient id="SVGID_7_" gradientUnits="userSpaceOnUse" x1="1356.4718" y1="469.4391" x2="1356.4718" y2="444.4089" gradientTransform="matrix(-0.9658 0.2591 -0.2591 -0.9658 1445.832 108.9285)">
							<stop  offset="0" style="stop-color:#801517"/>
							<stop  offset="1" style="stop-color:#D91F27"/>
						</linearGradient>
						<path fill="url(#SVGID_7_)" d="M4.2,22.6c1.8,6.7,9.1,10.5,16.4,8.6s11.7-8.9,9.9-15.6C28.6,8.9,21.3,5.1,14,7
							S2.4,16,4.2,22.6z"/>
						
							<linearGradient id="SVGID_8_" gradientUnits="userSpaceOnUse" x1="1356.4718" y1="458.2595" x2="1356.4718" y2="445.3553" gradientTransform="matrix(-0.9658 0.2591 -0.2591 -0.9658 1445.832 108.9285)">
							<stop  offset="5.076140e-03" style="stop-color:#A51E22"/>
							<stop  offset="1" style="stop-color:#EEDCDC"/>
						</linearGradient>
						<path fill="url(#SVGID_8_)" d="M7.8,25.2c1.2,4.3,6.8,6.6,12.5,5.1c5.7-1.5,9.5-6.3,8.3-10.7c-1.2-4.3-5.9-3.3-11.6-1.8
							C11.2,19.4,6.6,20.9,7.8,25.2z"/>
					</g>
				</g>
			</g>
		</g>
	</g>
	<g>
		<g>
			<path fill="#FFFFFF" d="M6.5,20.1C6,19.7,5.6,19.4,5.1,19c0.7-1.9,1.4-3.9,2.1-5.8c0.5,0.3,0.9,0.7,1.4,1
				C7.9,16.2,7.2,18.1,6.5,20.1z"/>
			<path fill="#FFFFFF" d="M15.3,22.9c-0.5,1.3-1.3,1.7-2.6,1.1c-0.7-0.3-1.1-0.8-1.3-1.5c-0.5,0.3-1.1,0.2-1.8-0.2
				c-1.3-0.8-1.7-1.9-1.2-3.1c0.5-1.4,1-2.8,1.5-4.2c0.5,0.3,0.9,0.6,1.4,0.8c-0.5,1.4-1,2.8-1.5,4.2c-0.2,0.6-0.1,1,0.3,1.3
				c0.5,0.3,0.9,0.1,1.1-0.6c0.5-1.4,1-2.8,1.5-4.1c0.5,0.2,0.9,0.5,1.4,0.7c-0.5,1.4-1,2.8-1.5,4.2c-0.2,0.7-0.1,1.1,0.4,1.4
				c0.4,0.2,0.8,0,1-0.6c0.5-1.4,1-2.9,1.5-4.4c0.5,0.2,0.9,0.4,1.4,0.5C16.3,19.9,15.8,21.4,15.3,22.9z"/>
			<path fill="#FFFFFF" d="M21.4,26.7c-0.5-0.1-0.9-0.2-1.4-0.3c0.4-1.1,0.7-2.1,1.1-3.2c-0.3,0.1-1,0.1-2.1-0.1
				c-0.9-0.2-1.4,0-1.6,0.5c-0.2,0.5,0.1,0.9,0.8,1.2c0.3,0.1,0.7,0.1,1.1,0.1c-0.1,0.4-0.3,0.8-0.4,1.2c-0.5-0.1-0.9-0.1-1.2-0.2
				c-1.6-0.5-2.2-1.5-1.7-2.7c0.4-1.2,1.4-1.6,2.9-1.4c0.5,0.1,1,0.2,1.6,0.3c0.6,0,1-0.1,1.1-0.5c0.1-0.2,0-0.5-0.2-0.6
				c-0.2-0.2-0.5-0.3-0.9-0.4c-0.4-0.1-0.8-0.1-1.1,0c-0.4,0.1-0.7,0.3-0.8,0.6c-0.5-0.1-1-0.3-1.4-0.4c0.4-0.7,0.9-1.1,1.7-1.3
				c0.6-0.2,1.3-0.1,2.1,0c0.8,0.2,1.4,0.4,1.8,0.8c0.5,0.4,0.6,1,0.4,1.7C22.5,23.5,22,25.1,21.4,26.7z"/>
			<path fill="#FFFFFF" d="M28.8,23.1c-0.3,1.1-0.8,1.9-1.4,2.6c-0.8,0.9-1.7,1.3-2.8,1.3c-0.3,0-0.6,0-0.9,0c0-1.9,0-3.7,0-5.6
				c0.5-0.3,0.9-0.5,1.4-0.8c0,1.7,0,3.5,0,5.2c0,0,0,0,0,0c0.6,0,1.1-0.3,1.6-0.9c0.4-0.5,0.7-1.2,0.9-2c0.2-1.1-0.2-1.5-1.2-1.5
				c-0.2,0-0.4,0-0.7,0c0.1-0.4,0.3-0.9,0.4-1.3c0.3,0,0.6-0.1,0.8-0.1C28.8,19.9,29.4,20.8,28.8,23.1z"/>
		</g>
	</g>
</g>
</svg>
