<!-- Generator: Adobe Illustrator 18.0.0, SVG Export Plug-In  -->
<svg version="1.1"
	 xmlns="http://www.w3.org/2000/svg" xmlns:xlink="http://www.w3.org/1999/xlink" xmlns:a="http://ns.adobe.com/AdobeSVGViewerExtensions/3.0/"
	 x="0px" y="0px" width="35px" height="32px" viewBox="0 0 35 32" enable-background="new 0 0 35 32" xml:space="preserve">
<defs>
</defs>
<g>
	<g>
		
			<radialGradient id="SVGID_1_" cx="234.1865" cy="-261.5653" r="13.7093" gradientTransform="matrix(0.9464 -0.6823 0.6823 0.9464 -25.8059 423.3235)" gradientUnits="userSpaceOnUse">
			<stop  offset="0.25" style="stop-color:#E5DEDB"/>
			<stop  offset="0.6386" style="stop-color:#E3DCD9"/>
			<stop  offset="0.7786" style="stop-color:#DDD6D3"/>
			<stop  offset="0.878" style="stop-color:#D2CBC9"/>
			<stop  offset="0.9239" style="stop-color:#CAC4C2"/>
			<stop  offset="1" style="stop-color:#E5E1DC"/>
		</radialGradient>
		<circle fill="url(#SVGID_1_)" cx="17.4" cy="16" r="16"/>
		
			<linearGradient id="SVGID_2_" gradientUnits="userSpaceOnUse" x1="209.4178" y1="-280.0397" x2="209.4178" y2="-305.1351" gradientTransform="matrix(0.8112 -0.5848 0.5848 0.8112 16.9121 373.4675)">
			<stop  offset="0" style="stop-color:#E5DEDB"/>
			<stop  offset="1" style="stop-color:#E5E1DC"/>
		</linearGradient>
		<path fill="url(#SVGID_2_)" d="M26.7,5.7C22.7,0.1,14.4-0.9,8.3,3.5C2.2,7.9,0.6,16,4.6,21.6c4.1,5.6,12.3,6.6,18.4,2.2
			C29.1,19.4,30.8,11.3,26.7,5.7z"/>
		
			<linearGradient id="SVGID_3_" gradientUnits="userSpaceOnUse" x1="209.4176" y1="-291.2483" x2="209.4176" y2="-304.1866" gradientTransform="matrix(0.8112 -0.5848 0.5848 0.8112 16.9121 373.4675)">
			<stop  offset="5.076140e-03" style="stop-color:#E5E1DC"/>
			<stop  offset="1" style="stop-color:#FFFAF6"/>
		</linearGradient>
		<path fill="url(#SVGID_3_)" d="M22.4,4.6c-2.6-3.7-8.7-3.8-13.5-0.3c-4.8,3.5-6.6,9.3-4,12.9c2.6,3.7,6.7,1,11.5-2.4
			C21.3,11.3,25.1,8.2,22.4,4.6z"/>
	</g>
	<g>
		<defs>
			<path id="SVGID_4_" d="M3.1,25.1c0-0.3,0-0.5,0-0.8c0.6-4,6.9-6.2,14.1-5.1c7.1,1.2,12.4,5.3,11.8,9.3c0,0.3-0.1,0.5-0.2,0.8
				c3.2-2.1,5.5-5.3,6.1-9.1c1.3-8.1-5.4-15.9-15-17.4C10.3,1.1,1.5,6.4,0.2,14.5C-0.5,18.3,0.7,22,3.1,25.1z"/>
		</defs>
		<clipPath id="SVGID_5_">
			<use xlink:href="#SVGID_4_"  overflow="visible"/>
		</clipPath>
		<g clip-path="url(#SVGID_5_)">
			<g>
				<g>
					<g>
						
							<radialGradient id="SVGID_6_" cx="234.1865" cy="-261.5653" r="13.7093" gradientTransform="matrix(0.9464 -0.6823 0.6823 0.9464 -25.8059 423.3235)" gradientUnits="userSpaceOnUse">
							<stop  offset="0.25" style="stop-color:#262262"/>
							<stop  offset="0.5881" style="stop-color:#282362"/>
							<stop  offset="0.7099" style="stop-color:#2F2465"/>
							<stop  offset="0.7967" style="stop-color:#3B266A"/>
							<stop  offset="0.8664" style="stop-color:#4B2870"/>
							<stop  offset="0.9239" style="stop-color:#5E2A79"/>
							<stop  offset="1" style="stop-color:#92278F"/>
						</radialGradient>
						<circle fill="url(#SVGID_6_)" cx="17.4" cy="16" r="16"/>
						
							<linearGradient id="SVGID_7_" gradientUnits="userSpaceOnUse" x1="209.4178" y1="-280.0397" x2="209.4178" y2="-305.1351" gradientTransform="matrix(0.8112 -0.5848 0.5848 0.8112 16.9121 373.4675)">
							<stop  offset="0" style="stop-color:#262262"/>
							<stop  offset="1" style="stop-color:#A2459A"/>
						</linearGradient>
						<path fill="url(#SVGID_7_)" d="M26.7,5.7C22.7,0.1,14.4-0.9,8.3,3.5C2.2,7.9,0.6,16,4.6,21.6c4.1,5.6,12.3,6.6,18.4,2.2
							C29.1,19.4,30.8,11.3,26.7,5.7z"/>
						
							<linearGradient id="SVGID_8_" gradientUnits="userSpaceOnUse" x1="209.4176" y1="-291.2483" x2="209.4176" y2="-304.1866" gradientTransform="matrix(0.8112 -0.5848 0.5848 0.8112 16.9121 373.4675)">
							<stop  offset="5.076140e-03" style="stop-color:#5E2A79"/>
							<stop  offset="1" style="stop-color:#E7BED9"/>
						</linearGradient>
						<path fill="url(#SVGID_8_)" d="M22.4,4.6c-2.6-3.7-8.7-3.8-13.5-0.3c-4.8,3.5-6.6,9.3-4,12.9c2.6,3.7,6.7,1,11.5-2.4
							C21.3,11.3,25.1,8.2,22.4,4.6z"/>
					</g>
				</g>
			</g>
		</g>
	</g>
	<g>
		<g>
			<path fill="#FFFFFF" d="M13.9,10.5c-0.3,0-0.5,0-0.8,0c0-1,0.1-1.9,0.1-2.9c-0.2,0-0.4,0-0.6,0c-0.6,0-1.2,0.1-1.6,0.3
				c-0.5,0.3-0.8,0.6-0.8,1.1c0,0.3,0.1,0.6,0.4,0.7c0.3,0.2,0.6,0.2,1,0.2c0.1,0,0.2,0,0.4,0c0,0.2,0,0.4,0,0.6c-0.2,0-0.3,0-0.4,0
				c-0.6,0-1.1-0.1-1.5-0.3C9.7,9.9,9.5,9.5,9.5,9c0-0.6,0.3-1.1,0.9-1.5C11,7.2,11.7,7,12.7,7c0.2,0,0.4,0,0.6,0
				c0-0.4-0.5-0.7-1.5-0.7c-0.8,0-1.6,0.2-2.1,0.7c0-0.2,0-0.4,0-0.6C10.2,6,11,5.8,11.9,5.8c0.7,0,1.2,0.1,1.6,0.3
				c0.5,0.2,0.7,0.6,0.6,1.1C14.1,8.3,14,9.4,13.9,10.5z"/>
			<path fill="#FFFFFF" d="M16.4,9.5c-0.1,0.2-0.3,0.4-0.4,0.5c-0.4,0-0.8-0.1-1.3-0.1c0-0.3,0-0.6,0.1-0.8c0.3,0,0.5,0,0.8,0
				c0,0.1,0,0.2,0,0.3C15.8,9.4,16.1,9.4,16.4,9.5z M16.7,6.8c-0.2,0.2-0.3,0.4-0.4,0.5c-0.4,0-0.9-0.1-1.3-0.1
				c0-0.3,0.1-0.6,0.1-0.8c0.3,0,0.6,0,0.8,0.1c0,0.1,0,0.2,0,0.3C16.1,6.8,16.4,6.8,16.7,6.8z"/>
			<path fill="#FFFFFF" d="M20.9,11.2c-0.2,0-0.5-0.1-0.7-0.1c0.2-1,0.4-2.1,0.7-3.1C21,7.4,20.6,7,19.6,6.9c-1-0.1-1.5,0.1-1.6,0.7
				c0,0.1,0,0.3-0.1,0.4c0.5,0.1,1,0.1,1.5,0.2c0,0.2-0.1,0.4-0.1,0.6c-0.5-0.1-1-0.1-1.5-0.2c-0.1,0.7-0.2,1.4-0.3,2.2
				c-0.3,0-0.5,0-0.8-0.1c0.1-1.1,0.3-2.2,0.4-3.3c0.1-0.5,0.4-0.8,1-1c0.5-0.1,1-0.2,1.6-0.1c0.6,0.1,1.1,0.3,1.4,0.5
				c0.5,0.3,0.6,0.7,0.5,1.2C21.4,9.1,21.2,10.1,20.9,11.2z"/>
			<path fill="#FFFFFF" d="M25.8,10.9c-0.2,0.5-0.5,0.8-1,0.9c-0.4,0.1-0.9,0.1-1.5,0c-0.8-0.2-1.3-0.4-1.7-0.8
				c0.1-0.2,0.1-0.4,0.2-0.6c0.3,0.4,0.9,0.7,1.6,0.9c0.9,0.2,1.5,0.1,1.6-0.5c0.1-0.4-0.1-0.8-0.9-1.1c-0.6-0.3-1.1-0.5-1.4-0.6
				c-0.4-0.3-0.6-0.6-0.5-1c0.1-0.3,0.4-0.6,0.8-0.7c0.4-0.1,1-0.1,1.5,0c0.8,0.2,1.4,0.5,1.8,1c-0.1,0.2-0.1,0.4-0.2,0.6
				c-0.3-0.5-0.9-0.8-1.6-1c-0.4-0.1-0.7-0.1-0.9-0.1c-0.3,0-0.5,0.2-0.5,0.3c0,0.2,0.1,0.3,0.4,0.5c0.2,0.1,0.5,0.2,0.9,0.4
				C25.6,9.6,26,10.2,25.8,10.9z"/>
			<path fill="#FFFFFF" d="M8.3,13.7c0.1,0.8-0.1,1.5-0.4,1.9c-0.3,0.4-0.8,0.7-1.4,0.8c-0.6,0.1-1.1,0-1.6-0.2
				c-0.5-0.3-0.9-0.9-1-1.7c0-0.2-0.1-0.5-0.1-0.7c0.5-0.1,1.1-0.2,1.6-0.3c0,0.2,0.1,0.4,0.1,0.6c-0.3,0.1-0.6,0.1-0.9,0.2
				c0,0,0,0.1,0,0.1c0.1,0.6,0.4,1,0.7,1.3C5.5,16,5.9,16,6.3,15.9c0.4-0.1,0.8-0.3,1-0.6c0.2-0.4,0.3-0.9,0.3-1.5
				c-0.1-0.6-0.3-1-0.6-1.3c-0.3-0.3-0.7-0.4-1.2-0.3c-0.7,0.1-1.1,0.5-1.3,1c-0.3,0.1-0.5,0.1-0.8,0.2c0.1-1,0.8-1.6,2-1.8
				c0.7-0.1,1.3,0,1.8,0.3C7.9,12.3,8.2,12.9,8.3,13.7z"/>
			<path fill="#FFFFFF" d="M13.3,13.4c0,0.8-0.2,1.4-0.7,1.8c-0.4,0.4-0.9,0.6-1.5,0.6c-0.6,0-1.1-0.1-1.5-0.4
				c-0.5-0.4-0.7-1-0.8-1.8c0-0.2,0-0.5,0-0.7c0.5-0.1,1.1-0.1,1.6-0.1c0,0.2,0,0.4,0,0.6c-0.3,0-0.6,0-0.9,0.1c0,0,0,0.1,0,0.1
				c0,0.6,0.2,1.1,0.5,1.4c0.3,0.3,0.6,0.4,1.1,0.4c0.4,0,0.8-0.2,1-0.5c0.3-0.3,0.4-0.8,0.4-1.4c0-0.6-0.1-1-0.4-1.3
				c-0.3-0.3-0.7-0.4-1.2-0.4c-0.7,0-1.1,0.3-1.4,0.9c-0.3,0-0.5,0-0.8,0.1c0.3-0.9,1-1.5,2.1-1.5c0.7,0,1.3,0.1,1.7,0.5
				C13.1,12,13.3,12.6,13.3,13.4z"/>
			<path fill="#FFFFFF" d="M17.5,15.9c-0.2,0-0.4,0-0.7-0.1c0-0.2,0-0.4,0.1-0.6c-0.5,0.4-1,0.6-1.6,0.6c-0.9,0-1.4-0.5-1.4-1.5
				c0-1.1,0.1-2.2,0.1-3.3c0.3,0,0.5,0,0.8,0c-0.1,1.1-0.1,2.1-0.2,3.2c0,0.6,0.2,0.9,0.8,0.9c0.4,0,0.8-0.1,1.1-0.4
				c0.3-0.2,0.5-0.5,0.5-0.8c0.1-1,0.2-1.9,0.4-2.9c0.2,0,0.5,0.1,0.7,0.1C17.9,12.9,17.7,14.4,17.5,15.9z"/>
			<path fill="#FFFFFF" d="M19.1,16.1c-0.2,0-0.4-0.1-0.7-0.1c0.2-1.5,0.5-3,0.7-4.5c0.2,0,0.5,0.1,0.7,0.1
				C19.6,13.1,19.3,14.6,19.1,16.1z M20.5,16.3c-0.2,0-0.4-0.1-0.7-0.1c0.3-1.5,0.6-3,0.9-4.4c0.2,0,0.5,0.1,0.7,0.1
				C21.1,13.4,20.8,14.8,20.5,16.3z"/>
			<path fill="#FFFFFF" d="M26,15.4c-0.3,0.7-0.7,1.2-1.2,1.5c-0.5,0.2-1,0.3-1.6,0.1c-0.6-0.1-1-0.4-1.3-0.8
				c-0.3-0.5-0.4-1.1-0.2-1.9c0.1-0.2,0.1-0.4,0.2-0.6c0.5,0.1,1,0.2,1.5,0.4c-0.1,0.2-0.1,0.4-0.2,0.5c-0.3-0.1-0.6-0.1-0.9-0.2
				c0,0,0,0.1,0,0.1c-0.1,0.6-0.1,1,0.1,1.4c0.2,0.3,0.5,0.5,0.9,0.6c0.4,0.1,0.8,0.1,1.1-0.1c0.4-0.2,0.6-0.6,0.8-1.1
				c0.2-0.5,0.2-1,0-1.3c-0.2-0.4-0.5-0.6-0.9-0.7c-0.6-0.2-1.1,0-1.5,0.4c-0.2-0.1-0.5-0.1-0.7-0.2c0.5-0.8,1.3-1,2.4-0.7
				c0.7,0.2,1.1,0.5,1.4,1C26.3,14.1,26.3,14.7,26,15.4z"/>
			<path fill="#FFFFFF" d="M29.4,17.6c-0.2,0.4-0.5,0.7-1,0.8c-0.4,0.1-0.8,0-1.3-0.2c-0.6-0.2-1.1-0.5-1.3-0.9
				c0.1-0.2,0.2-0.4,0.2-0.6c0.2,0.4,0.7,0.8,1.2,1c0.8,0.3,1.3,0.2,1.5-0.4c0.2-0.4,0-0.8-0.6-1.1c-0.5-0.3-0.9-0.5-1.1-0.7
				c-0.3-0.3-0.4-0.6-0.3-1c0.1-0.3,0.4-0.5,0.8-0.6c0.4-0.1,0.9,0,1.3,0.2c0.7,0.3,1.2,0.6,1.4,1.1c-0.1,0.2-0.2,0.4-0.3,0.6
				c-0.2-0.5-0.7-0.8-1.3-1.1c-0.3-0.1-0.6-0.2-0.8-0.1c-0.3,0-0.4,0.1-0.5,0.3c-0.1,0.2,0,0.3,0.2,0.5c0.1,0.1,0.4,0.3,0.8,0.5
				C29.5,16.3,29.8,16.9,29.4,17.6z"/>
			<path fill="#FFFFFF" d="M32.1,13c-0.2,0.1-0.3,0.2-0.5,0.2c-0.1,0-0.2-0.1-0.3-0.1c-0.3-0.1-0.4-0.1-0.5,0.1c0,0,0,0.1,0,0.1
				c-0.2-0.1-0.4-0.2-0.7-0.3c0-0.1,0.1-0.1,0.1-0.2c0.2-0.3,0.5-0.4,1-0.2C31.6,12.7,31.9,12.8,32.1,13z"/>
		</g>
	</g>
</g>
</svg>
