<!-- Generator: Adobe Illustrator 18.0.0, SVG Export Plug-In  -->
<svg version="1.1"
	 xmlns="http://www.w3.org/2000/svg" xmlns:xlink="http://www.w3.org/1999/xlink" xmlns:a="http://ns.adobe.com/AdobeSVGViewerExtensions/3.0/"
	 x="0px" y="0px" width="34.9px" height="31.8px" viewBox="0 0 34.9 31.8" enable-background="new 0 0 34.9 31.8"
	 xml:space="preserve">
<defs>
</defs>
<g>
	<g>
		<g>
			
				<radialGradient id="SVGID_1_" cx="485.7335" cy="322.1946" r="13.6454" gradientTransform="matrix(-0.7434 0.8992 -0.8992 -0.7434 668.7267 -181.3226)" gradientUnits="userSpaceOnUse">
				<stop  offset="0.25" style="stop-color:#E5DEDB"/>
				<stop  offset="0.6386" style="stop-color:#E3DCD9"/>
				<stop  offset="0.7786" style="stop-color:#DDD6D3"/>
				<stop  offset="0.878" style="stop-color:#D2CBC9"/>
				<stop  offset="0.9239" style="stop-color:#CAC4C2"/>
				<stop  offset="1" style="stop-color:#E5E1DC"/>
			</radialGradient>
			<circle fill="url(#SVGID_1_)" cx="17.9" cy="15.9" r="15.9"/>
			
				<linearGradient id="SVGID_2_" gradientUnits="userSpaceOnUse" x1="496.4355" y1="394.4383" x2="496.4355" y2="369.4599" gradientTransform="matrix(-0.6372 0.7707 -0.7707 -0.6372 630.8197 -121.4869)">
				<stop  offset="0" style="stop-color:#E5DEDB"/>
				<stop  offset="1" style="stop-color:#E5E1DC"/>
			</linearGradient>
			<path fill="url(#SVGID_2_)" d="M11.5,28.2c5.3,4.4,13.5,3.3,18.3-2.5s4.3-14-1-18.4C23.4,2.9,15.3,4,10.5,9.8S6.2,23.8,11.5,28.2
				z"/>
			
				<linearGradient id="SVGID_3_" gradientUnits="userSpaceOnUse" x1="496.4355" y1="383.2818" x2="496.4355" y2="370.4044" gradientTransform="matrix(-0.6372 0.7707 -0.7707 -0.6372 630.8197 -121.4869)">
				<stop  offset="5.076140e-03" style="stop-color:#E5E1DC"/>
				<stop  offset="1" style="stop-color:#FFFAF6"/>
			</linearGradient>
			<path fill="url(#SVGID_3_)" d="M15.9,28.2c3.5,2.9,9.3,1.5,13.1-3.1c3.8-4.6,4-10.6,0.6-13.5c-3.5-2.9-6.7,0.7-10.5,5.3
				C15.3,21.5,12.4,25.3,15.9,28.2z"/>
		</g>
		<g>
			<defs>
				<path id="SVGID_4_" d="M29.4,3.6c0.1,0.3,0.1,0.5,0.2,0.8c0.4,4-5.1,7.8-12.3,8.4c-7.2,0.7-13.3-2-13.6-6c0-0.3,0-0.5,0-0.8
					c-2.6,2.9-3.9,6.5-3.6,10.3c0.8,8.1,9.2,13.9,18.8,13c9.6-0.9,16.8-8.2,16-16.3C34.5,9.3,32.5,5.9,29.4,3.6z"/>
			</defs>
			<clipPath id="SVGID_5_">
				<use xlink:href="#SVGID_4_"  overflow="visible"/>
			</clipPath>
			<g clip-path="url(#SVGID_5_)">
				<g>
					<g>
						<g>
							
								<radialGradient id="SVGID_6_" cx="485.7336" cy="322.1949" r="13.6454" gradientTransform="matrix(-0.7434 0.8992 -0.8992 -0.7434 668.7271 -181.3224)" gradientUnits="userSpaceOnUse">
								<stop  offset="0.25" style="stop-color:#174D26"/>
								<stop  offset="0.5795" style="stop-color:#174E26"/>
								<stop  offset="0.6981" style="stop-color:#195229"/>
								<stop  offset="0.7827" style="stop-color:#1B592C"/>
								<stop  offset="0.8511" style="stop-color:#1F6232"/>
								<stop  offset="0.909" style="stop-color:#226F38"/>
								<stop  offset="0.9239" style="stop-color:#23733A"/>
								<stop  offset="1" style="stop-color:#32804D"/>
							</radialGradient>
							<circle fill="url(#SVGID_6_)" cx="17.9" cy="15.9" r="15.9"/>
							
								<linearGradient id="SVGID_7_" gradientUnits="userSpaceOnUse" x1="496.4355" y1="394.4383" x2="496.4355" y2="369.4599" gradientTransform="matrix(-0.6372 0.7707 -0.7707 -0.6372 630.8197 -121.4869)">
								<stop  offset="0" style="stop-color:#174D26"/>
								<stop  offset="1" style="stop-color:#4DA657"/>
							</linearGradient>
							<path fill="url(#SVGID_7_)" d="M11.5,28.2c5.3,4.4,13.5,3.3,18.3-2.5s4.3-14-1-18.4C23.4,2.9,15.3,4,10.5,9.8
								S6.2,23.8,11.5,28.2z"/>
							
								<linearGradient id="SVGID_8_" gradientUnits="userSpaceOnUse" x1="496.4355" y1="383.2818" x2="496.4355" y2="370.4044" gradientTransform="matrix(-0.6372 0.7707 -0.7707 -0.6372 630.8197 -121.4869)">
								<stop  offset="5.076140e-03" style="stop-color:#23733A"/>
								<stop  offset="1" style="stop-color:#DDEDE1"/>
							</linearGradient>
							<path fill="url(#SVGID_8_)" d="M15.9,28.2c3.5,2.9,9.3,1.5,13.1-3.1c3.8-4.6,4-10.6,0.6-13.5c-3.5-2.9-6.7,0.7-10.5,5.3
								C15.3,21.5,12.4,25.3,15.9,28.2z"/>
						</g>
					</g>
				</g>
			</g>
		</g>
		<g>
			<defs>
				<circle id="SVGID_9_" cx="18.3" cy="21.1" r="6.9"/>
			</defs>
			<clipPath id="SVGID_10_">
				<use xlink:href="#SVGID_9_"  overflow="visible"/>
			</clipPath>
			<g clip-path="url(#SVGID_10_)">
				
					<radialGradient id="SVGID_11_" cx="485.7335" cy="322.1946" r="13.6454" gradientTransform="matrix(-0.7434 0.8992 -0.8992 -0.7434 668.7267 -181.3226)" gradientUnits="userSpaceOnUse">
					<stop  offset="0.25" style="stop-color:#E5DEDB"/>
					<stop  offset="0.6386" style="stop-color:#E3DCD9"/>
					<stop  offset="0.7786" style="stop-color:#DDD6D3"/>
					<stop  offset="0.878" style="stop-color:#D2CBC9"/>
					<stop  offset="0.9239" style="stop-color:#CAC4C2"/>
					<stop  offset="1" style="stop-color:#E5E1DC"/>
				</radialGradient>
				<circle fill="url(#SVGID_11_)" cx="17.9" cy="15.9" r="15.9"/>
				
					<linearGradient id="SVGID_12_" gradientUnits="userSpaceOnUse" x1="496.4355" y1="394.4383" x2="496.4355" y2="369.4599" gradientTransform="matrix(-0.6372 0.7707 -0.7707 -0.6372 630.8197 -121.4869)">
					<stop  offset="0" style="stop-color:#E5DEDB"/>
					<stop  offset="1" style="stop-color:#E5E1DC"/>
				</linearGradient>
				<path fill="url(#SVGID_12_)" d="M11.5,28.2c5.3,4.4,13.5,3.3,18.3-2.5s4.3-14-1-18.4C23.4,2.9,15.3,4,10.5,9.8
					S6.2,23.8,11.5,28.2z"/>
				
					<linearGradient id="SVGID_13_" gradientUnits="userSpaceOnUse" x1="496.4355" y1="383.2818" x2="496.4355" y2="370.4044" gradientTransform="matrix(-0.6372 0.7707 -0.7707 -0.6372 630.8197 -121.4869)">
					<stop  offset="5.076140e-03" style="stop-color:#E5E1DC"/>
					<stop  offset="1" style="stop-color:#FFFAF6"/>
				</linearGradient>
				<path fill="url(#SVGID_13_)" d="M15.9,28.2c3.5,2.9,9.3,1.5,13.1-3.1c3.8-4.6,4-10.6,0.6-13.5c-3.5-2.9-6.7,0.7-10.5,5.3
					C15.3,21.5,12.4,25.3,15.9,28.2z"/>
			</g>
		</g>
	</g>
	<text transform="matrix(0.9847 -0.174 0.174 0.9847 14.2594 25.0396)" font-family="'PSLSamsonStar'" font-size="13.3888">ข่าว</text>
</g>
</svg>
