<!-- Generator: Adobe Illustrator 18.0.0, SVG Export Plug-In  -->
<svg version="1.1"
	 xmlns="http://www.w3.org/2000/svg" xmlns:xlink="http://www.w3.org/1999/xlink" xmlns:a="http://ns.adobe.com/AdobeSVGViewerExtensions/3.0/"
	 x="0px" y="0px" width="34.6px" height="31.6px" viewBox="0 0 34.6 31.6" enable-background="new 0 0 34.6 31.6"
	 xml:space="preserve">
<defs>
</defs>
<g>
	<g>
		<g>
			
				<radialGradient id="SVGID_1_" cx="199.4016" cy="-246.5749" r="13.5494" gradientTransform="matrix(0.9401 -0.6909 0.6909 0.9401 4.742135e-02 385.388)" gradientUnits="userSpaceOnUse">
				<stop  offset="0.25" style="stop-color:#E5DEDB"/>
				<stop  offset="0.6386" style="stop-color:#E3DCD9"/>
				<stop  offset="0.7786" style="stop-color:#DDD6D3"/>
				<stop  offset="0.878" style="stop-color:#D2CBC9"/>
				<stop  offset="0.9239" style="stop-color:#CAC4C2"/>
				<stop  offset="1" style="stop-color:#E5E1DC"/>
			</radialGradient>
			<circle fill="url(#SVGID_1_)" cx="17.2" cy="15.8" r="15.8"/>
			
				<linearGradient id="SVGID_2_" gradientUnits="userSpaceOnUse" x1="175.0251" y1="-269.1939" x2="175.0251" y2="-293.9965" gradientTransform="matrix(0.8058 -0.5922 0.5922 0.8058 41.1877 344.0734)">
				<stop  offset="0" style="stop-color:#E5DEDB"/>
				<stop  offset="1" style="stop-color:#E5E1DC"/>
			</linearGradient>
			<path fill="url(#SVGID_2_)" d="M26.3,5.6C22.3,0,14.1-0.9,8.1,3.5c-6,4.4-7.5,12.4-3.5,18c4.1,5.5,12.2,6.4,18.2,2
				C28.8,19.1,30.4,11.1,26.3,5.6z"/>
			
				<linearGradient id="SVGID_3_" gradientUnits="userSpaceOnUse" x1="175.0251" y1="-280.2718" x2="175.0251" y2="-293.059" gradientTransform="matrix(0.8058 -0.5922 0.5922 0.8058 41.1877 344.0734)">
				<stop  offset="5.076140e-03" style="stop-color:#E5E1DC"/>
				<stop  offset="1" style="stop-color:#FFFAF6"/>
			</linearGradient>
			<path fill="url(#SVGID_3_)" d="M22.1,4.5c-2.6-3.6-8.6-3.7-13.4-0.2c-4.7,3.5-6.5,9.2-3.8,12.8c2.6,3.6,6.6,1,11.4-2.5
				C21,11.1,24.7,8.1,22.1,4.5z"/>
		</g>
		<g>
			<defs>
				<path id="SVGID_4_" d="M3.1,24.9c0-0.3,0-0.5,0-0.8c0.6-3.9,6.8-6.2,13.9-5.2c7.1,1.1,12.3,5.1,11.7,9.1c0,0.3-0.1,0.5-0.2,0.8
					c3.2-2.1,5.4-5.3,5.9-9.1c1.2-8-5.5-15.7-14.9-17.1C10,1.2,1.4,6.5,0.1,14.5C-0.4,18.2,0.7,21.9,3.1,24.9z"/>
			</defs>
			<clipPath id="SVGID_5_">
				<use xlink:href="#SVGID_4_"  overflow="visible"/>
			</clipPath>
			<g clip-path="url(#SVGID_5_)">
				<g>
					<g>
						<g>
							
								<radialGradient id="SVGID_6_" cx="199.4017" cy="-246.5746" r="13.5494" gradientTransform="matrix(0.9401 -0.6909 0.6909 0.9401 4.716312e-02 385.3878)" gradientUnits="userSpaceOnUse">
								<stop  offset="0.25" style="stop-color:#D9A428"/>
								<stop  offset="0.631" style="stop-color:#DBA628"/>
								<stop  offset="0.7683" style="stop-color:#E1AA29"/>
								<stop  offset="0.8657" style="stop-color:#EBB32B"/>
								<stop  offset="0.9239" style="stop-color:#F6BB2F"/>
								<stop  offset="1" style="stop-color:#FAD57C"/>
							</radialGradient>
							<circle fill="url(#SVGID_6_)" cx="17.2" cy="15.8" r="15.8"/>
							
								<linearGradient id="SVGID_7_" gradientUnits="userSpaceOnUse" x1="175.0251" y1="-269.1939" x2="175.0251" y2="-293.9965" gradientTransform="matrix(0.8058 -0.5922 0.5922 0.8058 41.1877 344.0734)">
								<stop  offset="0" style="stop-color:#D9A428"/>
								<stop  offset="1" style="stop-color:#FADF7E"/>
							</linearGradient>
							<path fill="url(#SVGID_7_)" d="M26.3,5.6C22.3,0,14.1-0.9,8.1,3.5c-6,4.4-7.5,12.4-3.5,18c4.1,5.5,12.2,6.4,18.2,2
								C28.8,19.1,30.4,11.1,26.3,5.6z"/>
							
								<linearGradient id="SVGID_8_" gradientUnits="userSpaceOnUse" x1="175.0251" y1="-280.2718" x2="175.0251" y2="-293.059" gradientTransform="matrix(0.8058 -0.5922 0.5922 0.8058 41.1877 344.0734)">
								<stop  offset="5.076140e-03" style="stop-color:#EAC12B"/>
								<stop  offset="1" style="stop-color:#FAF7ED"/>
							</linearGradient>
							<path fill="url(#SVGID_8_)" d="M22.1,4.5c-2.6-3.6-8.6-3.7-13.4-0.2c-4.7,3.5-6.5,9.2-3.8,12.8c2.6,3.6,6.6,1,11.4-2.5
								C21,11.1,24.7,8.1,22.1,4.5z"/>
						</g>
					</g>
				</g>
			</g>
		</g>
	</g>
	<g>
		<g>
			<path d="M6.5,13.7c0-0.6,0.1-1.3,0.1-1.9c-0.3,0-0.6,0-1,0c0,0.4,0,0.8-0.1,1.2c0.1,0,0.3,0,0.4,0c0,0.2,0,0.5,0,0.7
				c-0.2,0-0.5,0-0.7,0c-0.2-0.2-0.4-0.3-0.6-0.5c0-0.5,0-1.1,0.1-1.6c0.2-0.2,0.4-0.4,0.6-0.6c0.4,0,0.9,0,1.3,0
				c0-0.3,0.1-0.7,0.1-1c-0.3,0-0.7,0-1,0c0,0.2,0,0.3,0,0.5c-0.3,0-0.6,0-0.9,0c0-0.2,0-0.4,0-0.6C5,9.7,5.3,9.5,5.5,9.3
				c0.5,0,1,0,1.5,0C7.2,9.6,7.4,9.8,7.7,10c-0.1,1.2-0.2,2.5-0.3,3.7C7.1,13.7,6.8,13.7,6.5,13.7z"/>
			<path d="M8.8,13.5c-0.2,0-0.3,0-0.5,0c-0.1-0.1-0.2-0.2-0.3-0.4c0-0.2,0-0.3,0-0.5c0.1-0.1,0.3-0.2,0.4-0.3c0.2,0,0.3,0,0.5,0
				c0.1,0.1,0.2,0.2,0.3,0.4c0,0.2,0,0.3-0.1,0.5C9,13.3,8.9,13.4,8.8,13.5z M9,11c-0.2,0-0.3,0-0.5,0c-0.1-0.1-0.2-0.2-0.3-0.4
				c0-0.2,0-0.3,0.1-0.5C8.3,10,8.5,9.9,8.6,9.8c0.2,0,0.4,0,0.5,0c0.1,0.1,0.2,0.2,0.3,0.4c0,0.2,0,0.3-0.1,0.5
				C9.3,10.8,9.1,10.9,9,11z"/>
			<path d="M11.4,14c0.2-1.2,0.3-2.4,0.5-3.6c-0.3,0-0.6-0.1-1-0.1c0,0.3-0.1,0.7-0.1,1c0.2,0,0.4,0,0.6,0.1c0,0.3-0.1,0.5-0.1,0.8
				c-0.2,0-0.4,0-0.6-0.1c-0.1,0.6-0.2,1.2-0.2,1.8c-0.3,0-0.6,0-0.9-0.1c0.1-1.2,0.3-2.5,0.4-3.7c0.3-0.2,0.5-0.4,0.8-0.5
				c0.5,0,0.9,0.1,1.4,0.2c0.2,0.2,0.4,0.5,0.6,0.7c-0.2,1.2-0.4,2.4-0.6,3.6C12,14.1,11.7,14.1,11.4,14z"/>
			<path d="M14.7,14.5c-0.4-0.1-0.8-0.1-1.2-0.2c-0.2-0.2-0.4-0.5-0.6-0.7c0-0.2,0.1-0.4,0.1-0.6c0.3,0,0.6,0.1,0.9,0.1
				c0,0.2-0.1,0.3-0.1,0.5c0.3,0,0.6,0.1,0.9,0.1c0.1-0.3,0.1-0.6,0.2-0.8c-0.5-0.4-1.1-0.8-1.6-1.2c0.1-0.4,0.1-0.8,0.2-1.2
				c0.3-0.2,0.5-0.3,0.8-0.5c0.4,0.1,0.9,0.1,1.3,0.2c0.2,0.2,0.4,0.5,0.6,0.7c0,0.2-0.1,0.3-0.1,0.5c-0.3-0.1-0.6-0.1-0.9-0.2
				c0-0.1,0.1-0.3,0.1-0.4c-0.3-0.1-0.6-0.1-0.9-0.1c0,0.2-0.1,0.4-0.1,0.7c0.5,0.4,1.1,0.8,1.6,1.2c-0.1,0.4-0.2,0.9-0.3,1.3
				C15.3,14.2,15,14.3,14.7,14.5z"/>
			<path d="M17.8,15.1c-0.3-0.1-0.7-0.1-1-0.2c-0.2-0.2-0.3-0.5-0.5-0.7c0.1-0.3,0.1-0.6,0.2-0.9c0.1-0.1,0.3-0.2,0.4-0.3
				c-0.2,0-0.4-0.1-0.6-0.1c0-0.2,0.1-0.4,0.2-0.7c0.4,0.1,0.8,0.1,1.1,0.2c-0.2,0.6-0.3,1.2-0.4,1.8c0.2,0,0.4,0.1,0.6,0.1
				c0.2-0.9,0.5-1.8,0.7-2.8c-0.3-0.1-0.6-0.1-0.9-0.2c0,0.1-0.1,0.3-0.1,0.4c-0.3-0.1-0.6-0.1-0.9-0.2c0-0.2,0.1-0.3,0.1-0.5
				c0.3-0.2,0.6-0.3,0.8-0.4c0.4,0.1,0.9,0.2,1.3,0.3c0.2,0.2,0.3,0.5,0.5,0.7c-0.3,1-0.5,1.9-0.8,2.9
				C18.3,14.8,18.1,14.9,17.8,15.1z"/>
			<path d="M20.8,15.8c-0.4-0.1-0.8-0.2-1.2-0.3c-0.2-0.2-0.3-0.5-0.5-0.7c0.3-1.2,0.7-2.3,1-3.5c0.3,0.1,0.6,0.2,0.9,0.2
				c-0.4,1.1-0.7,2.2-1,3.3c0.3,0.1,0.5,0.1,0.8,0.2c0.3-1.1,0.7-2.2,1.1-3.3c0.3,0.1,0.6,0.2,0.9,0.3c-0.4,1.1-0.8,2.2-1.1,3.4
				C21.3,15.5,21.1,15.6,20.8,15.8z"/>
			<path d="M22.5,16.3c-0.1-0.2-0.2-0.4-0.3-0.6c0.4-1.2,0.8-2.3,1.2-3.5c0.3,0.1,0.6,0.2,0.9,0.3c-0.4,1.1-0.8,2.2-1.2,3.3
				c0.2,0,0.3,0.1,0.4,0.1c-0.1,0.2-0.2,0.4-0.2,0.6C23,16.4,22.8,16.3,22.5,16.3z M23.9,16.7c-0.1-0.2-0.2-0.4-0.3-0.6
				c0.4-1.1,0.9-2.3,1.3-3.4c0.3,0.1,0.6,0.2,0.8,0.3c-0.4,1.1-0.9,2.1-1.3,3.2c0.1,0.1,0.3,0.1,0.4,0.2c-0.1,0.2-0.2,0.4-0.2,0.6
				C24.5,16.9,24.2,16.8,23.9,16.7z"/>
			<path d="M26.7,17.7c0.2-0.6,0.5-1.1,0.7-1.7c-0.3-0.1-0.6-0.2-0.8-0.3c-0.2,0.4-0.3,0.7-0.4,1.1c0.1,0,0.2,0.1,0.3,0.1
				c-0.1,0.2-0.2,0.4-0.3,0.6c-0.2-0.1-0.4-0.2-0.6-0.2c-0.1-0.2-0.2-0.4-0.3-0.6c0.2-0.5,0.4-0.9,0.6-1.4c0.2-0.1,0.5-0.2,0.7-0.3
				c0.4,0.1,0.8,0.3,1.1,0.4c0.1-0.3,0.3-0.6,0.4-0.8c-0.3-0.1-0.6-0.2-0.9-0.3c-0.1,0.1-0.1,0.3-0.2,0.4c-0.3-0.1-0.5-0.2-0.8-0.3
				c0.1-0.2,0.1-0.3,0.2-0.5c0.3-0.1,0.6-0.2,0.9-0.3c0.4,0.2,0.8,0.3,1.2,0.5c0.1,0.3,0.2,0.5,0.4,0.8c-0.5,1-1,2.1-1.5,3.2
				C27.2,17.9,27,17.8,26.7,17.7z"/>
			<path d="M28.7,12.6c0.1-0.1,0.1-0.2,0.2-0.3c-0.1,0-0.2-0.1-0.4-0.1c0.1-0.2,0.2-0.3,0.2-0.5c0.3,0.1,0.5,0.2,0.8,0.3
				c0.1,0.1,0.1,0.2,0.2,0.3c0,0.1-0.1,0.1-0.1,0.2c0.2,0.1,0.5,0.2,0.7,0.3c-0.1,0.1-0.1,0.3-0.2,0.4C29.7,13,29.2,12.8,28.7,12.6z
				"/>
			<path d="M29.7,18.9c-0.4-0.2-0.7-0.3-1.1-0.5c-0.1-0.3-0.2-0.5-0.3-0.8c0.1-0.2,0.2-0.3,0.2-0.5c0.3,0.1,0.5,0.2,0.8,0.3
				c-0.1,0.1-0.1,0.3-0.2,0.4c0.2,0.1,0.5,0.2,0.7,0.3c0.4-0.8,0.8-1.6,1.3-2.4c-0.3-0.1-0.5-0.2-0.8-0.4c-0.1,0.1-0.1,0.3-0.2,0.4
				c-0.3-0.1-0.5-0.2-0.8-0.3c0.1-0.2,0.2-0.3,0.2-0.5c0.3-0.1,0.6-0.2,0.9-0.2c0.4,0.2,0.8,0.3,1.2,0.5c0.1,0.3,0.2,0.5,0.3,0.8
				c-0.5,0.8-0.9,1.7-1.4,2.5C30.2,18.7,29.9,18.8,29.7,18.9z"/>
		</g>
	</g>
</g>
</svg>
