<!-- Generator: Adobe Illustrator 18.0.0, SVG Export Plug-In  -->
<svg version="1.1"
	 xmlns="http://www.w3.org/2000/svg" xmlns:xlink="http://www.w3.org/1999/xlink" xmlns:a="http://ns.adobe.com/AdobeSVGViewerExtensions/3.0/"
	 x="0px" y="0px" width="32px" height="32px" viewBox="0 0 32 32" enable-background="new 0 0 32 32" xml:space="preserve">
<defs>
</defs>
<g>
	<g>
		<g>
			<g>
				<g>
					
						<radialGradient id="SVGID_1_" cx="57.4482" cy="6.0716" r="13.7003" gradientTransform="matrix(1.1667 0 0 1.1667 -51.0406 8.9003)" gradientUnits="userSpaceOnUse">
						<stop  offset="0.25" style="stop-color:#D9A428"/>
						<stop  offset="0.631" style="stop-color:#DBA628"/>
						<stop  offset="0.7683" style="stop-color:#E1AA29"/>
						<stop  offset="0.8657" style="stop-color:#EBB32B"/>
						<stop  offset="0.9239" style="stop-color:#F6BB2F"/>
						<stop  offset="1" style="stop-color:#FAD57C"/>
					</radialGradient>
					<circle fill="url(#SVGID_1_)" cx="16" cy="16" r="16"/>
					<linearGradient id="SVGID_2_" gradientUnits="userSpaceOnUse" x1="15.9842" y1="25.6454" x2="15.9842" y2="0.5665">
						<stop  offset="0" style="stop-color:#D9A428"/>
						<stop  offset="1" style="stop-color:#FADF7E"/>
					</linearGradient>
					<ellipse fill="url(#SVGID_2_)" cx="16" cy="13.1" rx="13.6" ry="12.5"/>
					<linearGradient id="SVGID_3_" gradientUnits="userSpaceOnUse" x1="15.9842" y1="14.4443" x2="15.9842" y2="1.5148">
						<stop  offset="5.076140e-03" style="stop-color:#EAC12B"/>
						<stop  offset="1" style="stop-color:#FAF7ED"/>
					</linearGradient>
					<path fill="url(#SVGID_3_)" d="M26.8,9.7c0-4.5-4.8-8.2-10.8-8.2c-6,0-10.8,3.7-10.8,8.2c0,4.5,4.8,4.8,10.8,4.8
						C21.9,14.4,26.8,14.2,26.8,9.7z"/>
				</g>
			</g>
		</g>
	</g>
	<g>
		<g>
			<path fill="#FFFFFF" d="M4.4,20.1c0.3-1.6,0.6-3.2,0.9-4.8c-0.4-0.1-0.7-0.2-1.1-0.2c-0.3,1.6-0.7,3.2-1,4.8
				c-0.4-0.1-0.8-0.2-1.2-0.3c0.3-1.1,0.5-2.3,0.8-3.4c0.3-0.2,0.6-0.4,0.8-0.6c-0.2-0.1-0.4-0.1-0.7-0.2c0.1-0.3,0.1-0.5,0.2-0.8
				c0.3-0.2,0.7-0.4,1-0.6c0.5,0.1,1.1,0.2,1.6,0.3c0.2,0.3,0.5,0.7,0.7,1C6.2,17,6,18.7,5.7,20.3C5.3,20.2,4.9,20.2,4.4,20.1z"/>
			<path fill="#FFFFFF" d="M7.6,20.6c0.2-1.6,0.5-3.2,0.7-4.8c-0.4-0.1-0.8-0.1-1.2-0.2c0.1-0.3,0.1-0.6,0.2-0.9
				c0.5,0.1,1,0.2,1.5,0.2c0.3,0.3,0.5,0.6,0.8,0.8c-0.2,1.7-0.4,3.3-0.6,5C8.4,20.7,8,20.6,7.6,20.6z"/>
			<path fill="#FFFFFF" d="M12.4,21c-0.6,0-1.2-0.1-1.8-0.1c-0.3-0.3-0.6-0.6-0.9-0.9c0-0.3,0.1-0.5,0.1-0.8c0.4,0,0.8,0.1,1.2,0.1
				c0,0.2,0,0.4-0.1,0.7c0.4,0,0.8,0.1,1.2,0.1c0-0.4,0.1-0.7,0.1-1.1c-0.8-0.4-1.5-0.9-2.2-1.4c0.1-0.5,0.1-1.1,0.2-1.6
				c0.3-0.2,0.6-0.5,0.9-0.7c0.5,0.1,1.1,0.1,1.6,0.1c0.3,0.3,0.5,0.6,0.8,0.9c0,0.2,0,0.5,0,0.7c-0.4,0-0.8,0-1.1-0.1
				c0-0.2,0-0.4,0-0.6c-0.4,0-0.7-0.1-1.1-0.1c0,0.3-0.1,0.6-0.1,0.9c0.7,0.5,1.5,0.9,2.2,1.4c0,0.6-0.1,1.2-0.1,1.8
				C13.1,20.5,12.7,20.8,12.4,21z"/>
			<path fill="#FFFFFF" d="M16.7,21.1c0-1.6,0-3.1,0-4.7c-0.4,0-0.8,0-1.2,0c0,0.4,0,0.9,0,1.3c0.2,0,0.5,0,0.7,0c0,0.3,0,0.7,0,1
				c-0.2,0-0.5,0-0.7,0c0,0.8,0,1.6,0,2.4c-0.4,0-0.8,0-1.2,0c0.1-1.6,0.1-3.2,0.2-4.8c0.3-0.3,0.6-0.5,0.9-0.8c0.3,0,0.7,0,1,0
				c0.1,0.2,0.3,0.3,0.4,0.5c0-0.3,0-0.5,0-0.8c0.4,0,0.7,0,1.1,0c0.1,1.9,0.1,3.9,0.2,5.8C17.5,21,17.1,21.1,16.7,21.1z"/>
			<path fill="#FFFFFF" d="M17.5,15.1c-1,0-2,0-3,0c0-0.1,0-0.2,0-0.4c0.1-0.1,0.3-0.3,0.4-0.4c0.4,0,0.9,0,1.3,0
				c0.1,0,0.2,0.1,0.3,0.1c0-0.1,0-0.2,0-0.3c0.1-0.1,0.2-0.2,0.3-0.3c0.2,0,0.4,0,0.7,0c0.1,0.1,0.2,0.2,0.3,0.3c0,0.2,0,0.4,0,0.6
				C17.7,14.9,17.6,15,17.5,15.1z"/>
			<path fill="#FFFFFF" d="M21.2,20.8c-0.1-1.5-0.3-3.1-0.4-4.6c-0.4,0-0.7,0.1-1.1,0.1c0.1,1.5,0.2,3.1,0.3,4.6
				c-0.4,0-0.8,0.1-1.2,0.1c0-1.1-0.1-2.2-0.1-3.3c0.2-0.2,0.4-0.5,0.6-0.7c-0.2,0-0.4,0-0.7,0c0-0.2,0-0.5,0-0.7
				c0.3-0.3,0.6-0.6,0.8-0.8c0.5,0,1.1-0.1,1.6-0.1c0.3,0.2,0.6,0.5,0.9,0.7c0.2,1.6,0.3,3.1,0.5,4.7C22,20.7,21.6,20.8,21.2,20.8z"
				/>
			<path fill="#FFFFFF" d="M25.9,20.1c-0.6,0.1-1.2,0.2-1.8,0.3c-0.3-0.2-0.7-0.4-1-0.6c-0.2-1.5-0.4-3.1-0.5-4.6
				c0.4,0,0.7-0.1,1.1-0.1c0.2,1.5,0.4,3,0.6,4.5c0.4-0.1,0.8-0.1,1.2-0.2c-0.1-0.5-0.2-1-0.2-1.5c-0.2,0-0.3,0.1-0.5,0.1
				c-0.2-0.1-0.4-0.3-0.6-0.5c0.2-0.2,0.3-0.4,0.5-0.6c0.2,0,0.3-0.1,0.5-0.1c-0.1-0.6-0.2-1.3-0.3-1.9c0.4-0.1,0.7-0.1,1.1-0.2
				c0.3,1.5,0.6,3,0.8,4.5C26.4,19.5,26.2,19.8,25.9,20.1z"/>
			<path fill="#FFFFFF" d="M28.8,19.5c-0.3-1.5-0.6-2.9-1-4.4c-0.4,0.1-0.8,0.2-1.2,0.2c-0.1-0.3-0.1-0.6-0.2-0.9
				c0.5-0.1,1-0.2,1.4-0.3c0.3,0.2,0.7,0.3,1,0.5c0.4,1.5,0.7,3,1.1,4.5C29.6,19.4,29.2,19.5,28.8,19.5z"/>
		</g>
	</g>
</g>
</svg>
