<!-- Generator: Adobe Illustrator 18.0.0, SVG Export Plug-In  -->
<svg version="1.1"
	 xmlns="http://www.w3.org/2000/svg" xmlns:xlink="http://www.w3.org/1999/xlink" xmlns:a="http://ns.adobe.com/AdobeSVGViewerExtensions/3.0/"
	 x="0px" y="0px" width="31.9px" height="31.9px" viewBox="0 0 31.9 31.9" enable-background="new 0 0 31.9 31.9"
	 xml:space="preserve">
<defs>
</defs>
<g>
	<g>
		<g>
			
				<radialGradient id="SVGID_1_" cx="46.5827" cy="0.4319" r="13.6869" gradientTransform="matrix(1.1667 0 0 1.1667 -38.3796 15.4647)" gradientUnits="userSpaceOnUse">
				<stop  offset="0.25" style="stop-color:#3F3C39"/>
				<stop  offset="0.6488" style="stop-color:#3D3A37"/>
				<stop  offset="0.7923" style="stop-color:#302F2D"/>
				<stop  offset="0.8943" style="stop-color:#141414"/>
				<stop  offset="0.9239" style="stop-color:#000000"/>
				<stop  offset="1" style="stop-color:#6B6964"/>
			</radialGradient>
			<circle fill="url(#SVGID_1_)" cx="16" cy="16" r="16"/>
			<linearGradient id="SVGID_2_" gradientUnits="userSpaceOnUse" x1="15.9685" y1="25.6208" x2="15.9685" y2="0.5665">
				<stop  offset="0" style="stop-color:#3F3C39"/>
				<stop  offset="1" style="stop-color:#928F88"/>
			</linearGradient>
			<ellipse fill="url(#SVGID_2_)" cx="16" cy="13.1" rx="13.6" ry="12.5"/>
			<linearGradient id="SVGID_3_" gradientUnits="userSpaceOnUse" x1="15.9683" y1="14.4305" x2="15.9683" y2="1.5135">
				<stop  offset="5.076140e-03" style="stop-color:#6B6964"/>
				<stop  offset="1" style="stop-color:#F2EEE7"/>
			</linearGradient>
			<path fill="url(#SVGID_3_)" d="M26.7,9.7c0-4.5-4.8-8.2-10.8-8.2c-6,0-10.8,3.7-10.8,8.2c0,4.5,4.8,4.8,10.8,4.8
				C21.9,14.4,26.7,14.2,26.7,9.7z"/>
		</g>
		<g>
			<defs>
				<circle id="SVGID_4_" cx="19.7" cy="12.3" r="6.9"/>
			</defs>
			<clipPath id="SVGID_5_">
				<use xlink:href="#SVGID_4_"  overflow="visible"/>
			</clipPath>
			<g clip-path="url(#SVGID_5_)">
				
					<radialGradient id="SVGID_6_" cx="46.5827" cy="0.4319" r="13.6869" gradientTransform="matrix(1.1667 0 0 1.1667 -38.3796 15.4647)" gradientUnits="userSpaceOnUse">
					<stop  offset="0.25" style="stop-color:#E5DEDB"/>
					<stop  offset="0.6386" style="stop-color:#E3DCD9"/>
					<stop  offset="0.7786" style="stop-color:#DDD6D3"/>
					<stop  offset="0.878" style="stop-color:#D2CBC9"/>
					<stop  offset="0.9239" style="stop-color:#CAC4C2"/>
					<stop  offset="1" style="stop-color:#E5E1DC"/>
				</radialGradient>
				<circle fill="url(#SVGID_6_)" cx="16" cy="16" r="16"/>
				<linearGradient id="SVGID_7_" gradientUnits="userSpaceOnUse" x1="15.9685" y1="25.6208" x2="15.9685" y2="0.5665">
					<stop  offset="0" style="stop-color:#E5DEDB"/>
					<stop  offset="1" style="stop-color:#E5E1DC"/>
				</linearGradient>
				<ellipse fill="url(#SVGID_7_)" cx="16" cy="13.1" rx="13.6" ry="12.5"/>
				<linearGradient id="SVGID_8_" gradientUnits="userSpaceOnUse" x1="15.9683" y1="14.4305" x2="15.9683" y2="1.5135">
					<stop  offset="5.076140e-03" style="stop-color:#E5E1DC"/>
					<stop  offset="1" style="stop-color:#FFFAF6"/>
				</linearGradient>
				<path fill="url(#SVGID_8_)" d="M26.7,9.7c0-4.5-4.8-8.2-10.8-8.2c-6,0-10.8,3.7-10.8,8.2c0,4.5,4.8,4.8,10.8,4.8
					C21.9,14.4,26.7,14.2,26.7,9.7z"/>
			</g>
		</g>
	</g>
	<text transform="matrix(0.8798 0.4753 -0.4753 0.8798 13.6121 13.5464)" font-family="'PSLSamson'" font-size="18.1407">รถ</text>
</g>
</svg>
