<!-- Generator: Adobe Illustrator 18.0.0, SVG Export Plug-In  -->
<svg version="1.1"
	 xmlns="http://www.w3.org/2000/svg" xmlns:xlink="http://www.w3.org/1999/xlink" xmlns:a="http://ns.adobe.com/AdobeSVGViewerExtensions/3.0/"
	 x="0px" y="0px" width="31.9px" height="31.9px" viewBox="0 0 31.9 31.9" enable-background="new 0 0 31.9 31.9"
	 xml:space="preserve">
<defs>
</defs>
<g>
	<g>
		<g>
			<g>
				<g>
					
						<radialGradient id="SVGID_1_" cx="62.9289" cy="-5.3813" r="13.664" gradientTransform="matrix(1.1667 0 0 1.1667 -57.4775 22.2203)" gradientUnits="userSpaceOnUse">
						<stop  offset="0.25" style="stop-color:#174D26"/>
						<stop  offset="0.5795" style="stop-color:#174E26"/>
						<stop  offset="0.6981" style="stop-color:#195229"/>
						<stop  offset="0.7827" style="stop-color:#1B592C"/>
						<stop  offset="0.8511" style="stop-color:#1F6232"/>
						<stop  offset="0.909" style="stop-color:#226F38"/>
						<stop  offset="0.9239" style="stop-color:#23733A"/>
						<stop  offset="1" style="stop-color:#32804D"/>
					</radialGradient>
					<circle fill="url(#SVGID_1_)" cx="15.9" cy="15.9" r="15.9"/>
					<linearGradient id="SVGID_2_" gradientUnits="userSpaceOnUse" x1="15.9416" y1="25.5779" x2="15.9416" y2="0.5656">
						<stop  offset="0" style="stop-color:#174D26"/>
						<stop  offset="1" style="stop-color:#4DA657"/>
					</linearGradient>
					<ellipse fill="url(#SVGID_2_)" cx="15.9" cy="13.1" rx="13.6" ry="12.5"/>
					<linearGradient id="SVGID_3_" gradientUnits="userSpaceOnUse" x1="15.9417" y1="14.4063" x2="15.9417" y2="1.511">
						<stop  offset="5.076140e-03" style="stop-color:#23733A"/>
						<stop  offset="1" style="stop-color:#DDEDE1"/>
					</linearGradient>
					<path fill="url(#SVGID_3_)" d="M26.7,9.7c0-4.5-4.8-8.1-10.8-8.1C10,1.5,5.2,5.2,5.2,9.7c0,4.5,4.8,4.8,10.8,4.8
						C21.9,14.4,26.7,14.2,26.7,9.7z"/>
				</g>
			</g>
		</g>
	</g>
	<g>
		<g>
			<path fill="#FFFFFF" d="M9.9,11.3c0,0.2-0.1,0.3-0.2,0.4c-0.1,0.1-0.2,0.2-0.4,0.2c-0.1,0-0.2,0-0.3,0C9,11.9,8.9,11.8,9,11.6
				c0.2-1,0.4-2,0.7-3.1c0-0.2,0.1-0.3,0-0.5c0-0.1-0.1-0.2-0.1-0.3C9.5,7.7,9.4,7.6,9.3,7.6c-0.1,0-0.2,0-0.4,0.1
				C8.7,7.7,8.5,7.9,8.3,8C8.2,8.2,8,8.4,7.9,8.6c0,0.1,0,0.2,0.1,0.2c0,0,0.1,0.1,0.1,0.1c0,0,0,0.1,0,0.1c0,0-0.1,0.2-0.3,0.4
				C7.8,9.7,7.7,9.9,7.6,10c-0.2,0.8-0.3,1.6-0.5,2.4c0,0.2-0.1,0.3-0.2,0.5c-0.1,0.1-0.2,0.2-0.3,0.3c-0.1,0.1-0.2,0.1-0.3,0.1
				c-0.1,0-0.1-0.1,0-0.3c0.1-0.8,0.3-1.7,0.4-2.5c0-0.1,0.1-0.3,0.2-0.5c0.1-0.1,0.1-0.2,0.2-0.3C7.2,9.6,7.1,9.5,7,9.5
				C7,9.4,7,9.3,7,9.2C7.1,9,7.2,8.7,7.3,8.4c0.1-0.3,0.3-0.5,0.5-0.7C8,7.4,8.2,7.2,8.4,7.1c0.2-0.2,0.4-0.3,0.7-0.4
				c0.6-0.2,1-0.2,1.3,0.1c0.3,0.3,0.4,0.8,0.2,1.5C10.4,9.3,10.1,10.3,9.9,11.3z"/>
			<path fill="#FFFFFF" d="M13.2,10.8c0,0.2-0.1,0.3-0.2,0.4c-0.1,0.1-0.2,0.1-0.4,0.1c-0.2,0-0.3,0-0.3-0.1
				c-0.1-0.1-0.1-0.2-0.1-0.4c0.2-1,0.5-2.1,0.8-3.1c0-0.1,0-0.2,0-0.3c0-0.1,0-0.2-0.1-0.3c0-0.1-0.1-0.1-0.2-0.2
				c-0.1,0-0.2,0-0.3,0c-0.1,0-0.2,0-0.2,0c-0.1,0-0.1,0.1-0.2,0.1c-0.1,0-0.1,0.1-0.2,0.1c-0.1,0-0.1,0-0.1,0c-0.1,0-0.1,0-0.2,0
				c-0.1,0-0.1-0.1-0.1-0.1c0,0,0-0.1-0.1-0.2c0-0.1,0-0.1,0-0.2c0-0.2,0.2-0.4,0.4-0.5c0.1-0.1,0.2-0.1,0.4-0.2
				C12.3,6,12.5,6,12.7,5.9c0.3,0,0.5,0,0.7,0.1c0.2,0.1,0.4,0.2,0.5,0.4C14,6.6,14.1,6.8,14.1,7c0,0.2,0,0.5-0.1,0.7
				C13.8,8.7,13.5,9.8,13.2,10.8z"/>
			<path fill="#FFFFFF" d="M18.3,10.2c-0.1,0.3-0.2,0.5-0.3,0.6c-0.2,0.2-0.4,0.3-0.6,0.4c-0.2,0.1-0.5,0.2-0.8,0.2
				c-0.3,0-0.6,0-0.9,0c-0.3,0-0.5-0.1-0.8-0.2c-0.2-0.1-0.4-0.2-0.6-0.3c-0.3-0.3-0.4-0.6-0.3-1c0-0.2,0.1-0.3,0.3-0.4
				c0.1-0.1,0.3-0.1,0.4-0.1c0.3,0,0.5,0.2,0.4,0.5c0,0.1,0,0.1,0,0.2c0,0.1,0.1,0.1,0.2,0.2c0.1,0.1,0.2,0.1,0.3,0.2
				c0.1,0,0.2,0.1,0.4,0.1c0.1,0,0.3,0,0.4,0c0.1,0,0.3,0,0.4-0.1c0.1,0,0.2-0.1,0.3-0.2c0.1-0.1,0.1-0.2,0.2-0.3
				c0.1-0.2,0-0.4-0.3-0.6c-0.1-0.1-0.2-0.1-0.3-0.2c-0.1-0.1-0.2-0.1-0.4-0.2c-0.7-0.2-1.1-0.4-1.4-0.7c-0.2-0.2-0.2-0.6-0.1-1
				c0.1-0.4,0.4-0.7,0.8-1C16,6.2,16.5,6.1,17,6.2c0.5,0.1,0.8,0.3,1.1,0.5c0.3,0.2,0.5,0.5,0.6,0.9c0,0,0,0,0,0.1c0,0,0,0.1,0,0.1
				c0,0,0,0,0,0.1c0,0,0,0,0,0c0,0.1-0.1,0.1-0.1,0.2c-0.1,0-0.1,0.1-0.2,0.1c-0.1,0-0.1,0-0.2,0c-0.1,0-0.1,0-0.2,0
				c-0.2-0.1-0.3-0.2-0.4-0.4c0-0.1-0.1-0.3-0.3-0.4c-0.2-0.1-0.3-0.2-0.5-0.2c-0.1,0-0.2,0-0.3,0c-0.1,0-0.2,0-0.3,0.1
				c-0.1,0-0.2,0.1-0.2,0.1c-0.1,0.1-0.1,0.1-0.1,0.2c-0.1,0.2,0,0.3,0.2,0.5c0.1,0,0.2,0.1,0.3,0.2c0.1,0.1,0.3,0.1,0.5,0.2
				c0.4,0.1,0.8,0.3,1,0.6C18.3,9.3,18.4,9.8,18.3,10.2z"/>
			<path fill="#FFFFFF" d="M19.7,4.6c-0.2-0.1-0.3-0.1-0.5-0.2c0,0.1,0.1,0.2,0,0.3c0,0.1,0,0.1-0.1,0.1c0,0-0.1,0.1-0.2,0.1
				c-0.1,0-0.1,0-0.2,0c-0.1,0-0.1,0-0.2,0c-0.1,0-0.2-0.1-0.3-0.1c-0.1-0.1-0.1-0.1-0.2-0.2c0-0.1-0.1-0.2-0.1-0.2
				c0-0.1,0-0.2,0-0.3c0-0.1,0.1-0.2,0.2-0.3c0.1-0.1,0.2-0.1,0.3-0.2c0.1,0,0.2-0.1,0.3,0c0.1,0,0.2,0,0.4,0.1
				c0.2,0.1,0.5,0.2,0.7,0.3c0.3,0.1,0.4,0.3,0.3,0.6c0,0.1-0.1,0.2-0.2,0.2C20,4.6,19.9,4.6,19.7,4.6z"/>
			<path fill="#FFFFFF" d="M22.7,13.5c0,0.1-0.1,0.2-0.2,0.2c-0.1,0-0.2,0-0.4-0.1c-0.1-0.1-0.2-0.2-0.3-0.3
				c-0.1-0.1-0.1-0.3-0.1-0.4c0.3-0.9,0.5-1.8,0.8-2.7c0.1-0.3,0-0.6-0.1-0.8c-0.1,0-0.3,0-0.4,0.1c-0.1,0-0.1,0-0.2,0
				c-0.1,0-0.2,0-0.2,0c0,0-0.1,0-0.1-0.1c0,0-0.1-0.1-0.1-0.1c0,0-0.1-0.1-0.1-0.1c0,0,0-0.1-0.1-0.1c-0.1-0.1-0.2-0.3-0.3-0.4
				c-0.2,0.1-0.4,0.2-0.5,0.5c-0.2,0.8-0.4,1.5-0.6,2.3c0.1,0,0.2,0.1,0.3,0.1c0.2,0.1,0.3,0.2,0.4,0.3c0.1,0.1,0.1,0.3,0,0.4
				c0,0.1-0.1,0.2-0.2,0.3c-0.1,0-0.3,0-0.4,0c-0.2-0.1-0.5-0.2-0.7-0.3c-0.5-0.2-0.6-0.4-0.5-0.8c0.3-0.9,0.5-1.9,0.8-2.8
				c0.1-0.5,0.4-0.8,0.7-0.9c0.4-0.1,0.7-0.1,1,0c0.1,0,0.1,0.1,0.2,0.1c0,0,0.1,0.1,0.1,0.1c0,0,0.1,0.1,0.1,0.2
				c0,0.1,0.1,0.1,0.1,0.2c0,0,0.1,0.1,0.1,0.1c0,0,0.1,0,0.1,0c0.3-0.1,0.5,0,0.7,0.1c0.3,0.2,0.6,0.5,0.7,0.9
				c0.2,0.5,0.3,0.9,0.1,1.4C23.2,11.7,23,12.6,22.7,13.5z"/>
			<path fill="#FFFFFF" d="M22.2,15.2c0,0.1-0.1,0.2-0.2,0.3c-0.1,0.1-0.2,0.1-0.3,0.1c-0.1,0-0.3,0-0.4-0.1c-0.2,0-0.3-0.1-0.5-0.2
				c-0.2-0.1-0.3-0.2-0.5-0.3c-0.1-0.1-0.3-0.2-0.4-0.3c-0.1-0.1-0.2-0.2-0.2-0.4c0-0.1,0-0.3,0-0.4c0-0.1,0-0.1,0-0.2
				c0,0,0,0-0.1,0c-0.2-0.1-0.3-0.2-0.4-0.3c-0.1-0.1-0.1-0.2-0.1-0.4c0-0.1,0.1-0.2,0.2-0.3c0.1-0.1,0.3,0,0.4,0
				c0.2,0.1,0.4,0.2,0.6,0.3c0.2,0.1,0.3,0.2,0.4,0.3c0.1,0.1,0.1,0.3,0,0.4c0,0.1-0.1,0.3-0.1,0.4c0,0.1,0,0.2,0.1,0.3
				c0.1,0.1,0.2,0,0.2-0.1c0-0.2,0.1-0.3,0.1-0.5c0-0.1,0.1-0.2,0.2-0.2c0.1,0,0.3,0,0.4,0.1c0.1,0.1,0.2,0.2,0.3,0.3
				c0.1,0.1,0.1,0.3,0.1,0.4C22.4,14.8,22.3,15,22.2,15.2z"/>
			<path fill="#FFFFFF" d="M27.6,17.7c0,0.1-0.1,0.1-0.1,0.2c-0.1,0-0.1,0-0.2,0c-0.1,0-0.2-0.1-0.3-0.1c-0.1-0.1-0.2-0.2-0.3-0.3
				c-0.3-0.3-0.5-0.7-0.6-1c-0.4-0.1-0.8-0.3-1.2-0.7c-0.5-0.4-0.8-0.8-1.1-1.3c-0.3-0.6-0.3-1.1-0.1-1.7c0.2-0.8,0.4-1.6,0.7-2.4
				c0-0.1,0.1-0.2,0.2-0.2c0.1,0,0.2,0.1,0.4,0.2c0.1,0.1,0.2,0.2,0.3,0.4c0.1,0.2,0.1,0.3,0.1,0.4c-0.2,0.8-0.4,1.5-0.6,2.3
				c-0.1,0.3-0.1,0.7,0,0.9c0.1,0.3,0.3,0.5,0.6,0.8c0.3,0.2,0.5,0.4,0.7,0.4c0.3,0,0.4-0.1,0.5-0.3c0.2-0.8,0.4-1.5,0.6-2.3
				c0-0.1,0.1-0.2,0.2-0.1c0.1,0,0.2,0.1,0.3,0.3c0.1,0.1,0.2,0.3,0.3,0.5c0.1,0.2,0.1,0.3,0.1,0.4c-0.2,0.9-0.5,1.8-0.7,2.7
				c0.1,0.2,0.2,0.4,0.2,0.6C27.6,17.4,27.7,17.6,27.6,17.7z"/>
		</g>
	</g>
</g>
</svg>
