<!-- Generator: Adobe Illustrator 18.0.0, SVG Export Plug-In  -->
<svg version="1.1"
	 xmlns="http://www.w3.org/2000/svg" xmlns:xlink="http://www.w3.org/1999/xlink" xmlns:a="http://ns.adobe.com/AdobeSVGViewerExtensions/3.0/"
	 x="0px" y="0px" width="32.3px" height="32.3px" viewBox="0 0 32.3 32.3" enable-background="new 0 0 32.3 32.3"
	 xml:space="preserve">
<defs>
</defs>
<g>
	<g>
		
			<radialGradient id="SVGID_1_" cx="93.3003" cy="220.2436" r="13.831" gradientTransform="matrix(0.8913 0.7529 -0.7529 0.8913 98.791 -250.4055)" gradientUnits="userSpaceOnUse">
			<stop  offset="0.25" style="stop-color:#3F3C39"/>
			<stop  offset="0.6488" style="stop-color:#3D3A37"/>
			<stop  offset="0.7923" style="stop-color:#302F2D"/>
			<stop  offset="0.8943" style="stop-color:#141414"/>
			<stop  offset="0.9239" style="stop-color:#000000"/>
			<stop  offset="1" style="stop-color:#6B6964"/>
		</radialGradient>
		<circle fill="url(#SVGID_1_)" cx="16.1" cy="16.1" r="16.1"/>
		
			<linearGradient id="SVGID_2_" gradientUnits="userSpaceOnUse" x1="45.2731" y1="275.5868" x2="45.2731" y2="250.2687" gradientTransform="matrix(0.7639 0.6453 -0.6453 0.7639 153.0895 -216.1578)">
			<stop  offset="0" style="stop-color:#3F3C39"/>
			<stop  offset="1" style="stop-color:#928F88"/>
		</linearGradient>
		<path fill="url(#SVGID_2_)" d="M28.5,22.8C33,17.4,32,9.1,26.2,4.2C20.4-0.6,12-0.3,7.5,5.1C3,10.4,4.1,18.7,9.8,23.6
			C15.6,28.5,24,28.1,28.5,22.8z"/>
		
			<linearGradient id="SVGID_3_" gradientUnits="userSpaceOnUse" x1="45.273" y1="264.2787" x2="45.273" y2="251.2257" gradientTransform="matrix(0.7639 0.6453 -0.6453 0.7639 153.0895 -216.1578)">
			<stop  offset="5.076140e-03" style="stop-color:#6B6964"/>
			<stop  offset="1" style="stop-color:#F2EEE7"/>
		</linearGradient>
		<path fill="url(#SVGID_3_)" d="M28.6,18.3c2.9-3.5,1.6-9.4-3-13.3C21,1.1,14.9,0.8,11.9,4.2c-2.9,3.5,0.6,6.8,5.2,10.7
			C21.7,18.8,25.6,21.8,28.6,18.3z"/>
	</g>
	<g>
		<g>
			<path fill="#FFFFFF" d="M11.6,11.9c-0.7-0.1-1.4-0.3-2.1-0.4c-0.3-0.3-0.6-0.6-0.9-1C9,9.5,9.4,8.4,9.8,7.4
				c0.3-0.1,0.6-0.3,0.8-0.4c-0.3-0.1-0.7-0.1-1-0.2c0.1-0.3,0.3-0.7,0.4-1c0.2,0,0.4,0.1,0.6,0.1c0.1,0.1,0.2,0.3,0.3,0.4
				c0.2-0.1,0.4-0.2,0.5-0.3c0.2,0,0.4,0.1,0.6,0.1c-0.2,0.3-0.3,0.7-0.4,1c0.5,0.1,1,0.2,1.5,0.3c0.2-0.3,0.3-0.7,0.5-1
				c0.5,0.1,1,0.2,1.5,0.4c-0.2,0.3-0.3,0.6-0.4,0.9c-0.4,0.1-0.7,0.2-1.1,0.3c0.2,0.3,0.4,0.5,0.6,0.8c-0.4,0.8-0.8,1.7-1.1,2.6
				C12.5,11.6,12.1,11.7,11.6,11.9z M12.7,8.4c-0.5-0.1-1-0.2-1.5-0.3c-0.4,0.9-0.7,1.7-1,2.6c0.5,0.1,1,0.2,1.4,0.3
				C11.9,10.1,12.3,9.2,12.7,8.4z"/>
			<path fill="#FFFFFF" d="M10.6,5.4c0-0.1,0.1-0.2,0.1-0.3c0.3-0.1,0.5-0.2,0.8-0.3c0.9,0.2,1.7,0.4,2.6,0.6
				c0.1-0.1,0.1-0.3,0.2-0.4c0.5,0.1,1.1,0.3,1.6,0.4c-0.2,0.4-0.4,0.7-0.6,1.1C13.8,6.1,12.2,5.7,10.6,5.4z"/>
			<path fill="#FFFFFF" d="M16.7,13.2c-0.7-0.2-1.3-0.4-2-0.5c-0.2-0.3-0.5-0.7-0.7-1c0.1-0.2,0.2-0.5,0.3-0.7
				c0.5,0.1,1,0.2,1.4,0.4c-0.1,0.2-0.2,0.4-0.3,0.6c0.5,0.1,0.9,0.3,1.4,0.4c0.2-0.3,0.3-0.7,0.5-1c-0.7-0.6-1.5-1.3-2.3-1.9
				c0.2-0.5,0.5-1,0.7-1.5c0.5-0.1,1-0.3,1.6-0.4c0.7,0.2,1.5,0.4,2.2,0.7c0.2,0.4,0.5,0.7,0.7,1.1c-0.1,0.2-0.3,0.4-0.4,0.6
				c-0.5-0.2-1-0.3-1.4-0.5c0.1-0.2,0.2-0.3,0.3-0.5c-0.5-0.2-1-0.3-1.5-0.5c-0.1,0.3-0.3,0.5-0.4,0.8c0.8,0.6,1.5,1.3,2.2,2
				c-0.3,0.5-0.6,1.1-0.9,1.6C17.6,12.9,17.1,13,16.7,13.2z"/>
			<path fill="#FFFFFF" d="M16.3,6.7c0.1-0.1,0.1-0.2,0.2-0.3c0.3-0.1,0.5-0.1,0.8-0.2C18.2,6.5,19,6.7,19.8,7
				c0.1-0.1,0.2-0.2,0.2-0.4c0.5,0.2,1,0.4,1.5,0.5c-0.2,0.3-0.5,0.7-0.7,1C19.4,7.7,17.9,7.2,16.3,6.7z"/>
			<path fill="#FFFFFF" d="M21.3,14.7c0.4-0.7,0.9-1.4,1.4-2.1c-0.5-0.2-0.9-0.4-1.4-0.6c-0.3,0.4-0.6,0.9-0.8,1.3
				c0.2,0.1,0.4,0.1,0.6,0.2c-0.2,0.3-0.3,0.5-0.5,0.8c-0.4-0.1-0.8-0.3-1.1-0.4c-0.1-0.3-0.3-0.5-0.4-0.8c0.3-0.6,0.7-1.2,1-1.8
				c0.4-0.1,0.8-0.2,1.2-0.3c0.7,0.3,1.3,0.5,2,0.8c0.2-0.4,0.5-0.7,0.8-1.1c-0.5-0.2-1-0.4-1.5-0.6c-0.1,0.2-0.2,0.3-0.3,0.5
				c-0.5-0.2-0.9-0.4-1.4-0.5c0.1-0.2,0.3-0.4,0.4-0.6c0.5-0.1,1-0.2,1.6-0.3c0.4,0.2,0.9,0.3,1.3,0.5c0.1,0.2,0.2,0.4,0.3,0.6
				c0.2-0.2,0.3-0.4,0.5-0.6c0.5,0.2,0.9,0.4,1.4,0.6c-1.2,1.5-2.4,3.1-3.5,4.8C22.1,15.1,21.7,14.9,21.3,14.7z"/>
			<path fill="#FFFFFF" d="M26.4,8.8c-0.1,0.1-0.2,0.2-0.3,0.3c-0.4-0.2-0.9-0.4-1.3-0.6c0.1-0.1,0.2-0.3,0.3-0.4c0.4,0,0.8,0,1.2,0
				c0.4,0.2,0.9,0.4,1.3,0.6c-0.1,0.2-0.3,0.3-0.4,0.5C27,9.1,26.7,8.9,26.4,8.8z"/>
			<path fill="#FFFFFF" d="M8.6,24.9c-0.3-0.3-0.6-0.5-0.9-0.8c-0.4,0.2-0.8,0.4-1.2,0.6c-0.3-0.3-0.6-0.6-1-0.9
				c0.2-1.5,0.4-3,0.7-4.5c0.3-0.2,0.6-0.4,0.9-0.6c0.3,0,0.7,0.1,1,0.1C8.1,19.2,8,19.5,8,19.8c-0.2,0-0.4,0-0.6-0.1
				c-0.3,1.3-0.5,2.6-0.7,3.9c0.2,0,0.4,0,0.5,0c0.2-1.1,0.4-2.2,0.6-3.3c0.3,0,0.7,0.1,1,0.1c-0.2,1.1-0.5,2.1-0.7,3.2
				c0.2,0,0.4,0,0.5,0.1c0.4-2,0.9-4,1.4-5.9c0.4,0.1,0.8,0.1,1.2,0.2c-0.6,2-1.2,4-1.6,6.1C9.4,24.4,9,24.6,8.6,24.9z"/>
			<path fill="#FFFFFF" d="M12.7,25.5c-0.5-0.1-1-0.2-1.6-0.3c-0.2-0.3-0.4-0.6-0.7-1c0.1-0.3,0.1-0.5,0.2-0.8
				c0.4,0.1,0.8,0.1,1.1,0.2c-0.1,0.2-0.1,0.4-0.2,0.7c0.4,0.1,0.7,0.1,1.1,0.2c0.1-0.4,0.2-0.7,0.3-1.1c-0.6-0.6-1.3-1.1-1.9-1.6
				c0.1-0.5,0.3-1.1,0.5-1.6c0.4-0.2,0.8-0.4,1.2-0.6c0.6,0.1,1.2,0.3,1.8,0.4c0.2,0.3,0.4,0.7,0.6,1c-0.1,0.2-0.2,0.4-0.3,0.7
				c-0.4-0.1-0.8-0.2-1.2-0.3c0.1-0.2,0.1-0.4,0.2-0.6c-0.4-0.1-0.8-0.2-1.2-0.3c-0.1,0.3-0.2,0.6-0.3,0.9c0.7,0.6,1.3,1.1,1.9,1.7
				c-0.2,0.6-0.4,1.2-0.6,1.7C13.4,25.1,13.1,25.3,12.7,25.5z"/>
			<path fill="#FFFFFF" d="M13.8,19.4c-0.2-0.2-0.4-0.5-0.6-0.7c0.1-0.2,0.2-0.5,0.3-0.7c0.5,0.1,0.9,0.2,1.4,0.3
				c-0.1,0.2-0.1,0.4-0.2,0.5c0.6,0.2,1.2,0.3,1.8,0.5c-0.1,0.2-0.2,0.5-0.3,0.7C15.3,19.8,14.6,19.6,13.8,19.4z"/>
			<path fill="#FFFFFF" d="M15,18.1c0.1-0.3,0.3-0.6,0.4-0.9c0.4,0.1,0.8,0.2,1.3,0.4c-0.1,0.3-0.3,0.6-0.4,0.9
				C15.8,18.3,15.4,18.2,15,18.1z"/>
			<path fill="#FFFFFF" d="M16.5,26.5c-0.5-0.2-1-0.3-1.5-0.4c-0.2-0.3-0.4-0.7-0.6-1c0.4-1.3,0.9-2.5,1.4-3.7
				c0.4,0.1,0.8,0.2,1.1,0.3c-0.5,1.2-1,2.4-1.4,3.6c0.3,0.1,0.7,0.2,1,0.3c0.5-1.2,1-2.3,1.5-3.5c-0.2-0.1-0.4-0.1-0.6-0.2
				c0.1-0.3,0.2-0.6,0.4-0.8c0.4,0.1,0.7,0.2,1.1,0.4c0.1,0.3,0.3,0.6,0.4,0.8c-0.6,1.2-1.2,2.5-1.7,3.8
				C17.2,26.1,16.9,26.3,16.5,26.5z"/>
		</g>
	</g>
</g>
</svg>
