<!-- Generator: Adobe Illustrator 18.0.0, SVG Export Plug-In  -->
<svg version="1.1"
	 xmlns="http://www.w3.org/2000/svg" xmlns:xlink="http://www.w3.org/1999/xlink" xmlns:a="http://ns.adobe.com/AdobeSVGViewerExtensions/3.0/"
	 x="0px" y="0px" width="35px" height="32.4px" viewBox="0 0 35 32.4" enable-background="new 0 0 35 32.4" xml:space="preserve">
<defs>
</defs>
<g>
	<g>
		<g>
			
				<radialGradient id="SVGID_1_" cx="358.6156" cy="-389.1449" r="13.8622" gradientTransform="matrix(0.5017 -1.0533 1.0533 0.5017 246.7177 589.1417)" gradientUnits="userSpaceOnUse">
				<stop  offset="0.25" style="stop-color:#E5DEDB"/>
				<stop  offset="0.6386" style="stop-color:#E3DCD9"/>
				<stop  offset="0.7786" style="stop-color:#DDD6D3"/>
				<stop  offset="0.878" style="stop-color:#D2CBC9"/>
				<stop  offset="0.9239" style="stop-color:#CAC4C2"/>
				<stop  offset="1" style="stop-color:#E5E1DC"/>
			</radialGradient>
			<circle fill="url(#SVGID_1_)" cx="16.7" cy="16.2" r="16.2"/>
			
				<linearGradient id="SVGID_2_" gradientUnits="userSpaceOnUse" x1="379.7661" y1="-435.3714" x2="379.7661" y2="-460.7464" gradientTransform="matrix(0.43 -0.9028 0.9028 0.43 255.3218 550.4512)">
				<stop  offset="0" style="stop-color:#E5DEDB"/>
				<stop  offset="1" style="stop-color:#E5E1DC"/>
			</linearGradient>
			<path fill="url(#SVGID_2_)" d="M20,2.5c-6.3-3-14.1,0.1-17.4,7c-3.3,6.9-0.8,14.9,5.5,17.9c6.3,3,14.1-0.1,17.4-7
				C28.8,13.5,26.3,5.5,20,2.5z"/>
			
				<linearGradient id="SVGID_3_" gradientUnits="userSpaceOnUse" x1="379.7661" y1="-446.7047" x2="379.7661" y2="-459.787" gradientTransform="matrix(0.43 -0.9028 0.9028 0.43 255.3218 550.4512)">
				<stop  offset="5.076140e-03" style="stop-color:#E5E1DC"/>
				<stop  offset="1" style="stop-color:#FFFAF6"/>
			</linearGradient>
			<path fill="url(#SVGID_3_)" d="M15.7,3.6c-4.1-2-9.6,0.9-12.2,6.3c-2.6,5.4-1.4,11.4,2.8,13.4c4.1,2,6.5-2.3,9-7.8
				C17.9,10.1,19.8,5.5,15.7,3.6z"/>
		</g>
		<g>
			<defs>
				<path id="SVGID_4_" d="M8.5,31.2c-0.1-0.2-0.3-0.5-0.4-0.8c-1.4-3.8,3.1-8.9,10-11.4c6.9-2.4,13.6-1.3,14.9,2.5
					c0.1,0.3,0.2,0.5,0.2,0.8c1.8-3.5,2.3-7.4,1-11C31.4,3.5,21.7-0.1,12.5,3.1C3.2,6.4-2,15.4,0.7,23.2C2,26.9,4.9,29.6,8.5,31.2z"
					/>
			</defs>
			<clipPath id="SVGID_5_">
				<use xlink:href="#SVGID_4_"  overflow="visible"/>
			</clipPath>
			<g clip-path="url(#SVGID_5_)">
				<g>
					<g>
						<g>
							
								<radialGradient id="SVGID_6_" cx="358.6156" cy="-389.1449" r="13.8622" gradientTransform="matrix(0.5017 -1.0533 1.0533 0.5017 246.7177 589.1417)" gradientUnits="userSpaceOnUse">
								<stop  offset="0.25" style="stop-color:#EE5725"/>
								<stop  offset="0.5864" style="stop-color:#EE5925"/>
								<stop  offset="0.7075" style="stop-color:#EF5F26"/>
								<stop  offset="0.7939" style="stop-color:#F16928"/>
								<stop  offset="0.8632" style="stop-color:#F3762C"/>
								<stop  offset="0.9224" style="stop-color:#F68632"/>
								<stop  offset="0.9239" style="stop-color:#F68633"/>
								<stop  offset="1" style="stop-color:#FBB040"/>
							</radialGradient>
							<circle fill="url(#SVGID_6_)" cx="16.7" cy="16.2" r="16.2"/>
							
								<linearGradient id="SVGID_7_" gradientUnits="userSpaceOnUse" x1="379.7661" y1="-435.3714" x2="379.7661" y2="-460.7464" gradientTransform="matrix(0.43 -0.9028 0.9028 0.43 255.3218 550.4512)">
								<stop  offset="0" style="stop-color:#EE5725"/>
								<stop  offset="1" style="stop-color:#FBB040"/>
							</linearGradient>
							<path fill="url(#SVGID_7_)" d="M20,2.5c-6.3-3-14.1,0.1-17.4,7c-3.3,6.9-0.8,14.9,5.5,17.9c6.3,3,14.1-0.1,17.4-7
								C28.8,13.5,26.3,5.5,20,2.5z"/>
							
								<linearGradient id="SVGID_8_" gradientUnits="userSpaceOnUse" x1="379.7661" y1="-446.7047" x2="379.7661" y2="-459.787" gradientTransform="matrix(0.43 -0.9028 0.9028 0.43 255.3218 550.4512)">
								<stop  offset="5.076140e-03" style="stop-color:#F68733"/>
								<stop  offset="1" style="stop-color:#FAF0ED"/>
							</linearGradient>
							<path fill="url(#SVGID_8_)" d="M15.7,3.6c-4.1-2-9.6,0.9-12.2,6.3c-2.6,5.4-1.4,11.4,2.8,13.4c4.1,2,6.5-2.3,9-7.8
								C17.9,10.1,19.8,5.5,15.7,3.6z"/>
						</g>
					</g>
				</g>
			</g>
		</g>
		<g>
			<defs>
				<circle id="SVGID_9_" cx="15" cy="11.2" r="7"/>
			</defs>
			<clipPath id="SVGID_10_">
				<use xlink:href="#SVGID_9_"  overflow="visible"/>
			</clipPath>
			<g clip-path="url(#SVGID_10_)">
				
					<radialGradient id="SVGID_11_" cx="358.6156" cy="-389.1449" r="13.8622" gradientTransform="matrix(0.5017 -1.0533 1.0533 0.5017 246.7177 589.1417)" gradientUnits="userSpaceOnUse">
					<stop  offset="0.25" style="stop-color:#E5DEDB"/>
					<stop  offset="0.6386" style="stop-color:#E3DCD9"/>
					<stop  offset="0.7786" style="stop-color:#DDD6D3"/>
					<stop  offset="0.878" style="stop-color:#D2CBC9"/>
					<stop  offset="0.9239" style="stop-color:#CAC4C2"/>
					<stop  offset="1" style="stop-color:#E5E1DC"/>
				</radialGradient>
				<circle fill="url(#SVGID_11_)" cx="16.7" cy="16.2" r="16.2"/>
				
					<linearGradient id="SVGID_12_" gradientUnits="userSpaceOnUse" x1="379.7661" y1="-435.3714" x2="379.7661" y2="-460.7464" gradientTransform="matrix(0.43 -0.9028 0.9028 0.43 255.3218 550.4512)">
					<stop  offset="0" style="stop-color:#E5DEDB"/>
					<stop  offset="1" style="stop-color:#E5E1DC"/>
				</linearGradient>
				<path fill="url(#SVGID_12_)" d="M20,2.5c-6.3-3-14.1,0.1-17.4,7c-3.3,6.9-0.8,14.9,5.5,17.9c6.3,3,14.1-0.1,17.4-7
					C28.8,13.5,26.3,5.5,20,2.5z"/>
				
					<linearGradient id="SVGID_13_" gradientUnits="userSpaceOnUse" x1="379.7661" y1="-446.7047" x2="379.7661" y2="-459.787" gradientTransform="matrix(0.43 -0.9028 0.9028 0.43 255.3218 550.4512)">
					<stop  offset="5.076140e-03" style="stop-color:#E5E1DC"/>
					<stop  offset="1" style="stop-color:#FFFAF6"/>
				</linearGradient>
				<path fill="url(#SVGID_13_)" d="M15.7,3.6c-4.1-2-9.6,0.9-12.2,6.3c-2.6,5.4-1.4,11.4,2.8,13.4c4.1,2,6.5-2.3,9-7.8
					C17.9,10.1,19.8,5.5,15.7,3.6z"/>
			</g>
		</g>
	</g>
	<text transform="matrix(0.9255 -0.3788 0.3788 0.9255 10.4571 15.9079)" font-family="'PSLSamsonExtraSP'" font-size="11.7117">อื่นๆ</text>
</g>
</svg>
