<!-- Generator: Adobe Illustrator 18.0.0, SVG Export Plug-In  -->
<svg version="1.1"
	 xmlns="http://www.w3.org/2000/svg" xmlns:xlink="http://www.w3.org/1999/xlink" xmlns:a="http://ns.adobe.com/AdobeSVGViewerExtensions/3.0/"
	 x="0px" y="0px" width="34.1px" height="32.2px" viewBox="0 0 34.1 32.2" enable-background="new 0 0 34.1 32.2"
	 xml:space="preserve">
<defs>
</defs>
<g>
	<g>
		
			<radialGradient id="SVGID_1_" cx="45.3081" cy="37.9554" r="13.7482" gradientTransform="matrix(1.1139 -0.347 0.347 1.1139 -46.2934 -10.5128)" gradientUnits="userSpaceOnUse">
			<stop  offset="0.25" style="stop-color:#E5DEDB"/>
			<stop  offset="0.6386" style="stop-color:#E3DCD9"/>
			<stop  offset="0.7786" style="stop-color:#DDD6D3"/>
			<stop  offset="0.878" style="stop-color:#D2CBC9"/>
			<stop  offset="0.9239" style="stop-color:#CAC4C2"/>
			<stop  offset="1" style="stop-color:#E5E1DC"/>
		</radialGradient>
		<circle fill="url(#SVGID_1_)" cx="17.3" cy="16" r="16"/>
		
			<linearGradient id="SVGID_2_" gradientUnits="userSpaceOnUse" x1="33.2823" y1="69.4184" x2="33.2823" y2="44.2519" gradientTransform="matrix(0.9547 -0.2974 0.2974 0.9547 -32.1929 -31.0775)">
			<stop  offset="0" style="stop-color:#E5DEDB"/>
			<stop  offset="1" style="stop-color:#E5E1DC"/>
		</linearGradient>
		<path fill="url(#SVGID_2_)" d="M29.5,9.2c-2.1-6.6-9.6-10.2-16.8-8S1.4,10.7,3.5,17.3s9.6,10.2,16.8,8S31.6,15.9,29.5,9.2z"/>
		
			<linearGradient id="SVGID_3_" gradientUnits="userSpaceOnUse" x1="33.2823" y1="58.1781" x2="33.2823" y2="45.2031" gradientTransform="matrix(0.9547 -0.2974 0.2974 0.9547 -32.1929 -31.0775)">
			<stop  offset="5.076140e-03" style="stop-color:#E5E1DC"/>
			<stop  offset="1" style="stop-color:#FFFAF6"/>
		</linearGradient>
		<path fill="url(#SVGID_3_)" d="M25.8,6.8C24.5,2.5,18.7,0.4,13,2.2C7.3,4,3.8,8.9,5.1,13.2c1.3,4.3,6,3.1,11.8,1.3
			C22.6,12.8,27.1,11.1,25.8,6.8z"/>
	</g>
	<g>
		<defs>
			<path id="SVGID_4_" d="M0.9,20.1c0.1-0.3,0.2-0.5,0.3-0.8c1.9-3.6,8.6-3.7,15-0.4c6.4,3.4,10.1,9,8.2,12.6
				c-0.1,0.2-0.3,0.5-0.5,0.7c3.7-1,6.9-3.3,8.7-6.7c3.8-7.3-0.1-16.8-8.7-21.3c-8.6-4.5-18.7-2.3-22.5,5
				C-0.3,12.5-0.4,16.5,0.9,20.1z"/>
		</defs>
		<clipPath id="SVGID_5_">
			<use xlink:href="#SVGID_4_"  overflow="visible"/>
		</clipPath>
		<g clip-path="url(#SVGID_5_)">
			<g>
				<g>
					<g>
						
							<radialGradient id="SVGID_6_" cx="45.3082" cy="37.9557" r="13.7482" gradientTransform="matrix(1.1139 -0.347 0.347 1.1139 -46.2936 -10.5131)" gradientUnits="userSpaceOnUse">
							<stop  offset="0.25" style="stop-color:#D32627"/>
							<stop  offset="0.6201" style="stop-color:#D42727"/>
							<stop  offset="0.7533" style="stop-color:#D92A29"/>
							<stop  offset="0.848" style="stop-color:#E02F2E"/>
							<stop  offset="0.9239" style="stop-color:#EF3735"/>
							<stop  offset="1" style="stop-color:#EF4343"/>
						</radialGradient>
						<circle fill="url(#SVGID_6_)" cx="17.3" cy="16" r="16"/>
						
							<linearGradient id="SVGID_7_" gradientUnits="userSpaceOnUse" x1="33.2823" y1="69.4184" x2="33.2823" y2="44.2519" gradientTransform="matrix(0.9547 -0.2974 0.2974 0.9547 -32.1929 -31.0775)">
							<stop  offset="0" style="stop-color:#D32327"/>
							<stop  offset="1" style="stop-color:#EE7878"/>
						</linearGradient>
						<path fill="url(#SVGID_7_)" d="M29.5,9.2c-2.1-6.6-9.6-10.2-16.8-8S1.4,10.7,3.5,17.3s9.6,10.2,16.8,8S31.6,15.9,29.5,9.2z"/>
						
							<linearGradient id="SVGID_8_" gradientUnits="userSpaceOnUse" x1="33.2823" y1="58.1781" x2="33.2823" y2="45.2031" gradientTransform="matrix(0.9547 -0.2974 0.2974 0.9547 -32.1929 -31.0775)">
							<stop  offset="5.076140e-03" style="stop-color:#E44745"/>
							<stop  offset="1" style="stop-color:#FBEDED"/>
						</linearGradient>
						<path fill="url(#SVGID_8_)" d="M25.8,6.8C24.5,2.5,18.7,0.4,13,2.2C7.3,4,3.8,8.9,5.1,13.2c1.3,4.3,6,3.1,11.8,1.3
							C22.6,12.8,27.1,11.1,25.8,6.8z"/>
					</g>
				</g>
			</g>
		</g>
	</g>
	<g>
		<g>
			<path d="M12.3,10.5c-0.1,0.2-0.3,0.4-0.5,0.5c-0.2,0.1-0.4,0.3-0.6,0.3c-0.2,0.1-0.5,0.1-0.7,0.1c-0.2,0-0.5,0-0.8-0.1
				c-1-0.2-2-0.5-3-0.6C7.1,10,7.5,9.2,8,8.4C8.1,8.2,8.2,8.1,8.4,8c0,0,0.1,0,0.1,0c0.1,0,0.1,0,0.2-0.1C8.5,7.9,8.3,7.8,8,7.8
				C8.2,7.5,8.3,7.2,8.5,7C8.8,7,9.1,7.1,9.4,7.2c0.1,0.1,0.2,0.2,0.3,0.3c0.2,0,0.4-0.1,0.6-0.1c0.3,0.1,0.6,0.2,0.9,0.2
				C11,7.8,10.9,8,10.7,8.2c-0.3-0.1-0.5,0.1-0.8,0.4c-0.3,0.5-0.6,1.1-0.9,1.6c0.1,0,0.2,0,0.3,0.1c0.1,0,0.2,0,0.3,0
				c0.1,0,0.2,0,0.3-0.1c0.1,0,0.2-0.1,0.2-0.2c0.1-0.1,0.1-0.1,0.2-0.2c0.1-0.2,0.2-0.4,0.1-0.5c-0.1-0.1-0.2-0.2-0.4-0.2
				c0.2-0.3,0.3-0.5,0.5-0.8c0,0,0.1,0,0.1,0c0.2,0.1,0.4,0,0.5,0c0.2-0.1,0.3-0.2,0.4-0.4c0-0.1,0.1-0.1,0.1-0.2
				c0.6,0.2,1.2,0.4,1.8,0.6c0,0.1-0.1,0.1-0.1,0.2c-0.3,0.5-0.8,0.7-1.4,0.6c0.1,0.1,0.2,0.2,0.2,0.3c0.1,0.1,0.1,0.2,0.1,0.3
				c0,0.1,0,0.2,0,0.4C12.4,10.2,12.3,10.4,12.3,10.5z"/>
			<path d="M13.9,7.9C12.6,7.4,11.2,7,9.7,6.7C9.9,6.5,10,6.2,10.2,6c1.4,0.3,2.9,0.7,4.2,1.2C14.2,7.4,14.1,7.6,13.9,7.9z"/>
			<path d="M15.9,13.5c-0.5-0.2-1.1-0.5-1.6-0.7c0.5-0.7,1-1.5,1.5-2.2c0.1-0.1,0.1-0.2,0.1-0.3c0-0.1-0.1-0.2-0.2-0.2
				c-0.1,0-0.1,0-0.2,0c-0.1,0-0.1,0-0.2,0c-0.1,0-0.1,0-0.2,0.1c-0.1,0-0.1,0.1-0.1,0.1c-0.5,0.7-1,1.5-1.5,2.2
				c-0.6-0.2-1.1-0.4-1.7-0.6c0.7-1.2,1.5-2.4,2.3-3.5c0.6,0.2,1.2,0.4,1.8,0.7c-0.1,0.1-0.2,0.3-0.3,0.4c0.1,0,0.3-0.1,0.4-0.1
				c0.1,0,0.2,0,0.4,0c0.1,0,0.3,0,0.4,0.1c0.1,0,0.3,0.1,0.4,0.1c0.2,0.1,0.3,0.2,0.5,0.3c0.1,0.1,0.2,0.2,0.3,0.4
				c0,0.1,0.1,0.3,0,0.4c0,0.1-0.1,0.3-0.2,0.4C17,11.9,16.4,12.7,15.9,13.5z"/>
			<path d="M20,15.7c-0.5-0.3-1-0.6-1.5-0.8c0.5-0.7,1.1-1.4,1.7-2.1c0.2-0.2,0.1-0.3-0.1-0.5c-0.1,0-0.2-0.1-0.2-0.1
				c-0.2,0-0.3,0-0.4,0.1c-0.1,0.1-0.1,0.2-0.2,0.2c0.2,0.1,0.4,0.2,0.6,0.3c-0.2,0.3-0.4,0.5-0.6,0.8c-0.2-0.1-0.4-0.2-0.6-0.3
				c-0.3,0.4-0.6,0.7-0.8,1.1c-0.5-0.3-1-0.5-1.5-0.8c0.5-0.8,1.1-1.5,1.6-2.2c0.3-0.4,0.7-0.5,1.3-0.5c0.3,0,0.5,0.1,0.8,0.1
				c0.3,0.1,0.5,0.2,0.8,0.3c0.3,0.1,0.5,0.3,0.7,0.5c0.2,0.2,0.3,0.4,0.4,0.5c0.2,0.4,0.2,0.8-0.1,1.2C21.2,14.3,20.6,15,20,15.7z"
				/>
			<path d="M25.4,17.1c-0.4,0.4-0.9,0.7-1.4,0.7c-0.6,0-1.2-0.2-1.8-0.6c-0.6-0.5-1-0.9-1.1-1.5c-0.1-0.5,0.1-1,0.5-1.4
				c0.1-0.1,0.2-0.2,0.3-0.3c0.7,0.5,1.4,1,2.1,1.5c-0.2,0.2-0.4,0.4-0.5,0.6c-0.2-0.2-0.5-0.4-0.7-0.5c-0.1,0.1-0.1,0.3-0.1,0.4
				c0,0.1,0.1,0.3,0.3,0.4c0.2,0.1,0.4,0.2,0.6,0.2c0.2,0,0.4-0.2,0.6-0.4c0.1-0.1,0.2-0.2,0.2-0.3c0-0.1,0.1-0.2,0.1-0.3
				c0-0.1,0-0.2-0.1-0.3c0-0.1-0.1-0.2-0.2-0.2c-0.3-0.2-0.5-0.2-0.7-0.2c-0.5-0.3-0.9-0.6-1.4-0.9c0,0,0.1-0.1,0.1-0.1
				c0.2-0.1,0.4-0.2,0.6-0.2c0.2,0,0.4-0.1,0.7,0c0.5,0,1,0.2,1.5,0.7c0.7,0.5,1,1,1,1.6C26,16.2,25.8,16.7,25.4,17.1z"/>
			<path d="M27.9,20.7c-0.1,0.1-0.3,0.2-0.4,0.2C27.3,21,27.2,21,27,21c-0.1,0-0.3-0.1-0.4-0.1c-0.1-0.1-0.3-0.2-0.4-0.3
				c-0.2-0.2-0.3-0.4-0.4-0.5c-0.1-0.2-0.1-0.4-0.1-0.6c-0.1,0.1-0.2,0.2-0.3,0.3c-0.4-0.4-0.8-0.7-1.2-1.1c0.9-1,1.8-1.9,2.8-2.8
				c0.4,0.4,0.8,0.8,1.2,1.1c-0.7,0.5-1.3,1.1-1.9,1.7c0,0-0.1,0.1-0.1,0.1c0,0.1,0,0.1,0,0.2c0,0.1,0,0.1,0,0.2
				c0,0.1,0.1,0.1,0.1,0.1c0.1,0.1,0.2,0.1,0.3,0.1c0.1,0,0.2,0,0.3-0.1c0.6-0.6,1.2-1.1,1.9-1.7c0.4,0.4,0.8,0.8,1.1,1.2
				C29.3,19.5,28.5,20.1,27.9,20.7z"/>
		</g>
	</g>
</g>
</svg>
