<!-- Generator: Adobe Illustrator 18.0.0, SVG Export Plug-In  -->
<svg version="1.1"
	 xmlns="http://www.w3.org/2000/svg" xmlns:xlink="http://www.w3.org/1999/xlink" xmlns:a="http://ns.adobe.com/AdobeSVGViewerExtensions/3.0/"
	 x="0px" y="0px" width="34.6px" height="31.5px" viewBox="0 0 34.6 31.5" enable-background="new 0 0 34.6 31.5"
	 xml:space="preserve">
<defs>
</defs>
<g>
	<g>
		
			<radialGradient id="SVGID_1_" cx="86.6936" cy="31.8495" r="13.5127" gradientTransform="matrix(-0.7764 0.8709 -0.8709 -0.7764 112.754 -35.008)" gradientUnits="userSpaceOnUse">
			<stop  offset="0.25" style="stop-color:#E5DEDB"/>
			<stop  offset="0.6386" style="stop-color:#E3DCD9"/>
			<stop  offset="0.7786" style="stop-color:#DDD6D3"/>
			<stop  offset="0.878" style="stop-color:#D2CBC9"/>
			<stop  offset="0.9239" style="stop-color:#CAC4C2"/>
			<stop  offset="1" style="stop-color:#E5E1DC"/>
		</radialGradient>
		<circle fill="url(#SVGID_1_)" cx="17.7" cy="15.8" r="15.8"/>
		
			<linearGradient id="SVGID_2_" gradientUnits="userSpaceOnUse" x1="75.0996" y1="68.9048" x2="75.0996" y2="44.1692" gradientTransform="matrix(-0.6654 0.7465 -0.7465 -0.6654 112.0058 -0.7823)">
			<stop  offset="0" style="stop-color:#E5DEDB"/>
			<stop  offset="1" style="stop-color:#E5E1DC"/>
		</linearGradient>
		<path fill="url(#SVGID_2_)" d="M10.9,27.7c5.1,4.5,13.2,3.7,18.2-1.8c4.9-5.5,4.8-13.7-0.3-18.2c-5.1-4.5-13.2-3.7-18.2,1.8
			C5.7,15,5.8,23.1,10.9,27.7z"/>
		
			<linearGradient id="SVGID_3_" gradientUnits="userSpaceOnUse" x1="75.0997" y1="57.8569" x2="75.0997" y2="45.1042" gradientTransform="matrix(-0.6654 0.7465 -0.7465 -0.6654 112.0058 -0.7823)">
			<stop  offset="5.076140e-03" style="stop-color:#E5E1DC"/>
			<stop  offset="1" style="stop-color:#FFFAF6"/>
		</linearGradient>
		<path fill="url(#SVGID_3_)" d="M15.3,27.8c3.3,3,9.2,1.8,13.1-2.6c3.9-4.4,4.4-10.3,1.1-13.3c-3.3-3-6.7,0.4-10.6,4.8
			C14.9,21.2,12,24.9,15.3,27.8z"/>
	</g>
	<g>
		<defs>
			<path id="SVGID_4_" d="M29.5,4c0.1,0.3,0.1,0.5,0.1,0.8c0.2,4-5.4,7.5-12.5,7.9c-7.1,0.4-13.1-2.5-13.3-6.4c0-0.3,0-0.5,0-0.8
				C1.3,8.2-0.2,11.8,0,15.5c0.5,8.1,8.6,14.1,18.1,13.6c9.5-0.5,16.9-7.5,16.4-15.6C34.4,9.8,32.5,6.4,29.5,4z"/>
		</defs>
		<clipPath id="SVGID_5_">
			<use xlink:href="#SVGID_4_"  overflow="visible"/>
		</clipPath>
		<g clip-path="url(#SVGID_5_)">
			<g>
				<g>
					<g>
						
							<radialGradient id="SVGID_6_" cx="86.6937" cy="31.8498" r="13.5127" gradientTransform="matrix(-0.7764 0.8709 -0.8709 -0.7764 112.7543 -35.0079)" gradientUnits="userSpaceOnUse">
							<stop  offset="0.25" style="stop-color:#084567"/>
							<stop  offset="0.6058" style="stop-color:#084668"/>
							<stop  offset="0.7339" style="stop-color:#094A6E"/>
							<stop  offset="0.8253" style="stop-color:#0A5077"/>
							<stop  offset="0.8986" style="stop-color:#0B5A86"/>
							<stop  offset="0.9239" style="stop-color:#0B5E8D"/>
							<stop  offset="1" style="stop-color:#0E6699"/>
						</radialGradient>
						<circle fill="url(#SVGID_6_)" cx="17.7" cy="15.8" r="15.8"/>
						
							<linearGradient id="SVGID_7_" gradientUnits="userSpaceOnUse" x1="75.0996" y1="68.9048" x2="75.0996" y2="44.1692" gradientTransform="matrix(-0.6654 0.7465 -0.7465 -0.6654 112.0058 -0.7823)">
							<stop  offset="0" style="stop-color:#084567"/>
							<stop  offset="1" style="stop-color:#1888CA"/>
						</linearGradient>
						<path fill="url(#SVGID_7_)" d="M10.9,27.7c5.1,4.5,13.2,3.7,18.2-1.8c4.9-5.5,4.8-13.7-0.3-18.2c-5.1-4.5-13.2-3.7-18.2,1.8
							C5.7,15,5.8,23.1,10.9,27.7z"/>
						
							<linearGradient id="SVGID_8_" gradientUnits="userSpaceOnUse" x1="75.0997" y1="57.8569" x2="75.0997" y2="45.1042" gradientTransform="matrix(-0.6654 0.7465 -0.7465 -0.6654 112.0058 -0.7823)">
							<stop  offset="5.076140e-03" style="stop-color:#0B5E8D"/>
							<stop  offset="1" style="stop-color:#DCE7ED"/>
						</linearGradient>
						<path fill="url(#SVGID_8_)" d="M15.3,27.8c3.3,3,9.2,1.8,13.1-2.6c3.9-4.4,4.4-10.3,1.1-13.3c-3.3-3-6.7,0.4-10.6,4.8
							C14.9,21.2,12,24.9,15.3,27.8z"/>
					</g>
				</g>
			</g>
		</g>
	</g>
	<g>
		<g>
			<path fill="#FFFFFF" d="M12.2,18.8c-0.2,0-0.4,0-0.6,0c0.1-1,0.2-2.1,0.3-3.1c0.2,0,0.3,0,0.5,0.1C12.3,16.8,12.2,17.8,12.2,18.8
				z"/>
			<path fill="#FFFFFF" d="M15.9,18.9c-0.2,0-0.4,0-0.5,0c0-0.7-0.1-1.4-0.1-2.1c0-0.4-0.3-0.6-0.8-0.6c-0.6,0-0.8,0.1-0.9,0.5
				c0,0.7,0,1.4-0.1,2.1c-0.2,0-0.4,0-0.6,0c0-0.7,0.1-1.5,0.1-2.2c0-0.3,0.2-0.5,0.5-0.7c0.2-0.1,0.5-0.2,0.9-0.1
				c0.3,0,0.6,0.1,0.9,0.2c0.3,0.2,0.5,0.4,0.5,0.7C15.8,17.5,15.9,18.2,15.9,18.9z"/>
			<path fill="#FFFFFF" d="M19.2,17.9c0.1,0.6-0.2,0.9-0.9,1c-0.5,0-0.9-0.1-1.3-0.4c0,0.1,0,0.3,0,0.4c-0.2,0-0.4,0-0.5,0
				c-0.1-1-0.2-1.9-0.2-2.9c0.2,0,0.3,0,0.5,0c0,0.6,0.1,1.2,0.2,1.8c0,0.2,0.1,0.3,0.4,0.5c0.3,0.2,0.5,0.2,0.9,0.2
				c0.4,0,0.6-0.2,0.5-0.6c-0.1-0.7-0.2-1.3-0.3-2c0.2,0,0.3,0,0.5,0C19,16.5,19.1,17.2,19.2,17.9z"/>
			<path fill="#FFFFFF" d="M22.8,18.1c-0.2,0-0.4,0.1-0.5,0.1c-0.2-0.6-0.3-1.1-0.5-1.7c-0.1,0-0.3,0-0.4,0.1
				c-0.4,0.1-0.7,0.2-0.9,0.3c-0.3,0.2-0.4,0.4-0.3,0.7c0,0.2,0.2,0.3,0.4,0.4c0.2,0.1,0.4,0.1,0.7,0.1c0.1,0,0.2,0,0.2-0.1
				c0,0.1,0.1,0.2,0.1,0.4c-0.1,0-0.2,0-0.3,0.1c-0.4,0.1-0.8,0-1-0.1c-0.3-0.1-0.5-0.4-0.6-0.7c-0.1-0.4,0.1-0.7,0.4-0.9
				c0.3-0.2,0.7-0.4,1.3-0.5c0.1,0,0.2,0,0.4-0.1c-0.1-0.3-0.4-0.3-1-0.2c-0.5,0.1-0.9,0.2-1.2,0.5c0-0.1-0.1-0.3-0.1-0.4
				c0.3-0.2,0.7-0.4,1.2-0.5c0.2,0,0.4,0,0.5,0c0-0.1,0.1-0.2,0.1-0.2c0.2,0,0.3-0.1,0.5-0.1c0,0.1-0.1,0.3-0.1,0.4
				c0.3,0.1,0.5,0.3,0.6,0.5C22.4,16.8,22.6,17.5,22.8,18.1z"/>
			<path fill="#FFFFFF" d="M21.8,13.9c0,0.1-0.1,0.2-0.1,0.3c-0.1,0-0.1,0-0.2,0c-0.2,0-0.2,0.1-0.2,0.2c0,0,0,0,0,0.1
				c-0.1,0-0.3,0.1-0.4,0.1c0,0,0-0.1,0-0.1c-0.1-0.2,0.1-0.4,0.4-0.4C21.5,14,21.6,13.9,21.8,13.9z"/>
			<path fill="#FFFFFF" d="M5.4,23.7c-0.2,0-0.5,0-0.7-0.1c0.2-1.1,0.5-2.2,0.8-3.3c0.2,0,0.4,0.1,0.6,0.1
				C5.9,21.6,5.7,22.6,5.4,23.7z"/>
			<path fill="#FFFFFF" d="M10.1,24c-0.2,0-0.4,0-0.7,0c0.1-0.7,0.1-1.5,0.2-2.2c0-0.4-0.2-0.6-0.7-0.7c-0.4,0-0.7,0-1,0.2
				c-0.3,0.1-0.4,0.3-0.5,0.5c-0.1,0.7-0.2,1.4-0.3,2c-0.2,0-0.5,0-0.7-0.1c0.2-1.1,0.4-2.2,0.6-3.2c0.2,0,0.4,0.1,0.6,0.1
				c0,0.2-0.1,0.3-0.1,0.5c0.5-0.3,1-0.4,1.5-0.4c0.8,0.1,1.2,0.4,1.2,1.1C10.2,22.6,10.1,23.3,10.1,24z"/>
			<path fill="#FFFFFF" d="M14.4,24c-0.2,0-0.4,0-0.6,0c0-0.7-0.1-1.4-0.1-2.1c0-0.4-0.4-0.6-1.1-0.6c-0.7,0-1.1,0.2-1.1,0.6
				c0,0.1,0,0.2,0,0.3c0.4,0,0.8,0,1.2,0c0,0.1,0,0.3,0,0.4c-0.4,0-0.8,0-1.2,0c0,0.5,0,1-0.1,1.5c-0.2,0-0.4,0-0.7,0
				c0-0.7,0.1-1.5,0.1-2.2c0-0.3,0.2-0.6,0.6-0.7c0.3-0.1,0.7-0.2,1.1-0.2c0.4,0,0.8,0.1,1.1,0.2c0.4,0.2,0.6,0.4,0.6,0.7
				C14.4,22.6,14.4,23.3,14.4,24z"/>
			<path fill="#FFFFFF" d="M16.8,19.8c-0.4,0-0.8,0-1.3,0.1c-0.1,0-0.2,0-0.2,0.1c0.3,0.1,0.4,0.2,0.4,0.5c0.1,1.2,0.2,2.3,0.3,3.5
				c-0.2,0-0.4,0-0.6,0c-0.1-1.2-0.2-2.3-0.3-3.5c0-0.1-0.2-0.3-0.5-0.4c0-0.4,0.3-0.5,0.8-0.5c0.4,0,0.8,0,1.2,0
				C16.8,19.6,16.8,19.7,16.8,19.8z"/>
			<path fill="#FFFFFF" d="M20.6,23.4c-0.2,0-0.4,0.1-0.6,0.1c0-0.1-0.1-0.3-0.1-0.4c-0.3,0.3-0.8,0.6-1.3,0.6
				c-0.9,0.1-1.4-0.2-1.5-0.8c-0.1-0.7-0.2-1.4-0.3-2c0.2,0,0.4,0,0.6,0c0.1,0.7,0.2,1.3,0.3,2c0.1,0.4,0.3,0.5,0.9,0.5
				c0.4,0,0.7-0.2,0.9-0.4c0.2-0.2,0.3-0.4,0.3-0.5c-0.1-0.6-0.3-1.2-0.4-1.8c0.2,0,0.4,0,0.6-0.1C20.1,21.6,20.3,22.5,20.6,23.4z"
				/>
			<path fill="#FFFFFF" d="M22.1,19.2c-0.4,0.1-0.8,0.2-1.2,0.2c-0.1,0-0.2,0.1-0.2,0.1c0.3,0,0.5,0.2,0.5,0.4
				c0.3,1.1,0.6,2.2,1,3.2c-0.2,0-0.4,0.1-0.6,0.1c-0.3-1.1-0.6-2.2-0.9-3.3c0-0.1-0.2-0.2-0.5-0.3c-0.1-0.3,0.2-0.5,0.7-0.6
				c0.4-0.1,0.8-0.1,1.2-0.2C22.1,19,22.1,19.1,22.1,19.2z"/>
			<path fill="#FFFFFF" d="M26.5,22.1c-0.2,0.1-0.4,0.1-0.6,0.2c-0.2-0.5-0.5-1.1-0.7-1.6c-0.2,0-0.3,0.1-0.5,0.1
				c-0.5,0.1-0.8,0.3-1.1,0.4c-0.3,0.2-0.4,0.5-0.4,0.7c0.1,0.2,0.2,0.3,0.5,0.4c0.2,0.1,0.5,0.1,0.8,0c0.1,0,0.2,0,0.3-0.1
				c0,0.1,0.1,0.2,0.1,0.3c-0.1,0-0.2,0.1-0.3,0.1c-0.5,0.1-0.9,0.1-1.2,0c-0.4-0.1-0.6-0.3-0.7-0.6c-0.1-0.3,0-0.7,0.4-1
				c0.3-0.3,0.8-0.5,1.5-0.6c0.1,0,0.3-0.1,0.4-0.1c-0.1-0.2-0.6-0.3-1.2-0.1c-0.6,0.1-1,0.3-1.3,0.6c0-0.1-0.1-0.3-0.1-0.4
				c0.4-0.3,0.8-0.5,1.4-0.6c0.4-0.1,0.8-0.1,1.1-0.1c0.4,0.1,0.6,0.2,0.7,0.5C25.9,20.9,26.2,21.5,26.5,22.1z"/>
			<path fill="#FFFFFF" d="M30.3,20.9c-0.6,0.2-1.1,0.4-1.7,0.6c-1.1,0.4-1.8,0.3-2-0.3c-0.2-0.3,0-0.7,0.4-0.9c-0.2,0-0.3,0-0.5,0
				c-0.2-0.1-0.3-0.2-0.4-0.3c-0.1-0.2,0-0.4,0.1-0.6c0.2-0.2,0.4-0.3,0.8-0.4c0.1,0,0.3-0.1,0.4-0.1c0.1,0.1,0.1,0.2,0.2,0.3
				c-0.1,0-0.2,0-0.4,0.1c-0.4,0.1-0.6,0.3-0.5,0.5c0.1,0.2,0.4,0.2,0.8,0.1c0.1,0,0.1,0,0.2-0.1c0.1,0.1,0.2,0.1,0.4,0.2
				c-0.3,0.1-0.5,0.2-0.7,0.4c-0.2,0.2-0.2,0.4-0.1,0.5c0.1,0.2,0.3,0.3,0.7,0.3c0.2,0,0.5-0.1,0.8-0.2c0.3-0.1,0.6-0.2,0.9-0.3
				c-0.4-0.7-0.9-1.5-1.3-2.2c0.2-0.1,0.4-0.1,0.5-0.2C29.3,19.2,29.8,20.1,30.3,20.9z"/>
			<path fill="#FFFFFF" d="M28.6,18.1c-1,0.4-1.9,0.7-2.9,1c0-0.1,0.1-0.2,0.1-0.4c0.7-0.2,1.4-0.4,2.1-0.7
				c-0.1-0.1-0.1-0.2-0.2-0.3c0.2-0.1,0.3-0.1,0.5-0.2C28.4,17.7,28.5,17.9,28.6,18.1z"/>
		</g>
	</g>
</g>
</svg>
