<!-- Generator: Adobe Illustrator 18.0.0, SVG Export Plug-In  -->
<svg version="1.1"
	 xmlns="http://www.w3.org/2000/svg" xmlns:xlink="http://www.w3.org/1999/xlink" xmlns:a="http://ns.adobe.com/AdobeSVGViewerExtensions/3.0/"
	 x="0px" y="0px" width="34px" height="31.8px" viewBox="0 0 34 31.8" enable-background="new 0 0 34 31.8" xml:space="preserve">
<defs>
</defs>
<g>
	<g>
		
			<radialGradient id="SVGID_1_" cx="266.0631" cy="-177.796" r="13.6432" gradientTransform="matrix(0.3851 -1.1013 1.1013 0.3851 109.4968 377.4102)" gradientUnits="userSpaceOnUse">
			<stop  offset="0.25" style="stop-color:#E5DEDB"/>
			<stop  offset="0.6386" style="stop-color:#E3DCD9"/>
			<stop  offset="0.7786" style="stop-color:#DDD6D3"/>
			<stop  offset="0.878" style="stop-color:#D2CBC9"/>
			<stop  offset="0.9239" style="stop-color:#CAC4C2"/>
			<stop  offset="1" style="stop-color:#E5E1DC"/>
		</radialGradient>
		<circle fill="url(#SVGID_1_)" cx="16.2" cy="15.9" r="15.9"/>
		
			<linearGradient id="SVGID_2_" gradientUnits="userSpaceOnUse" x1="278.1519" y1="-175.6231" x2="278.1519" y2="-200.5973" gradientTransform="matrix(0.3301 -0.944 0.944 0.3301 99.1999 339.6299)">
			<stop  offset="0" style="stop-color:#E5DEDB"/>
			<stop  offset="1" style="stop-color:#E5E1DC"/>
		</linearGradient>
		<path fill="url(#SVGID_2_)" d="M17.9,2.2C11.4-0.1,4.1,3.8,1.7,10.9C-0.8,17.9,2.5,25.5,9,27.8c6.5,2.3,13.8-1.6,16.3-8.7
			C27.7,12,24.4,4.5,17.9,2.2z"/>
		
			<linearGradient id="SVGID_3_" gradientUnits="userSpaceOnUse" x1="278.1519" y1="-186.7774" x2="278.1519" y2="-199.653" gradientTransform="matrix(0.3301 -0.944 0.944 0.3301 99.1999 339.6299)">
			<stop  offset="5.076140e-03" style="stop-color:#E5E1DC"/>
			<stop  offset="1" style="stop-color:#FFFAF6"/>
		</linearGradient>
		<path fill="url(#SVGID_3_)" d="M13.8,3.7C9.5,2.2,4.5,5.6,2.6,11.2c-2,5.6-0.1,11.3,4.1,12.8c4.2,1.5,6.1-3,8-8.6
			C16.7,9.8,18,5.2,13.8,3.7z"/>
	</g>
	<g>
		<defs>
			<path id="SVGID_4_" d="M9.7,31.5c-0.2-0.2-0.3-0.5-0.4-0.7c-1.7-3.6,2.1-9.1,8.6-12.2c6.5-3.1,13.1-2.7,14.9,0.9
				c0.1,0.2,0.2,0.5,0.3,0.8c1.4-3.6,1.4-7.5-0.2-10.9C29.2,2,19.3-0.6,10.6,3.6C1.9,7.8-2.3,17.2,1.3,24.5
				C2.9,27.9,6,30.3,9.7,31.5z"/>
		</defs>
		<clipPath id="SVGID_5_">
			<use xlink:href="#SVGID_4_"  overflow="visible"/>
		</clipPath>
		<g clip-path="url(#SVGID_5_)">
			<g>
				<g>
					<g>
						
							<radialGradient id="SVGID_6_" cx="266.0631" cy="-177.796" r="13.6432" gradientTransform="matrix(0.3851 -1.1013 1.1013 0.3851 109.4968 377.4102)" gradientUnits="userSpaceOnUse">
							<stop  offset="0.25" style="stop-color:#EE5725"/>
							<stop  offset="0.5864" style="stop-color:#EE5925"/>
							<stop  offset="0.7075" style="stop-color:#EF5F26"/>
							<stop  offset="0.7939" style="stop-color:#F16928"/>
							<stop  offset="0.8632" style="stop-color:#F3762C"/>
							<stop  offset="0.9224" style="stop-color:#F68632"/>
							<stop  offset="0.9239" style="stop-color:#F68633"/>
							<stop  offset="1" style="stop-color:#FBB040"/>
						</radialGradient>
						<circle fill="url(#SVGID_6_)" cx="16.2" cy="15.9" r="15.9"/>
						
							<linearGradient id="SVGID_7_" gradientUnits="userSpaceOnUse" x1="278.1519" y1="-175.6231" x2="278.1519" y2="-200.5973" gradientTransform="matrix(0.3301 -0.944 0.944 0.3301 99.1999 339.6299)">
							<stop  offset="0" style="stop-color:#EE5725"/>
							<stop  offset="1" style="stop-color:#FBB040"/>
						</linearGradient>
						<path fill="url(#SVGID_7_)" d="M17.9,2.2C11.4-0.1,4.1,3.8,1.7,10.9C-0.8,17.9,2.5,25.5,9,27.8c6.5,2.3,13.8-1.6,16.3-8.7
							C27.7,12,24.4,4.5,17.9,2.2z"/>
						
							<linearGradient id="SVGID_8_" gradientUnits="userSpaceOnUse" x1="278.1519" y1="-186.7774" x2="278.1519" y2="-199.653" gradientTransform="matrix(0.3301 -0.944 0.944 0.3301 99.1999 339.6299)">
							<stop  offset="5.076140e-03" style="stop-color:#F68733"/>
							<stop  offset="1" style="stop-color:#FAF0ED"/>
						</linearGradient>
						<path fill="url(#SVGID_8_)" d="M13.8,3.7C9.5,2.2,4.5,5.6,2.6,11.2c-2,5.6-0.1,11.3,4.1,12.8c4.2,1.5,6.1-3,8-8.6
							C16.7,9.8,18,5.2,13.8,3.7z"/>
					</g>
				</g>
			</g>
		</g>
	</g>
	<g>
		<g>
			<path fill="#FFFFFF" d="M9.1,16c0.5,0.8,0.7,1.6,0.5,2.4c-0.2,0.7-0.8,1.4-1.6,2.1c-0.8,0.7-1.5,1.1-2.2,1.2
				c-0.8,0.1-1.5-0.1-2-0.8c-0.2-0.2-0.3-0.4-0.4-0.7c0.7-0.7,1.3-1.4,2-2.1c0.2,0.2,0.3,0.4,0.5,0.7c-0.3,0.3-0.7,0.7-1,1
				c0.3,0.4,0.7,0.6,1.2,0.6c0.4,0,0.9-0.2,1.4-0.6c0.5-0.4,0.8-0.9,0.9-1.4c0.1-0.5,0-1-0.4-1.5c-0.3-0.5-0.7-0.7-1.2-0.7
				c-0.5,0-0.9,0.2-1.4,0.7c-0.6,0.6-0.8,1.1-0.9,1.7c-0.4,0.4-0.8,0.8-1.2,1.3c-0.3-1.1,0.2-2.4,1.5-3.7c0.8-0.8,1.5-1.2,2.3-1.3
				C7.9,14.9,8.5,15.3,9.1,16z"/>
			<path fill="#FFFFFF" d="M13.6,16.3c-0.4,0.2-0.8,0.5-1.2,0.7c-0.7-1.2-1.5-2.3-2.2-3.4c-0.1-0.2-0.3-0.2-0.6-0.2
				c-0.3,0-0.6,0.2-0.9,0.5c-0.1,0.1-0.3,0.3-0.4,0.4c-0.2-0.3-0.4-0.5-0.5-0.8C8,13.4,8.2,13.2,8.4,13c0.6-0.5,1.1-0.7,1.6-0.8
				c0.5-0.1,0.9,0.1,1.2,0.5C12,13.9,12.8,15.1,13.6,16.3z"/>
			<path fill="#FFFFFF" d="M19.2,13.4c-0.4,0.2-0.8,0.3-1.1,0.5c-0.5-0.8-0.9-1.7-1.4-2.5c-0.3-0.6-0.8-0.7-1.4-0.3
				c-0.4,0.2-0.7,0.6-0.9,1.1c-0.2,0.5-0.2,0.8,0,1.1c0.4,0.6,0.8,1.3,1.2,1.9c-0.4,0.2-0.8,0.4-1.2,0.7c-1.1-1.7-2.1-3.4-3.2-5
				c0.4-0.3,0.8-0.5,1.2-0.8c0.4,0.5,0.7,1.1,1.1,1.7c0.2-0.7,0.6-1.3,1.3-1.7c0.6-0.4,1.2-0.5,1.7-0.4c0.6,0.1,1,0.5,1.4,1.1
				C18.2,11.6,18.7,12.5,19.2,13.4z M16.3,8.9c-1,0.5-2,1.1-3,1.7c-0.2-0.3-0.4-0.6-0.5-0.9c1-0.7,2-1.3,3-1.8
				C16,8.3,16.1,8.6,16.3,8.9z"/>
			<path fill="#FFFFFF" d="M22.3,12.3c-0.4,0.1-0.7,0.2-1.1,0.4c-0.7-1.4-1.5-2.8-2.2-4.2c-0.1-0.2-0.3-0.3-0.6-0.4
				c-0.3,0-0.6,0-0.9,0.2c-0.1,0.1-0.3,0.2-0.4,0.3c-0.2-0.3-0.4-0.6-0.6-1c0.2-0.2,0.5-0.3,0.7-0.4c0.6-0.3,1.1-0.4,1.6-0.3
				C19.4,7,19.7,7.3,20,7.8C20.8,9.2,21.6,10.7,22.3,12.3z"/>
			<path fill="#FFFFFF" d="M26.5,8.9c0.7,1.5,0.3,2.4-1.3,2.7c-1.5,0.3-2.7-0.2-3.5-1.8c0.4-0.1,0.8-0.3,1.1-0.4
				c0.4,0.9,1.1,1.2,1.9,1.1c0.8-0.2,1.1-0.6,0.7-1.3c-0.2-0.5-0.7-0.8-1.5-0.6c-0.9,0.1-1.5,0.2-1.8,0.1c-0.6-0.1-1.1-0.4-1.4-1
				c-0.3-0.5-0.3-1,0-1.5C21,5.6,21.4,5.3,22,5.1c0.6-0.2,1.2-0.2,1.8,0c0.6,0.2,1.2,0.7,1.5,1.4c-0.4,0.1-0.7,0.2-1.1,0.3
				c-0.2-0.3-0.4-0.5-0.8-0.6c-0.3-0.1-0.6-0.1-0.9,0c-0.3,0.1-0.5,0.2-0.6,0.4c-0.2,0.2-0.2,0.4-0.1,0.6c0.1,0.2,0.3,0.3,0.7,0.3
				c0.2,0,0.5-0.1,1-0.1c0.7-0.1,1.2-0.1,1.6,0.1C25.7,7.6,26.1,8.1,26.5,8.9z"/>
		</g>
	</g>
</g>
</svg>
