<!-- Generator: Adobe Illustrator 18.0.0, SVG Export Plug-In  -->
<svg version="1.1"
	 xmlns="http://www.w3.org/2000/svg" xmlns:xlink="http://www.w3.org/1999/xlink" xmlns:a="http://ns.adobe.com/AdobeSVGViewerExtensions/3.0/"
	 x="0px" y="0px" width="129px" height="60.5px" viewBox="0 0 129 60.5" enable-background="new 0 0 129 60.5" xml:space="preserve"
	>
<defs>
</defs>
<path fill="#8CC540" d="M110.6,39c-3.1,0-6-0.9-8.5-2.6c-2.8-1.8-2.7-4.1,0-6.1c5.2-3.8,19.4-3.9,24.8-0.2c2.9,2,3,4.5,0,6.4
	c-2.4,1.5-5.2,2.4-8.1,2.4C116,38.5,113.3,38.5,110.6,39z"/>
<path fill="#8CC540" d="M10.3,39c-3,0-5.7-0.9-8.1-2.5c-2.8-1.8-2.9-4.2-0.3-6.2c5.2-3.9,20.4-3.8,25.3,0.2c2.5,2,2.4,4.1-0.2,5.9
	c-2.6,1.7-5.4,2.6-8.6,2.6C15.7,38.5,13,38.5,10.3,39z"/>
<path d="M66.7,60.5C56.2,59.8,47,57,40.4,48.5c-1.8-2.3-3.2-4.8-0.2-7.1c3-2.3,4.8-0.3,6.7,2.1c9.4,12.1,31,11.4,39.8-1.2
	c1.7-2.5,3.6-4,6.3-2.2c2.8,1.8,2.1,4.4,0.5,6.8C87,56.6,77.3,59.6,66.7,60.5z"/>
<path d="M105.9,12.2c0,5.5-4.2,9.9-9.6,9.9c-5.5,0.1-9.8-4.2-9.8-9.8c0-5.6,4.2-9.9,9.6-10C101.5,2.3,105.9,6.6,105.9,12.2z"/>
<g>
	<path d="M34.5,4.7V0l14.2,10.9v2.6L34.5,24.4v-4.7l9.8-7.5L34.5,4.7z"/>
</g>
</svg>
