<!-- Generator: Adobe Illustrator 18.0.0, SVG Export Plug-In  -->
<svg version="1.1"
	 xmlns="http://www.w3.org/2000/svg" xmlns:xlink="http://www.w3.org/1999/xlink" xmlns:a="http://ns.adobe.com/AdobeSVGViewerExtensions/3.0/"
	 x="0px" y="0px" width="31.7px" height="31.7px" viewBox="0 0 31.7 31.7" enable-background="new 0 0 31.7 31.7"
	 xml:space="preserve">
<defs>
</defs>
<g>
	<g>
		<g>
			
				<radialGradient id="SVGID_1_" cx="57.2944" cy="0.2935" r="13.5686" gradientTransform="matrix(1.1667 0 0 1.1667 -51.0149 15.4881)" gradientUnits="userSpaceOnUse">
				<stop  offset="0.25" style="stop-color:#E5DEDB"/>
				<stop  offset="0.6386" style="stop-color:#E3DCD9"/>
				<stop  offset="0.7786" style="stop-color:#DDD6D3"/>
				<stop  offset="0.878" style="stop-color:#D2CBC9"/>
				<stop  offset="0.9239" style="stop-color:#CAC4C2"/>
				<stop  offset="1" style="stop-color:#E5E1DC"/>
			</radialGradient>
			<circle fill="url(#SVGID_1_)" cx="15.8" cy="15.8" r="15.8"/>
			<linearGradient id="SVGID_2_" gradientUnits="userSpaceOnUse" x1="15.8305" y1="25.3989" x2="15.8305" y2="0.5612">
				<stop  offset="0" style="stop-color:#E5DEDB"/>
				<stop  offset="1" style="stop-color:#E5E1DC"/>
			</linearGradient>
			<ellipse fill="url(#SVGID_2_)" cx="15.8" cy="13" rx="13.5" ry="12.4"/>
			<linearGradient id="SVGID_3_" gradientUnits="userSpaceOnUse" x1="15.8304" y1="14.3053" x2="15.8304" y2="1.5003">
				<stop  offset="5.076140e-03" style="stop-color:#E5E1DC"/>
				<stop  offset="1" style="stop-color:#FFFAF6"/>
			</linearGradient>
			<path fill="url(#SVGID_3_)" d="M26.5,9.6c0-4.5-4.8-8.1-10.7-8.1C9.9,1.5,5.1,5.1,5.1,9.6c0,4.5,4.8,4.7,10.7,4.7
				C21.7,14.3,26.5,14.1,26.5,9.6z"/>
		</g>
	</g>
	<g>
		<g>
			<path d="M5.6,15.1c0-1.1,0-2.3,0-3.4c0-0.1,0-0.1-0.1-0.2c0,0-0.1,0-0.2,0c0,0-0.1,0-0.1,0.1c-0.1,0.1-0.1,0.2-0.1,0.3
				c0,1.1,0,2.2,0,3.3c-0.4,0-0.9,0-1.3,0.1c0-1.4,0-2.7,0-4.1c0.4-0.2,0.8-0.5,1.3-0.7c0,0.1,0,0.3,0,0.4c0-0.1,0.1-0.1,0.1-0.2
				c0.1-0.1,0.1-0.2,0.2-0.2c0.1-0.1,0.2-0.1,0.2-0.2c0,0,0.1-0.1,0.1-0.1c0,0,0.1,0,0.1-0.1c0.2-0.1,0.3-0.1,0.5-0.1
				c0.1,0,0.2,0.1,0.3,0.2C6.9,10.2,7,10.6,7,11.2c0,1.3,0,2.6,0,3.8C6.5,15,6.1,15.1,5.6,15.1z"/>
			<path d="M5.6,7.9c0-0.4,0-0.7,0-1.1C6.1,6.6,6.5,6.2,7,6c0,0.4,0,0.8,0,1.2C6.5,7.4,6.1,7.6,5.6,7.9z"/>
			<path d="M9.3,15c-0.6,0-1.3,0-1.9,0c0-1.2,0-2.5,0-3.7C8,11.2,8.6,11,9.2,10.9c0,0.5,0,1.1,0,1.6c-0.1,0-0.3,0-0.4,0
				c0,0.3,0,0.5,0,0.8c0,0,0.1,0,0.1,0c0.4,0,0.6-0.5,0.6-1.4c0-0.5-0.1-0.9-0.2-1.1c-0.1-0.3-0.4-0.4-0.8-0.3
				c-0.4,0.1-0.8,0.2-1.1,0.3c0-0.5,0-1,0-1.5C7.9,9.2,8.5,9,9,8.9c0.7-0.2,1.2,0,1.6,0.6c0.3,0.5,0.4,1.3,0.4,2.2
				C11,13.9,10.4,15,9.3,15z"/>
			<path d="M14.9,12.8c-0.1,0.4-0.2,0.8-0.4,1.1c-0.2,0.3-0.4,0.5-0.6,0.7c-0.2,0.2-0.5,0.2-0.8,0.3c-0.6,0-1.1,0-1.7,0
				c-0.1-1.4-0.1-2.9-0.2-4.3c0.5-0.1,1.1-0.1,1.6-0.2c0,0.9,0.1,1.7,0.1,2.6c0.1-0.1,0.2-0.3,0.3-0.5c0.1-0.3,0.1-0.6,0.1-1
				c0-0.6-0.1-1-0.2-1.2c-0.1-0.3-0.4-0.4-0.8-0.4c-0.1,0-0.3,0-0.4,0c0-0.6,0-1.2,0-1.8c0.3-0.1,0.7-0.1,1-0.1
				c0.7-0.1,1.2,0.2,1.5,0.8c0.3,0.6,0.5,1.4,0.5,2.4C15,11.9,15,12.4,14.9,12.8z"/>
			<path d="M15.4,14.9c0-2.3,0-4.7,0-7c0.5,0,1.1,0,1.6,0c0,2.3,0,4.7,0,7C16.4,14.9,15.9,14.9,15.4,14.9z"/>
			<path d="M19.5,14.9c0-1.6,0-3.1,0-4.7c0-0.1,0-0.2-0.1-0.3c0,0-0.1-0.1-0.2-0.1c0,0-0.1,0-0.1,0C19,9.9,19,10,19,10.2
				c0,1.6,0,3.2,0,4.7c-0.5,0-1,0-1.6,0c0-2.3,0-4.7,0-7C18,7.9,18.5,8,19,8c0,0.2,0,0.4,0,0.6c0-0.1,0.1-0.1,0.1-0.2
				c0.1-0.1,0.1-0.1,0.2-0.2c0.1,0,0.2-0.1,0.3-0.1c0.1,0,0.1,0,0.1,0c0,0,0.1,0,0.1,0c0.2,0,0.4,0.1,0.5,0.2
				c0.2,0.1,0.3,0.3,0.4,0.5c0.2,0.4,0.3,0.9,0.3,1.6c0,1.5,0,3.1,0,4.6C20.6,14.9,20.1,14.9,19.5,14.9z"/>
			<path d="M17.4,7.2c0-0.4,0-0.8,0-1.2c0.7,0,1.4,0.1,2.1,0.2c0-0.3,0-0.5,0-0.8c0.5,0.1,1,0.2,1.5,0.3c0,0.6,0,1.3,0,1.9
				C19.9,7.4,18.7,7.3,17.4,7.2z"/>
			<path d="M19.6,5.1c0-0.5,0-1,0-1.5c0.5,0.1,1,0.2,1.5,0.4c0,0.5,0,0.9,0,1.4C20.6,5.3,20.1,5.2,19.6,5.1z"/>
			<path d="M23,15c-0.3,0-0.5,0-0.7-0.1c-0.2-0.1-0.4-0.2-0.5-0.4c-0.3-0.4-0.4-0.9-0.4-1.5c0-0.3,0.1-0.6,0.2-0.9
				c0-0.1,0-0.1,0.1-0.1c0,0,0.1-0.1,0.1-0.2c0,0,0.1-0.1,0.1-0.1c0,0,0.1-0.1,0.1-0.1c-0.1-0.1-0.2-0.2-0.2-0.3
				c-0.1-0.1-0.1-0.2-0.2-0.3c-0.1-0.3-0.2-0.5-0.2-0.9c0-0.2,0-0.5,0.1-0.7c0.1-0.2,0.2-0.4,0.3-0.5c0.1-0.1,0.3-0.2,0.4-0.3
				c0.2,0,0.3-0.1,0.5,0c0.2,0.1,0.4,0.1,0.6,0.2c0,0.5,0,1,0,1.6c-0.1,0-0.1,0-0.2,0c-0.2,0-0.3,0-0.3,0.2c0,0.2,0.1,0.4,0.4,0.4
				c0.1,0,0.2,0,0.3,0c0-0.7,0-1.4,0-2.1c0.5,0.1,1,0.3,1.4,0.5c0,1.9,0,3.7,0,5.6C24.4,15,23.7,15,23,15z M23.6,12.5
				c-0.1,0-0.2,0-0.3,0c-0.1,0-0.1,0-0.2,0c-0.1,0-0.1,0-0.1,0.1c-0.1,0.1-0.1,0.2-0.1,0.3c0,0.1,0,0.3,0.1,0.4c0,0,0.1,0.1,0.1,0.1
				c0.1,0,0.1,0,0.2,0c0.1,0,0.2,0,0.3,0C23.6,13.1,23.6,12.8,23.6,12.5z"/>
			<path d="M28,13.8c-0.1,0.2-0.1,0.5-0.3,0.7c-0.3,0.4-0.7,0.6-1.2,0.6c-0.4,0-0.8,0-1.2,0c0-0.5,0-1,0-1.4c0.3,0,0.5,0.1,0.8,0.1
				c0.3,0,0.4,0,0.5-0.2c0.1-0.2,0.2-0.4,0.2-0.8c0-0.4-0.1-0.7-0.2-1c-0.1-0.3-0.4-0.4-0.7-0.5c-0.2-0.1-0.4-0.1-0.6-0.2
				c0-0.5,0-1,0-1.4c0.4,0.2,0.8,0.3,1.1,0.5c0.5,0.3,1,0.7,1.3,1.3c0.3,0.5,0.4,1.1,0.4,1.7C28.1,13.3,28.1,13.5,28,13.8z"/>
			<path d="M13.9,20.8c0,0.1-0.1,0.2-0.2,0.3c-0.1,0.1-0.1,0.2-0.2,0.2c0.3,0.4,0.4,1,0.4,1.8c0,1.5,0,2.9,0,4.4
				c-0.5-0.1-1-0.2-1.6-0.3c0-0.9,0-1.8,0-2.8c0,0-0.1,0-0.1,0c-0.1,0-0.2,0-0.2,0c-0.1,0-0.1,0-0.2,0.1c-0.1,0.1-0.2,0.2-0.2,0.4
				c0,0.3,0.1,0.4,0.3,0.5c0.1,0,0.1,0,0.2,0c0,0.6,0,1.2,0,1.8c-0.2,0-0.4-0.1-0.6-0.2c-0.5-0.1-0.9-0.5-1.1-1
				c-0.2-0.4-0.3-1-0.3-1.6c0-0.8,0.2-1.3,0.6-1.6c0.2-0.1,0.4-0.2,0.6-0.2c0.2,0,0.5,0,0.8,0c0.1,0,0.1,0,0.2,0
				c0-0.2-0.1-0.3-0.3-0.4c-0.1-0.1-0.4-0.2-0.6-0.2c-0.4-0.1-0.7-0.1-1.1-0.2c0-0.6,0-1.1,0-1.7c0.5,0.1,1,0.1,1.5,0.2
				c0.1,0,0.2,0,0.3,0.1c0-0.1,0-0.2,0-0.3c0-0.1,0-0.1,0-0.1c0,0,0-0.1,0-0.1C12.8,20,13.4,20,14,20C14,20.3,14,20.6,13.9,20.8z"/>
			<path d="M15.4,27.6c0-1.3,0-2.6,0-3.9c0-0.4-0.1-0.7-0.2-0.9c-0.1-0.2-0.3-0.3-0.6-0.3c-0.2,0-0.3,0-0.5,0c0-0.6,0-1.3,0-1.9
				c0.3,0,0.6,0,0.8,0c0.4,0,0.7,0.1,0.9,0.2c0.3,0.1,0.5,0.3,0.6,0.5c0.2,0.2,0.3,0.5,0.3,0.8c0.1,0.3,0.1,0.7,0.1,1.2
				c0,1.5,0,2.9,0,4.4C16.5,27.6,15.9,27.6,15.4,27.6z"/>
			<path d="M20.6,26c-0.1,0.2-0.2,0.5-0.3,0.7c-0.1,0.2-0.3,0.4-0.5,0.5c-0.2,0.1-0.4,0.2-0.6,0.3c-0.6,0.1-1.2,0.2-1.8,0.2
				c0-0.6,0-1.2,0-1.8c0.4,0,0.8-0.1,1.2-0.1c0.1,0,0.1,0,0.2,0c0.2,0,0.3-0.1,0.3-0.1c0-0.2-0.1-0.4-0.3-0.6
				c-0.2-0.1-0.3-0.3-0.5-0.4c-0.1-0.1-0.3-0.3-0.4-0.4c-0.1-0.1-0.2-0.3-0.3-0.4c0-0.1-0.1-0.2-0.1-0.3c0-0.1-0.1-0.2-0.1-0.3
				c0-0.1-0.1-0.2-0.1-0.3c0-0.1,0-0.2,0-0.3c0-0.6,0.1-1,0.4-1.4c0.3-0.4,0.7-0.6,1.3-0.6c0.6,0,1.1-0.1,1.7-0.1c0,0.6,0,1.2,0,1.8
				c-0.4,0.1-0.8,0.1-1.2,0.2c0,0-0.1,0-0.1,0c0,0-0.1,0-0.1,0c-0.1,0-0.1,0-0.1,0.1c0,0.1,0.2,0.3,0.7,0.7c0.2,0.1,0.3,0.3,0.4,0.4
				c0.1,0.1,0.2,0.3,0.3,0.4c0.1,0.2,0.2,0.4,0.2,0.6c0.1,0.2,0.1,0.4,0.1,0.6C20.7,25.5,20.7,25.7,20.6,26z"/>
			<path d="M23,26.2c0-1.4,0-2.8,0-4.3c0-0.2-0.1-0.3-0.3-0.3c-0.2,0-0.3,0.2-0.3,0.4c0,0.2,0,0.4,0,0.7c0.1,0,0.2-0.1,0.3-0.1
				c0,0.6,0,1.3,0,1.9c-0.1,0-0.2,0.1-0.3,0.1c0,0.6,0,1.1,0,1.7c-0.5,0.2-1,0.4-1.5,0.5c0-1.5,0-3.1,0-4.6c0-0.6,0.2-1.1,0.5-1.6
				c0.4-0.4,0.8-0.7,1.3-0.8c0.5-0.1,0.9,0,1.2,0.3c0.3,0.3,0.5,0.7,0.5,1.2c0,1.3,0,2.7,0,4C24,25.8,23.5,26,23,26.2z"/>
			<path d="M26.7,24.1c0-1.2,0-2.4,0-3.6c0,0-0.1,0-0.1,0c-0.1,0.1-0.3,0.2-0.4,0.5c-0.1,0.3-0.2,0.6-0.1,1.1c0,0.8,0.1,1.1,0.2,1.1
				c0,0,0.1,0,0.1-0.1c0,0.4,0,0.9,0,1.3c-0.1,0.1-0.3,0.2-0.4,0.3c-0.5,0.3-0.8,0.3-1.1-0.1c-0.2-0.3-0.3-1-0.3-1.9
				c0-0.9,0.1-1.6,0.4-2.2c0.3-0.7,0.7-1,1.3-1.2c0.6-0.2,1.1-0.3,1.6-0.5c0,1.4,0,2.9,0,4.3C27.6,23.4,27.2,23.7,26.7,24.1z"/>
			<path d="M24.9,19.1c0-0.3,0-0.7,0-1c0.6-0.1,1.2-0.2,1.8-0.3c0-0.2,0-0.4,0-0.6c0.4-0.1,0.9-0.1,1.3-0.2c0,0.4,0,0.8,0,1.2
				C27.1,18.5,26,18.8,24.9,19.1z"/>
		</g>
	</g>
</g>
</svg>
