<!-- Generator: Adobe Illustrator 18.0.0, SVG Export Plug-In  -->
<svg version="1.1"
	 xmlns="http://www.w3.org/2000/svg" xmlns:xlink="http://www.w3.org/1999/xlink" xmlns:a="http://ns.adobe.com/AdobeSVGViewerExtensions/3.0/"
	 x="0px" y="0px" width="31.8px" height="31.8px" viewBox="0 0 31.8 31.8" enable-background="new 0 0 31.8 31.8"
	 xml:space="preserve">
<defs>
</defs>
<g>
	<g>
		<g>
			<g>
				<g>
					
						<radialGradient id="SVGID_1_" cx="41.1628" cy="0.3687" r="13.6329" gradientTransform="matrix(1.1667 0 0 1.1667 -32.1192 15.4753)" gradientUnits="userSpaceOnUse">
						<stop  offset="0.25" style="stop-color:#D32627"/>
						<stop  offset="0.6201" style="stop-color:#D42727"/>
						<stop  offset="0.7533" style="stop-color:#D92A29"/>
						<stop  offset="0.848" style="stop-color:#E02F2E"/>
						<stop  offset="0.9239" style="stop-color:#EF3735"/>
						<stop  offset="1" style="stop-color:#EF4343"/>
					</radialGradient>
					<circle fill="url(#SVGID_1_)" cx="15.9" cy="15.9" r="15.9"/>
					<linearGradient id="SVGID_2_" gradientUnits="userSpaceOnUse" x1="15.9055" y1="25.5193" x2="15.9055" y2="0.5637">
						<stop  offset="0" style="stop-color:#D32327"/>
						<stop  offset="1" style="stop-color:#EE7878"/>
					</linearGradient>
					<ellipse fill="url(#SVGID_2_)" cx="15.9" cy="13" rx="13.5" ry="12.5"/>
					<linearGradient id="SVGID_3_" gradientUnits="userSpaceOnUse" x1="15.9055" y1="14.3732" x2="15.9055" y2="1.5073">
						<stop  offset="5.076140e-03" style="stop-color:#E44745"/>
						<stop  offset="1" style="stop-color:#FBEDED"/>
					</linearGradient>
					<path fill="url(#SVGID_3_)" d="M26.6,9.6c0-4.5-4.8-8.1-10.7-8.1C10,1.5,5.2,5.1,5.2,9.6c0,4.5,4.8,4.7,10.7,4.7
						C21.8,14.4,26.6,14.1,26.6,9.6z"/>
				</g>
			</g>
		</g>
	</g>
	<g>
		<g>
			<path fill="#FFFFFF" d="M11.5,13.9c-0.8,0.1-1.5,0.2-2.3,0.3c-0.4-0.2-0.9-0.4-1.3-0.6c-0.2-1.1-0.3-2.2-0.5-3.3
				C7.6,10,7.8,9.8,8,9.5C7.6,9.6,7.3,9.7,6.9,9.7C6.8,9.4,6.8,9,6.7,8.7c0.2,0,0.4-0.1,0.6-0.1c0.2,0.1,0.4,0.2,0.5,0.3
				C8,8.7,8.1,8.5,8.3,8.4c0.2,0,0.5-0.1,0.7-0.1C9,8.6,9,9,9.1,9.4c0.6-0.1,1.2-0.2,1.7-0.2c0-0.4,0-0.7-0.1-1.1
				C11.4,8,12,7.9,12.6,7.9c0,0.3,0,0.7,0,1c-0.3,0.2-0.7,0.5-1,0.7c0.3,0.2,0.7,0.4,1,0.5c0,0.9,0,1.9,0,2.8
				C12.2,13.2,11.8,13.5,11.5,13.9z M10.9,10.1c-0.6,0.1-1.1,0.1-1.7,0.2c0.1,0.9,0.2,1.9,0.3,2.8c0.5-0.1,1-0.1,1.6-0.2
				C11,12,10.9,11.1,10.9,10.1z"/>
			<path fill="#FFFFFF" d="M7.1,8.1c0-0.1,0-0.2,0-0.4c0.2-0.2,0.4-0.4,0.7-0.6c1-0.2,2-0.3,3-0.4c0-0.1,0-0.3,0-0.4
				c0.6-0.1,1.3-0.1,1.9-0.2c0,0.4,0,0.8,0,1.2C10.8,7.6,9,7.8,7.1,8.1z"/>
			<path fill="#FFFFFF" d="M17.1,13.8c-0.7-0.1-1.5-0.1-2.3-0.1c-0.4-0.3-0.8-0.6-1.2-0.8c0-0.3,0-0.5,0-0.8c0.5,0,1.1,0,1.6,0
				c0,0.2,0,0.5,0,0.7c0.5,0,1,0,1.6,0.1c0-0.4,0.1-0.8,0.1-1.2c-1-0.5-2.1-0.9-3.3-1.3c0-0.6,0-1.1,0-1.7c0.5-0.3,0.9-0.6,1.4-0.9
				c0.9,0,1.8,0,2.6,0.1c0.4,0.3,0.8,0.6,1.2,1c0,0.2-0.1,0.5-0.1,0.7c-0.6-0.1-1.2-0.1-1.7-0.1c0-0.2,0-0.4,0.1-0.6
				c-0.6,0-1.2-0.1-1.7-0.1c0,0.3,0,0.6-0.1,0.9c1.1,0.4,2.2,0.9,3.2,1.5c-0.1,0.6-0.2,1.2-0.3,1.9C18,13.3,17.5,13.6,17.1,13.8z"/>
			<path fill="#FFFFFF" d="M13.8,7.4c0-0.1,0-0.2,0-0.4c0.2-0.2,0.5-0.3,0.7-0.5c1,0,2,0,3,0.1c0-0.1,0-0.3,0.1-0.4
				c0.6,0,1.3,0.1,1.9,0.2c-0.1,0.4-0.1,0.8-0.2,1.2C17.5,7.4,15.6,7.4,13.8,7.4z"/>
			<path fill="#FFFFFF" d="M22.7,14.7c-0.7-0.2-1.5-0.3-2.2-0.5c-0.3-0.3-0.7-0.7-1-1c0.1-0.6,0.2-1.2,0.3-1.8
				c0.3-0.2,0.7-0.3,1-0.5c-0.3-0.3-0.5-0.5-0.8-0.8c0.1-0.4,0.2-0.9,0.3-1.3c0.4-0.2,0.8-0.3,1.2-0.5c0.5,0.1,1,0.2,1.4,0.3
				c-0.1,0.3-0.2,0.6-0.2,0.9c-0.2-0.1-0.5-0.1-0.7-0.1c-0.1,0.4-0.2,0.8-0.3,1.1c0.6,0.1,1.1,0.2,1.7,0.3c0.2-0.7,0.4-1.4,0.6-2.1
				c0.6,0.1,1.2,0.3,1.8,0.4c-0.5,1.6-1.1,3.2-1.6,4.9C23.6,14.3,23.1,14.5,22.7,14.7z M23,11.9c-0.5-0.1-1.1-0.2-1.6-0.3
				c-0.1,0.6-0.3,1.2-0.4,1.8c0.5,0.1,1,0.2,1.5,0.3C22.7,13.1,22.9,12.5,23,11.9z"/>
			<path fill="#FFFFFF" d="M25.4,7c0,0.1-0.1,0.3-0.1,0.4c-0.5-0.1-1.1-0.3-1.7-0.4c0.1-0.2,0.1-0.4,0.2-0.5
				c0.4-0.1,0.8-0.2,1.3-0.3c0.6,0.1,1.1,0.3,1.7,0.4c-0.1,0.2-0.2,0.4-0.2,0.6C26.2,7.2,25.8,7.1,25.4,7z"/>
			<path fill="#FFFFFF" d="M7.4,23.1c-0.3-0.2-0.5-0.3-0.8-0.5c-0.5-1.6-1-3.3-1.4-4.9c0.5-0.1,0.9-0.3,1.4-0.4
				c0.4,1.6,0.7,3.1,1.1,4.7C7.9,22,8.1,22,8.3,21.9c0.1,0.3,0.1,0.6,0.2,0.9C8.1,22.9,7.7,23,7.4,23.1z"/>
			<path fill="#FFFFFF" d="M11.5,22.4c-0.2-1.6-0.3-3.2-0.5-4.9c-0.5,0.1-0.9,0.1-1.4,0.2c0.2,1.6,0.5,3.2,0.7,4.8
				c-0.4,0.1-0.8,0.1-1.2,0.2c-0.2-1.1-0.5-2.3-0.7-3.4c0.2-0.3,0.4-0.6,0.7-0.9c-0.3,0-0.5,0.1-0.8,0.1c0-0.3-0.1-0.5-0.1-0.8
				c0.3-0.3,0.6-0.7,0.9-1c0.7-0.1,1.4-0.2,2.1-0.3c0.4,0.2,0.8,0.5,1.1,0.7c0.1,1.7,0.2,3.3,0.3,5C12.3,22.3,11.9,22.3,11.5,22.4z"
				/>
			<path fill="#FFFFFF" d="M14.5,22.2c0-1.6,0-3.3,0.1-4.9c-0.5,0-1,0-1.5,0c0-0.3,0-0.6,0-1c0.6,0,1.3,0,1.9,0
				c0.4,0.3,0.7,0.5,1,0.8c-0.1,1.7-0.2,3.4-0.3,5.1C15.3,22.3,14.9,22.3,14.5,22.2z"/>
			<path fill="#FFFFFF" d="M18.8,22.7c0.2-1.2,0.4-2.4,0.6-3.6c-0.4-0.1-0.9-0.1-1.3-0.2c-0.2,1.2-0.3,2.4-0.5,3.7
				c-0.4-0.1-0.8-0.1-1.2-0.1c0.2-2,0.3-3.9,0.5-5.9c0.5,0,0.9,0.1,1.4,0.1c-0.1,0.4-0.1,0.8-0.2,1.2c0.4,0.1,0.9,0.1,1.3,0.2
				c0.1-0.4,0.1-0.8,0.2-1.2c0.5,0.1,0.9,0.2,1.4,0.3c-0.1,0.4-0.2,0.7-0.3,1.1c-0.3,0.1-0.6,0.3-0.9,0.5c0.2,0.3,0.4,0.5,0.6,0.8
				c-0.3,1.2-0.5,2.3-0.8,3.5C19.5,22.8,19.1,22.7,18.8,22.7z"/>
			<path fill="#FFFFFF" d="M22.9,23.8c0.3-0.8,0.6-1.7,0.9-2.5c-0.4-0.2-0.8-0.3-1.3-0.4c-0.2,0.5-0.3,1.1-0.5,1.6
				c0.2,0.1,0.3,0.1,0.5,0.2c-0.1,0.3-0.2,0.6-0.3,0.9c-0.3-0.1-0.6-0.2-0.9-0.3c-0.2-0.3-0.3-0.6-0.5-0.9c0.2-0.7,0.4-1.4,0.5-2.1
				c0.3-0.2,0.7-0.4,1-0.5c0.6,0.2,1.2,0.4,1.8,0.6c0.2-0.4,0.3-0.8,0.5-1.3c-0.5-0.2-0.9-0.3-1.4-0.5c-0.1,0.2-0.1,0.4-0.2,0.6
				c-0.4-0.1-0.9-0.3-1.3-0.4c0.1-0.2,0.1-0.5,0.2-0.7c0.4-0.2,0.8-0.4,1.3-0.5c0.7,0.2,1.4,0.4,2.1,0.7c0.2,0.4,0.5,0.8,0.7,1.2
				c-0.7,1.6-1.3,3.2-1.9,4.8C23.6,24.1,23.3,23.9,22.9,23.8z"/>
			<path fill="#FFFFFF" d="M22.4,16.9c0-0.1,0.1-0.2,0.1-0.4c0.2-0.1,0.5-0.2,0.7-0.3c0.8,0.2,1.5,0.4,2.3,0.7
				c0.1-0.1,0.1-0.3,0.2-0.4c0.5,0.2,0.9,0.3,1.4,0.5c-0.2,0.4-0.3,0.8-0.5,1.2C25.1,17.7,23.8,17.3,22.4,16.9z"/>
		</g>
	</g>
</g>
</svg>
