<!-- Generator: Adobe Illustrator 18.0.0, SVG Export Plug-In  -->
<svg version="1.1"
	 xmlns="http://www.w3.org/2000/svg" xmlns:xlink="http://www.w3.org/1999/xlink" xmlns:a="http://ns.adobe.com/AdobeSVGViewerExtensions/3.0/"
	 x="0px" y="0px" width="34.2px" height="31.7px" viewBox="0 0 34.2 31.7" enable-background="new 0 0 34.2 31.7"
	 xml:space="preserve">
<defs>
</defs>
<g>
	<g>
		
			<radialGradient id="SVGID_1_" cx="59.3733" cy="42.4476" r="13.5928" gradientTransform="matrix(1.0645 -0.4776 0.4776 1.0645 -66.2458 -0.9666)" gradientUnits="userSpaceOnUse">
			<stop  offset="0.25" style="stop-color:#E5DEDB"/>
			<stop  offset="0.6386" style="stop-color:#E3DCD9"/>
			<stop  offset="0.7786" style="stop-color:#DDD6D3"/>
			<stop  offset="0.878" style="stop-color:#D2CBC9"/>
			<stop  offset="0.9239" style="stop-color:#CAC4C2"/>
			<stop  offset="1" style="stop-color:#E5E1DC"/>
		</radialGradient>
		<circle fill="url(#SVGID_1_)" cx="17.2" cy="15.9" r="15.9"/>
		
			<linearGradient id="SVGID_2_" gradientUnits="userSpaceOnUse" x1="49.6858" y1="68.03" x2="49.6858" y2="43.1479" gradientTransform="matrix(0.9124 -0.4093 0.4093 0.9124 -52.0284 -17.1228)">
			<stop  offset="0" style="stop-color:#E5DEDB"/>
			<stop  offset="1" style="stop-color:#E5E1DC"/>
		</linearGradient>
		<path fill="url(#SVGID_2_)" d="M28.4,7.7C25.6,1.5,17.8-1.1,11,1.9s-10,10.6-7.2,16.9c2.8,6.3,10.6,8.9,17.4,5.8S31.2,14,28.4,7.7
			z"/>
		
			<linearGradient id="SVGID_3_" gradientUnits="userSpaceOnUse" x1="49.6859" y1="56.9165" x2="49.6859" y2="44.0887" gradientTransform="matrix(0.9124 -0.4093 0.4093 0.9124 -52.0284 -17.1228)">
			<stop  offset="5.076140e-03" style="stop-color:#E5E1DC"/>
			<stop  offset="1" style="stop-color:#FFFAF6"/>
		</linearGradient>
		<path fill="url(#SVGID_3_)" d="M24.4,5.8c-1.8-4.1-7.7-5.4-13.1-3C6,5.2,3.1,10.5,4.9,14.5c1.8,4.1,6.3,2.4,11.7-0.1
			C22,12,26.3,9.9,24.4,5.8z"/>
	</g>
	<g>
		<defs>
			<path id="SVGID_4_" d="M1.5,21.8c0-0.3,0.1-0.5,0.2-0.8c1.4-3.7,8-4.7,14.7-2.1c6.7,2.5,11,7.6,9.6,11.4
				c-0.1,0.3-0.2,0.5-0.4,0.7c3.6-1.4,6.4-4.1,7.7-7.6c2.9-7.6-2.1-16.5-11-19.9C13.3,0,3.7,3.4,0.8,11C-0.5,14.5-0.2,18.4,1.5,21.8
				z"/>
		</defs>
		<clipPath id="SVGID_5_">
			<use xlink:href="#SVGID_4_"  overflow="visible"/>
		</clipPath>
		<g clip-path="url(#SVGID_5_)">
			<g>
				<g>
					<g>
						
							<radialGradient id="SVGID_6_" cx="59.3734" cy="42.4478" r="13.5928" gradientTransform="matrix(1.0645 -0.4776 0.4776 1.0645 -66.246 -0.9669)" gradientUnits="userSpaceOnUse">
							<stop  offset="0.25" style="stop-color:#174D26"/>
							<stop  offset="0.5795" style="stop-color:#174E26"/>
							<stop  offset="0.6981" style="stop-color:#195229"/>
							<stop  offset="0.7827" style="stop-color:#1B592C"/>
							<stop  offset="0.8511" style="stop-color:#1F6232"/>
							<stop  offset="0.909" style="stop-color:#226F38"/>
							<stop  offset="0.9239" style="stop-color:#23733A"/>
							<stop  offset="1" style="stop-color:#32804D"/>
						</radialGradient>
						<circle fill="url(#SVGID_6_)" cx="17.2" cy="15.9" r="15.9"/>
						
							<linearGradient id="SVGID_7_" gradientUnits="userSpaceOnUse" x1="49.6858" y1="68.03" x2="49.6858" y2="43.1479" gradientTransform="matrix(0.9124 -0.4093 0.4093 0.9124 -52.0284 -17.1228)">
							<stop  offset="0" style="stop-color:#174D26"/>
							<stop  offset="1" style="stop-color:#4DA657"/>
						</linearGradient>
						<path fill="url(#SVGID_7_)" d="M28.4,7.7C25.6,1.5,17.8-1.1,11,1.9s-10,10.6-7.2,16.9c2.8,6.3,10.6,8.9,17.4,5.8
							S31.2,14,28.4,7.7z"/>
						
							<linearGradient id="SVGID_8_" gradientUnits="userSpaceOnUse" x1="49.6859" y1="56.9165" x2="49.6859" y2="44.0887" gradientTransform="matrix(0.9124 -0.4093 0.4093 0.9124 -52.0284 -17.1228)">
							<stop  offset="5.076140e-03" style="stop-color:#23733A"/>
							<stop  offset="1" style="stop-color:#DDEDE1"/>
						</linearGradient>
						<path fill="url(#SVGID_8_)" d="M24.4,5.8c-1.8-4.1-7.7-5.4-13.1-3C6,5.2,3.1,10.5,4.9,14.5c1.8,4.1,6.3,2.4,11.7-0.1
							C22,12,26.3,9.9,24.4,5.8z"/>
					</g>
				</g>
			</g>
		</g>
	</g>
	<g>
		<g>
			<path fill="#FFFFFF" d="M4.3,11.8c0.1-0.1,0.2-0.1,0.3-0.2c0.2-0.2,0.3-0.3,0.4-0.5c0.4-1,0.9-2,1.5-2.9c0-0.1,0.1-0.1,0.3-0.2
				c0,0,0,0,0.1,0c0.1,0,0.1-0.1,0.2-0.1C6.9,7.6,6.8,7.4,6.7,7.3C6.6,7.2,6.5,7.1,6.4,7.1C6.8,7,7.2,7,7.5,7c0,0.1,0.1,0.2,0.1,0.3
				C7.8,7.2,8,7.1,8.1,7c0.3,0,0.7,0,1,0C8.9,7.2,8.6,7.3,8.3,7.5C7.8,7.9,7.5,8.1,7.4,8.2C6.8,9.1,6.3,10.1,5.9,11
				C6.4,11,7,10.9,7.5,10.9c0.4-0.7,0.8-1.5,1.3-2.2c0.1-0.2,0.1-0.4-0.1-0.5c-0.1,0-0.3-0.1-0.4-0.1c0.5-0.3,1-0.5,1.4-0.7
				C9.8,7.2,9.9,7.1,9.9,7c0.5,0,0.9,0.1,1.4,0.1C10.7,7.4,10.1,7.7,9.5,8c0,0,0.1,0,0.1,0.1c0,0,0.1,0,0.1,0.1
				c0.1,0.1,0.1,0.3,0,0.5c-0.5,0.8-1,1.5-1.4,2.3c-0.1,0.1-0.1,0.3,0,0.4c0,0,0,0,0.1,0.1c0,0,0.1,0.1,0.1,0.1
				C7.1,11.4,5.7,11.6,4.3,11.8z"/>
			<path fill="#FFFFFF" d="M12,5.7c-0.2,0.2-0.4,0.5-0.6,0.7C10,6.3,8.5,6.3,7,6.3c0.3-0.2,0.6-0.4,0.9-0.6c1,0,2,0,2.9,0.1
				C10.9,5.8,11,5.7,11,5.6c0-0.1,0-0.1,0-0.2c0.4,0,0.9,0.1,1.3,0.1C12.2,5.6,12.1,5.6,12,5.7z"/>
			<path fill="#FFFFFF" d="M9.8,11.4c-0.1,0-0.3,0-0.5,0.1c0,0-0.1,0-0.2,0.1c0.2-0.4,0.4-0.7,0.6-1.1c0,0,0,0.1,0.1,0.1
				c0,0,0,0,0.1,0.1c0.1,0.1,0.2,0.1,0.3,0.2c0.7,0,1.3,0.1,2,0.2c0.4-0.5,0.7-1.1,1.2-1.6c-0.8-0.1-1.7-0.3-2.6-0.3
				c0.3-0.5,0.7-1,1.1-1.5c0.1-0.1,0.1-0.3,0.1-0.4c0,0,0,0,0-0.1c0,0,0-0.1-0.1-0.1c1.2,0.1,2.3,0.3,3.4,0.6c0.1,0,0.3,0,0.6,0
				c0,0,0.1,0,0.2,0c-0.3,0.3-0.6,0.6-0.9,0.9c0-0.1-0.1-0.1-0.1-0.2c-0.1-0.1-0.2-0.2-0.3-0.2c-0.7-0.1-1.4-0.3-2-0.4
				c-0.2,0.3-0.5,0.6-0.7,0.9c0.9,0.1,1.7,0.3,2.6,0.4c-0.6,0.7-1.1,1.4-1.6,2c-0.1,0.1-0.1,0.3,0,0.4c0,0,0,0,0,0c0,0,0,0,0,0
				c0,0,0,0.1,0.1,0.1C11.9,11.6,10.9,11.5,9.8,11.4z"/>
			<path fill="#FFFFFF" d="M16.9,6.7c-0.2,0.2-0.4,0.4-0.7,0.6c-1.3-0.4-2.6-0.6-4-0.8c0.3-0.2,0.6-0.3,0.9-0.4
				c0.9,0.1,1.8,0.3,2.7,0.5c0.1-0.1,0.1-0.1,0.2-0.2c0-0.1,0-0.1,0-0.2c0.4,0.1,0.8,0.2,1.2,0.3C17.1,6.6,17,6.6,16.9,6.7z"/>
			<path fill="#FFFFFF" d="M13.2,11.8c0.1,0,0.2-0.1,0.3-0.1c0.2-0.1,0.4-0.2,0.4-0.3c0.3-0.4,0.6-0.8,1-1.2
				c0.2-0.1,0.5-0.1,0.7-0.2c-0.1-0.2-0.1-0.3-0.2-0.5c0.3-0.3,0.6-0.6,0.8-0.9c0.1-0.1,0.1-0.2,0.1-0.4c0,0,0-0.1,0-0.1
				c0,0,0-0.1-0.1-0.1c0.7,0.2,1.5,0.4,2.1,0.7c-0.3,0.1-0.6,0.2-0.9,0.3c-0.2-0.1-0.3-0.1-0.5-0.2c-0.3,0.3-0.6,0.6-0.9,1
				c0.2,0.1,0.4,0.1,0.7,0.2c0.1,0,0.3,0,0.5,0c0,0,0.1,0,0.2,0c-0.3,0.3-0.6,0.6-0.8,0.9c0-0.1-0.1-0.1-0.1-0.2
				c-0.1-0.1-0.2-0.2-0.2-0.2c-0.2-0.1-0.4-0.1-0.7-0.2c-0.4,0.4-0.7,0.9-1.1,1.3c0.6,0.1,1.1,0.3,1.6,0.5c0.7-0.9,1.6-1.8,2.5-2.6
				C19,9.4,19,9.3,19,9.1c0,0,0-0.1,0-0.1c0,0,0-0.1,0-0.1c0.5,0.2,1,0.4,1.5,0.7c-0.1,0-0.2,0-0.3,0c-0.2,0-0.4,0.1-0.5,0.2
				c-0.9,0.8-1.8,1.6-2.5,2.5C17,12.5,17,12.6,17,12.7c0,0,0,0.1,0,0.1c0,0,0,0.1,0,0.1C15.9,12.4,14.6,12.1,13.2,11.8z"/>
			<path fill="#FFFFFF" d="M22.1,8.2c-0.3-0.1-0.5-0.3-0.8-0.4c0,0-0.1,0.1-0.1,0.1c0,0,0,0,0,0c0,0,0,0,0,0.1c0,0,0,0,0,0.1
				c0,0,0,0.1,0,0.1c-0.3-0.1-0.6-0.3-0.9-0.4c0.2-0.2,0.5-0.4,0.7-0.5c0.6,0.3,1.2,0.6,1.8,0.9C22.5,8.1,22.3,8.2,22.1,8.2z"/>
			<path fill="#FFFFFF" d="M19.6,14c0.3-0.1,0.5-0.1,0.8-0.2c0.6,0.3,1.1,0.7,1.7,1c0.1-0.1,0.2-0.2,0.3-0.3
				c-0.7-0.5-1.3-0.9-2.1-1.3c0,0,0.1,0,0.2,0c0.1,0,0.3-0.1,0.4-0.2c0.6-0.6,1.3-1.1,2-1.6c-0.5-0.3-1-0.6-1.5-0.9
				c-0.9,0.7-1.8,1.5-2.6,2.3c0.2,0.1,0.4,0.2,0.6,0.3c-0.2,0.1-0.5,0.2-0.7,0.3c-0.4-0.2-0.9-0.4-1.3-0.6c0.1,0,0.2,0,0.3-0.1
				c0.2-0.1,0.4-0.1,0.4-0.2c0.8-0.8,1.6-1.7,2.6-2.4c0.1-0.1,0.2-0.2,0.2-0.4c0,0,0-0.1,0-0.1c0,0,0-0.1,0-0.1
				c1.3,0.6,2.5,1.3,3.6,2.1c-0.1,0-0.2,0-0.3,0c-0.2,0-0.4,0-0.5,0.1c-0.7,0.5-1.3,1-1.9,1.5c0.4,0.3,0.8,0.5,1.2,0.8
				c0.6-0.5,1.3-0.9,2-1.4c0.1-0.1,0.2-0.2,0.2-0.3c0,0,0-0.1,0-0.1c0,0,0-0.1,0-0.1c0.4,0.3,0.8,0.6,1.2,1c-0.1,0-0.2,0-0.3,0
				c-0.2,0-0.4,0-0.5,0.1c-1,0.6-1.9,1.2-2.7,1.9c-0.1,0.1-0.1,0.2-0.2,0.4c0,0,0,0,0,0c0,0,0,0,0,0.1c0,0,0,0.1,0,0.1
				C21.6,15.2,20.6,14.6,19.6,14z"/>
			<path fill="#FFFFFF" d="M27.2,12.4c-0.2,0.1-0.5,0.2-0.7,0.4c-0.9-0.8-1.8-1.5-2.9-2.2c0.3,0,0.6-0.1,0.9-0.1
				c0.7,0.5,1.3,1,1.9,1.5c0.1,0,0.1-0.1,0.2-0.1c0-0.1,0.1-0.1,0.1-0.2c0.3,0.2,0.5,0.5,0.8,0.7C27.4,12.4,27.3,12.4,27.2,12.4z"/>
			<path fill="#FFFFFF" d="M27,11.5c0.1,0,0.2,0,0.3,0c0.2-0.1,0.3-0.2,0.5-0.2c0-0.1,0.1-0.1,0.1-0.2c0.3,0.2,0.5,0.5,0.8,0.7
				c-0.1,0-0.2,0-0.3,0c-0.2,0.1-0.3,0.1-0.5,0.2c0,0.1-0.1,0.1-0.1,0.2C27.5,12,27.3,11.8,27,11.5z"/>
			<path fill="#FFFFFF" d="M22.6,16c0.1,0,0.2,0,0.3,0c0.2,0,0.3-0.1,0.4-0.1c0.8-0.6,1.7-1.2,2.7-1.8c0,0,0.1-0.1,0.1-0.1
				c0-0.1,0.1-0.1,0.1-0.2c0,0,0-0.1,0-0.1c0-0.1,0-0.1,0-0.2c0.3,0.3,0.6,0.5,0.9,0.8c-1.2,0.6-2.3,1.3-3.3,2
				c0.4,0.3,0.7,0.7,1.1,1c1.2-0.8,2.4-1.5,3.8-2.1c0.1-0.1,0.2-0.2,0.3-0.3c0,0,0-0.1,0-0.1c0,0,0-0.1,0-0.1
				c0.3,0.4,0.6,0.8,0.9,1.2c-0.1,0-0.2-0.1-0.3-0.1c-0.2-0.1-0.4-0.1-0.5,0c-1.4,0.6-2.7,1.2-3.9,2c-0.1,0.1-0.2,0.2-0.2,0.3
				c0,0,0,0.1,0,0.1c0,0,0,0.1,0,0.1C24.4,17.5,23.6,16.7,22.6,16z"/>
			<path fill="#FFFFFF" d="M23,18.6c0.1,0,0.1,0,0.2,0c0.1,0,0.2-0.1,0.3-0.1c0.1-0.1,0.2-0.2,0.3-0.2c0.1,0,0.1-0.2,0.2-0.3
				c0-0.1,0-0.2,0-0.2c0.2,0.2,0.5,0.5,0.7,0.7c-0.2,0.2-0.5,0.4-0.7,0.6c-0.1,0.1-0.1,0.2-0.2,0.3c0,0,0,0,0,0c0,0,0,0,0,0.1
				C23.5,19.1,23.2,18.8,23,18.6z"/>
			<path fill="#FFFFFF" d="M30,14.6c0.1,0,0.2,0,0.3,0c0.2-0.1,0.3-0.1,0.5-0.2c0-0.1,0.1-0.1,0.1-0.2c0.2,0.3,0.4,0.6,0.6,0.8
				c-0.1,0-0.2,0-0.3,0c-0.2,0-0.3,0.1-0.5,0.2c0,0.1-0.1,0.1-0.1,0.2C30.5,15.2,30.3,14.9,30,14.6z"/>
			<path fill="#FFFFFF" d="M26.7,20.4c0.2-0.1,0.4-0.2,0.6-0.4c-0.4-0.1-0.7-0.2-1.1-0.3c-0.3-0.4-0.6-0.8-0.9-1.2
				c0.1,0,0.2,0,0.2,0c0.2,0,0.3,0,0.4-0.1c0.9-0.5,1.8-1,2.8-1.4c0,0,0.1-0.1,0.1-0.1c0-0.1,0.1-0.1,0.1-0.2c0,0,0-0.1,0-0.1
				c0-0.1,0-0.1,0-0.2c0.2,0.3,0.5,0.6,0.7,0.9c-1.2,0.4-2.3,1-3.4,1.6c0.1,0.1,0.2,0.3,0.3,0.4c0.4,0.1,0.8,0.2,1.2,0.4
				c0.7-0.3,1.4-0.6,2.2-0.9c0.1,0,0.2-0.1,0.3-0.3c0,0,0-0.1,0-0.1c0,0,0-0.1,0-0.1c0.2,0.4,0.5,0.8,0.7,1.2
				c-0.1,0-0.1-0.1-0.2-0.1c-0.2-0.1-0.3-0.1-0.5,0c-1,0.3-1.9,0.7-2.8,1.2c-0.1,0-0.2,0.1-0.2,0.3c0,0.1-0.1,0.2-0.1,0.2
				C27.1,20.9,26.9,20.6,26.7,20.4z"/>
		</g>
	</g>
</g>
</svg>
