<!-- Generator: Adobe Illustrator 18.0.0, SVG Export Plug-In  -->
<svg version="1.1"
	 xmlns="http://www.w3.org/2000/svg" xmlns:xlink="http://www.w3.org/1999/xlink" xmlns:a="http://ns.adobe.com/AdobeSVGViewerExtensions/3.0/"
	 x="0px" y="0px" width="31.7px" height="31.7px" viewBox="0 0 31.7 31.7" enable-background="new 0 0 31.7 31.7"
	 xml:space="preserve">
<defs>
</defs>
<g>
	<g>
		<g>
			<g>
				<g>
					
						<radialGradient id="SVGID_1_" cx="84.6249" cy="-0.7521" r="13.6063" gradientTransform="matrix(1.1661 3.855367e-02 -3.855367e-02 1.1661 -82.8323 13.4892)" gradientUnits="userSpaceOnUse">
						<stop  offset="0.25" style="stop-color:#801517"/>
						<stop  offset="0.6012" style="stop-color:#811517"/>
						<stop  offset="0.7277" style="stop-color:#861719"/>
						<stop  offset="0.8178" style="stop-color:#8F191C"/>
						<stop  offset="0.8902" style="stop-color:#9C1C20"/>
						<stop  offset="0.9239" style="stop-color:#A51E22"/>
						<stop  offset="1" style="stop-color:#BE2026"/>
					</radialGradient>
					<circle fill="url(#SVGID_1_)" cx="15.9" cy="15.9" r="15.9"/>
					
						<linearGradient id="SVGID_2_" gradientUnits="userSpaceOnUse" x1="28.7263" y1="31.0643" x2="28.7263" y2="6.1576" gradientTransform="matrix(0.9995 3.304506e-02 -3.304506e-02 0.9995 -12.1265 -6.5318)">
						<stop  offset="0" style="stop-color:#801517"/>
						<stop  offset="1" style="stop-color:#D91F27"/>
					</linearGradient>
					<path fill="url(#SVGID_2_)" d="M29.5,13.5c0.2-6.9-5.6-12.6-13.1-12.9S2.7,5.7,2.5,12.6c-0.2,6.9,5.6,12.6,13.1,12.9
						C23,25.7,29.2,20.3,29.5,13.5z"/>
					
						<linearGradient id="SVGID_3_" gradientUnits="userSpaceOnUse" x1="28.7263" y1="19.9399" x2="28.7263" y2="7.0991" gradientTransform="matrix(0.9995 3.304506e-02 -3.304506e-02 0.9995 -12.1265 -6.5318)">
						<stop  offset="5.076140e-03" style="stop-color:#A51E22"/>
						<stop  offset="1" style="stop-color:#EEDCDC"/>
					</linearGradient>
					<path fill="url(#SVGID_3_)" d="M26.8,10c0.1-4.5-4.5-8.3-10.4-8.5c-5.9-0.2-10.8,3.3-11,7.8c-0.1,4.5,4.6,4.9,10.5,5.1
						C21.8,14.5,26.6,14.4,26.8,10z"/>
				</g>
			</g>
		</g>
	</g>
	<path fill="#FFFFFF" d="M13.8,11.3c-0.1,0-0.3,0.1-0.5,0.3c-0.2,0.1-0.3,0.3-0.4,0.4c0,0,0.1,0,0.2,0c0.1,0,0.3,0,0.3,0.1
		c0.1,0,0.1,0.1,0.1,0.2v0.1c0,0,0,0.1,0,0.1c0,0,0,0,0,0c0,0.2-0.1,0.4-0.1,0.6c0,0.2,0,0.4,0,0.5c0,0.4,0.1,0.8,0.2,1.2
		c0,0.1-0.1,0.1-0.2,0.2c-0.1,0-0.2,0.1-0.4,0c0,0,0,0-0.1,0c-0.1-0.1-0.2-0.1-0.4-0.1c-0.2,0-0.5,0-0.9,0c-0.1,0-0.3,0-0.4,0
		c-0.1,0-0.3,0-0.5,0.1c-0.1,0-0.1,0-0.2,0c-0.1,0-0.1,0-0.2,0c0-0.1-0.1-0.2-0.1-0.3s0-0.2,0.1-0.2c0-0.1,0.1-0.1,0.3-0.1v-1.3
		c-0.1,0-0.1,0-0.2-0.1c0-0.1-0.1-0.2-0.1-0.2c0-0.1,0-0.2,0-0.2l1.1,0c0-0.1,0-0.2,0-0.3c0-0.1,0-0.2,0-0.4l-0.5,0
		c0,0.1,0,0.2-0.1,0.3c-0.1,0.1-0.2,0.1-0.3,0.1c-0.1,0-0.2,0-0.3,0c0-0.1,0-0.3,0-0.5c0-0.1,0-0.1,0-0.2c0-0.1,0-0.1,0-0.2v-0.2
		c0-0.1,0-0.1,0.1-0.1c0.1,0,0.1,0,0.2,0h0.1c0.2,0,0.3,0,0.3,0.2c0,0.1,0,0.1,0,0.2l0.3,0c0.1,0,0.1-0.1,0.2-0.2
		c0.1-0.1,0.2-0.2,0.3-0.2c0.1,0,0.2,0,0.3,0.1c0.1,0.1,0.1,0.1,0.1,0.3c0,0.1,0,0.1,0,0.2c0,0.1,0,0.2,0,0.3c0,0.1,0,0.2,0,0.3
		c0,0.1,0,0.2,0,0.3c0.1,0,0.1,0.1,0.1,0.3c0,0,0,0.1,0,0.1c0,0,0,0.1,0,0.1l-1,0.1l0,1.2c0,0,0.1,0,0.2,0c0.1,0,0.2,0,0.4,0
		c0.2,0,0.4,0,0.5,0c0.2,0,0.3,0,0.4,0c0-0.3-0.1-0.5-0.1-0.8c0-0.2,0-0.4,0-0.6c0-0.2,0.1-0.4,0.1-0.6l-0.4,0c-0.1,0-0.1,0-0.2-0.1
		c0,0-0.1-0.1-0.1-0.1c0-0.2,0.1-0.5,0.2-0.7c0.1-0.2,0.3-0.4,0.4-0.5c0.1-0.1,0.3-0.1,0.4-0.1C13.5,11,13.7,11.1,13.8,11.3
		L13.8,11.3z"/>
	<path fill="#FFFFFF" d="M13.5,8.7c0,0.1,0,0.3-0.1,0.5c0,0.2,0,0.4,0,0.6V10c0,0,0,0.1,0,0.1c0,0,0,0,0,0.1c0,0.1,0,0.1-0.1,0.1
		c-0.1,0-0.1,0-0.2,0c-0.2,0-0.6-0.1-1.2-0.1c-0.6,0-1,0-1.3,0.1c-0.1,0-0.1,0-0.2,0c-0.1,0-0.1-0.1-0.1-0.2c0-0.1,0-0.2,0-0.5
		c0-0.1,0-0.1,0-0.2c0-0.1,0-0.2,0-0.2c0-0.1,0-0.1,0-0.2c0-0.1,0.1-0.1,0.2-0.1c0.1,0,0.3,0,0.5,0c0.2,0,0.4,0,0.6,0
		c0.2,0,0.4,0,0.6,0c0.2,0,0.4,0,0.5,0V8.9c0-0.1,0-0.1-0.1-0.1c0,0-0.1,0-0.1-0.1c0-0.1,0.1-0.2,0.2-0.2c0.1-0.1,0.2-0.1,0.4-0.1
		c0.1,0,0.2,0,0.3,0.1C13.5,8.5,13.6,8.6,13.5,8.7z M12.8,9.8V9.4h-1.7v0.4H12.8z"/>
	<path fill="#FFFFFF" d="M17.2,11.1c-0.1,0.2-0.2,0.3-0.3,0.4c-0.3,0.3-1,0.4-2,0.4c0,0.1,0,0.2,0,0.3c0,0.1,0,0.2,0,0.2h0.5
		c0.4,0,0.6,0,0.7,0c0.1,0,0.2-0.1,0.3-0.2c0.1,0,0.2,0,0.4,0.1c0.1,0.1,0.2,0.1,0.2,0.2c0,0,0,0.1-0.1,0.1c0,0,0,0,0,0.1
		c-0.1,0.1-0.1,0.3-0.1,0.4v1.2c0,0.2,0.1,0.2,0.2,0.2c0,0.2,0,0.3,0,0.3c-0.1,0.2-0.1,0.2-0.2,0.2l-1.1,0c-0.1,0-0.2,0-0.4,0
		s-0.3,0-0.4,0.1c0-0.1,0-0.1,0-0.1c0-0.3,0.1-0.4,0.4-0.5c0.1,0,0.1,0,0.1,0c0,0,0.1,0,0.1,0c0,0,0.1,0,0.2,0c0.1,0,0.1,0,0.2,0
		c0.1,0,0.1,0,0.2,0c0,0,0.1,0,0.1,0v-1.6H15c0,0.2,0,0.3-0.1,0.3c-0.1,0.1-0.2,0.1-0.4,0.1h-0.1c0,0-0.1,0-0.1,0c0,0,0,0,0,0
		c0-0.1,0-0.3,0-0.5c0-0.1,0-0.1,0-0.2c0-0.1,0-0.1,0-0.2v-0.3c0-0.2,0-0.4,0-0.5c0-0.1,0-0.3-0.1-0.5c0,0,0.1,0,0.1,0
		c0,0,0,0,0.1,0c0.1-0.1,0.2-0.1,0.4-0.1c0.1,0,0.1,0,0.2,0.1c0,0,0,0.1,0.1,0.1c0.1,0,0.2,0,0.4,0c0.1,0,0.3,0,0.4,0
		c0.4,0,0.7,0,0.9,0c0.2,0,0.4-0.1,0.5-0.1H17.2z"/>
	<path fill="#FFFFFF" d="M17,8.7c0,0.1,0,0.3-0.1,0.5c0,0.2,0,0.4,0,0.6V10c0,0,0,0.1,0,0.1c0,0,0,0,0,0.1c0,0.1,0,0.1-0.1,0.1
		c-0.1,0-0.1,0-0.2,0c-0.2,0-0.6-0.1-1.2-0.1c-0.6,0-1,0-1.3,0.1c-0.1,0-0.1,0-0.2,0c-0.1,0-0.1-0.1-0.1-0.2c0-0.1,0-0.2,0-0.5
		c0-0.1,0-0.1,0-0.2c0-0.1,0-0.2,0-0.2c0-0.1,0-0.1,0-0.2C14,9,14,8.9,14.1,8.9c0.1,0,0.3,0,0.5,0c0.2,0,0.4,0,0.6,0
		c0.2,0,0.4,0,0.6,0c0.2,0,0.4,0,0.5,0V8.9c0-0.1,0-0.1-0.1-0.1c0,0-0.1,0-0.1-0.1c0-0.1,0.1-0.2,0.2-0.2c0.1-0.1,0.2-0.1,0.4-0.1
		c0.1,0,0.2,0,0.3,0.1C17,8.5,17.1,8.6,17,8.7z M16.3,9.8V9.4h-1.7v0.4H16.3z"/>
	<path fill="#FFFFFF" d="M21.8,14.4c0,0.1-0.1,0.1-0.1,0.2c0,0.1-0.1,0.1-0.1,0.2c-0.2,0.2-0.3,0.2-0.4,0.3c0,0-0.1,0-0.1,0
		c0,0-0.1,0-0.1,0c-0.2,0-0.3,0-0.3-0.1c0-0.1-0.1-0.2-0.1-0.4c0,0,0-0.1,0-0.2c0-0.1,0-0.1,0-0.2v-0.4v-0.4c0-0.1,0-0.1,0-0.2
		c0,0,0-0.1,0-0.1h-1.7v1.2c0.2,0,0.4,0.1,0.5,0.2c0.1,0.1,0.2,0.3,0.2,0.4c-0.2,0-0.3,0-0.4,0c-0.1,0-0.1,0-0.2,0
		c-0.2,0-0.4,0-0.5,0c-0.2,0-0.3,0-0.5,0.1c0-0.1-0.1-0.2-0.1-0.2c0-0.2,0.1-0.3,0.2-0.4v-1.8h2.4c0-0.1,0-0.2,0-0.4
		c0-0.1,0-0.3,0-0.5c-0.1,0-0.2,0-0.4,0.1c-0.2,0-0.3,0-0.5,0c-0.1,0.1-0.2,0.2-0.3,0.2c-0.1,0.1-0.2,0.2-0.3,0.2c0,0-0.1,0-0.1,0
		c0,0-0.1,0,0-0.1l0.3-0.4l-0.6,0c0,0.2,0,0.3-0.1,0.4c-0.1,0.1-0.2,0.1-0.4,0.1c0,0,0,0-0.1,0c0,0-0.1,0-0.1,0c0-0.1,0-0.3,0-0.6
		c0-0.1,0-0.1,0-0.2c0-0.1,0-0.1,0-0.2v-0.2c0-0.1,0-0.1,0.1-0.1c0.1,0,0.1,0,0.2,0h0.1c0.2,0,0.3,0,0.3,0.2v0.1l0.9,0.1
		c0.1-0.2,0.2-0.4,0.2-0.6c0-0.1,0-0.1-0.1-0.2c0.1-0.1,0.2-0.1,0.4-0.1c0.2,0,0.3,0,0.4,0.1c0.1,0.1,0.1,0.1,0.1,0.2
		c0,0.1-0.1,0.2-0.1,0.3c-0.1,0.1-0.1,0.2-0.2,0.3c0.1,0,0.1,0,0.2-0.1c0.1,0,0.1,0,0.2-0.1c0,0,0.1,0,0.1-0.1c0,0,0.1,0,0.1-0.1
		c0.1,0,0.3,0,0.4,0.1c0.1,0.1,0.2,0.2,0.2,0.3c0,0,0,0.1-0.1,0.1c0,0,0,0,0,0.1c-0.1,0.1-0.1,0.3-0.1,0.4c0,0.2,0,0.5,0,0.8
		c0,0.3,0,0.6,0,0.9c0,0.2,0,0.3,0,0.4s0,0.2,0,0.3c0,0.1,0,0.1,0,0.2s0.1,0.1,0.1,0c0.1,0,0.1,0,0.2,0
		C21.7,14.5,21.7,14.5,21.8,14.4L21.8,14.4z"/>
	<path fill="#FFFFFF" d="M21.7,8.4c0,0.1-0.1,0.2-0.3,0.2h-1.3v0.3h0.3c0.1,0,0.2,0,0.3-0.1c0,0,0,0,0.1-0.1c0.1,0,0.1,0.1,0.2,0.2
		C21,9,21,9.1,21,9.2c0,0.1-0.1,0.2-0.3,0.2h-1.1V8.8c0-0.1,0-0.2-0.1-0.2c0-0.1-0.1-0.1-0.1-0.1c0-0.1,0-0.2,0.1-0.2
		c0.1-0.1,0.2-0.1,0.3-0.1c0.1,0,0.3,0,0.5,0c0.2,0,0.4,0,0.5,0c0.1,0,0.2,0,0.3-0.1c0.1,0,0.1-0.1,0.2-0.2c0.1,0,0.2,0.1,0.3,0.2
		C21.7,8.2,21.7,8.3,21.7,8.4z"/>
	<path fill="#FFFFFF" d="M5.7,21.6c0,0-0.1,0.1-0.1,0.1c-0.1,0-0.1,0.1-0.2,0.1c-0.1,0-0.1,0.1-0.2,0.1c-0.1,0-0.1,0-0.1,0
		c-0.2,0-0.3,0-0.5-0.1c-0.2,0-0.4,0-0.6,0c-0.2,0-0.5,0-0.8,0.1c-0.1,0-0.1,0-0.2,0c-0.1,0-0.1,0-0.2,0.1c0-0.1-0.1-0.2-0.1-0.3
		c0-0.1,0-0.2,0.1-0.3c0-0.1,0.1-0.1,0.3-0.1l0.2-1.3c0,0-0.1,0-0.1,0c-0.1,0-0.1,0-0.2,0c0,0-0.1,0-0.1,0c0,0-0.1,0-0.1-0.1
		c0,0-0.1-0.1-0.1-0.1c0-0.1,0-0.1,0-0.2c0-0.1,0-0.2,0.1-0.2c0.1,0,0.3,0,0.4,0c0.1,0,0.2,0,0.3,0c0.1,0,0.2,0,0.3,0
		c0.1,0,0.2,0,0.2,0c0.1,0,0.2,0,0.3-0.1c0,0.1,0,0.2,0,0.3c0,0.1,0,0.2-0.1,0.3c0,0.1-0.1,0.1-0.2,0.1l-0.2,1.3c0.1,0,0.2,0,0.2,0
		c0.1,0,0.1,0,0.2,0h0.2c0.1,0,0.3,0,0.5,0v-2.6c-0.1,0-0.2,0-0.4,0.1c-0.2,0-0.3,0-0.5,0c-0.1,0-0.2,0-0.4,0c-0.1,0-0.3,0-0.4,0
		c0,0.2,0,0.3-0.1,0.4c-0.1,0.1-0.2,0.1-0.4,0.1c0,0,0,0-0.1,0c0,0-0.1,0-0.1,0c0-0.1,0-0.3,0-0.6c0-0.1,0-0.1,0-0.2
		c0-0.1,0-0.1,0-0.2v-0.2c0-0.1,0-0.1,0.1-0.1c0.1,0,0.1,0,0.2,0h0.1c0.2,0,0.3,0,0.3,0.2V18c0,0,0.1,0,0.1,0h0.1c0.2,0,0.3,0,0.4,0
		c0.1,0,0.2,0,0.3,0c0.3,0,0.5,0,0.7-0.1c0.1,0,0.2-0.1,0.3-0.2c0.1,0,0.3,0,0.4,0.1c0.1,0.1,0.2,0.2,0.2,0.3c0,0,0,0.1-0.1,0.1
		c0,0,0,0,0,0.1c-0.1,0.1-0.1,0.3-0.1,0.4V21c0,0.2,0,0.3,0.1,0.4C5.6,21.5,5.6,21.5,5.7,21.6z"/>
	<path fill="#FFFFFF" d="M5.6,15.5c0,0.1,0,0.3-0.1,0.5c0,0.2,0,0.4,0,0.6v0.2c0,0,0,0.1,0,0.1c0,0,0,0,0,0.1c0,0.1,0,0.1-0.1,0.1
		c-0.1,0-0.1,0-0.2,0c-0.2,0-0.6-0.1-1.2-0.1c-0.6,0-1,0-1.3,0.1c-0.1,0-0.1,0-0.2,0c-0.1,0-0.1-0.1-0.1-0.2c0-0.1,0-0.2,0-0.5
		c0-0.1,0-0.1,0-0.2c0-0.1,0-0.2,0-0.2c0-0.1,0-0.1,0-0.2c0-0.1,0.1-0.1,0.2-0.1c0.1,0,0.3,0,0.5,0c0.2,0,0.4,0,0.6,0
		c0.2,0,0.4,0,0.6,0c0.2,0,0.4,0,0.5,0v-0.1c0-0.1,0-0.1-0.1-0.1c0,0-0.1,0-0.1,0c0-0.1,0.1-0.2,0.2-0.2c0.1-0.1,0.2-0.1,0.4-0.1
		c0.1,0,0.2,0,0.3,0.1C5.6,15.3,5.6,15.4,5.6,15.5z M4.9,16.7v-0.4H3.2v0.4H4.9z"/>
	<path fill="#FFFFFF" d="M10.3,20.4c-0.1,0.1-0.1,0.3-0.2,0.4c0,0.1,0,0.2-0.1,0.4c0,0.2-0.1,0.4-0.1,0.6c0,0.1-0.1,0.1-0.2,0.1
		c-0.1,0-0.2,0-0.3,0c-0.1,0-0.2,0-0.3,0H9c0,0-0.1,0-0.1,0c0,0-0.1,0-0.2,0c-0.1,0-0.1,0-0.2,0c0,0-0.1-0.1-0.1-0.1
		c0-0.1,0-0.3-0.1-0.5c0-0.2-0.1-0.4-0.1-0.6H7.4l0,0.5c0,0.2,0.1,0.3,0.2,0.4c0,0.1-0.1,0.2-0.2,0.3C7.2,21.9,7.1,22,7.1,22
		c-0.1,0-0.2-0.1-0.4-0.2c-0.1-0.1-0.2-0.2-0.2-0.2c0.1-0.1,0.2-0.2,0.2-0.4l0.1-2.5c0,0-0.1,0-0.1,0c0,0,0,0-0.1,0
		c-0.1,0-0.2,0-0.3-0.1c-0.1-0.1-0.1-0.2-0.1-0.4c0-0.1,0-0.1,0-0.2c0.1,0,0.2,0,0.3,0c0.1,0,0.1,0,0.2,0c0.1,0,0.2,0,0.3-0.1
		c0.1,0,0.2-0.1,0.2-0.1c0.1,0,0.2,0,0.3,0.1c0.1,0.1,0.2,0.2,0.2,0.3c0,0-0.1,0.1-0.1,0.1c0,0,0,0-0.1,0.1
		c-0.1,0.1-0.1,0.2-0.1,0.3l-0.1,1.5h1.5v-0.2v-0.2v-0.2v-0.2v-0.2V19v-0.1v-0.1c0-0.1,0-0.2,0-0.3c0-0.1,0-0.2,0-0.3
		c0-0.1,0-0.2,0.1-0.2c0.1,0,0.1-0.1,0.2-0.1c0.2,0,0.3,0.1,0.5,0.2c0,0,0.1,0.1,0.2,0.2l0,0c-0.1,0-0.1,0-0.1,0c0,0-0.1,0-0.1,0.1
		c0,0,0,0.1-0.1,0.1c0,0,0,0.1,0,0.2c0,0.1,0,0.2,0,0.3v0.6v0.5v0.2l0.5,0c0.1,0,0.2,0,0.2,0.1C10.4,20.3,10.4,20.3,10.3,20.4z
		 M9.6,20.7H9l0.1,0.7h0.5L9.6,20.7z"/>
	<path fill="#FFFFFF" d="M12.6,21.7L12.6,21.7c-0.1,0-0.1,0-0.2,0c-0.1,0-0.1,0-0.2,0c-0.1,0-0.2,0.1-0.3,0.1c-0.1,0-0.1,0-0.2,0
		c-0.1,0-0.1,0-0.2,0c-0.1,0-0.1,0-0.2-0.1c-0.1-0.1-0.1-0.2-0.1-0.3c0-0.1,0-0.1,0-0.1c0,0,0-0.1,0.1-0.1c0,0,0,0,0.1-0.1
		c0,0,0,0,0-0.1v-4.3c0-0.2,0-0.4,0.1-0.5c0.1-0.1,0.2-0.2,0.3-0.2v-0.4h-0.9c-0.4,0-0.7-0.1-0.9-0.3c-0.2-0.1-0.2-0.3-0.2-0.5
		l0.1,0c0.2,0.1,0.4,0.1,0.5,0.2c0.2,0,0.4,0,0.6,0h1.5v1.2c-0.2,0-0.3,0.1-0.4,0.2c-0.1,0.1-0.1,0.3-0.1,0.6v4c0,0,0,0,0.1,0
		c0,0,0.1,0,0.2,0c0.1,0,0.2,0.1,0.3,0.2C12.6,21.5,12.6,21.6,12.6,21.7z"/>
	<path fill="#FFFFFF" d="M17.1,21.3c-0.1,0.1-0.2,0.2-0.3,0.4c-0.2,0.2-0.3,0.2-0.5,0.3c0,0-0.1,0-0.1,0c0,0-0.1,0-0.1,0
		c-0.1,0-0.2,0-0.2,0c-0.1,0-0.1,0-0.1-0.1c0,0,0-0.1-0.1-0.2c0-0.1,0-0.2,0-0.3c0-0.1,0-0.2,0-0.3c0-0.1,0-0.2,0-0.4
		c0-0.4,0-0.7,0.1-1.1s0.1-0.7,0.2-1l-0.1,0c-0.1,0-0.2,0-0.3,0c-0.1,0-0.2,0-0.3,0l0,0.3c0,0.1,0,0.2-0.1,0.2
		c-0.1,0.1-0.2,0.1-0.3,0.1c-0.1,0-0.2,0-0.2,0l0-0.6l-0.8,0c0,0.2,0,0.3,0.1,0.5c0,0.1,0,0.2,0,0.3c0,0.1,0,0.3,0,0.5
		c0,0.2,0,0.4,0,0.6c0,0.2,0,0.4-0.1,0.7l0.8,0v-1.1h-0.2c-0.1,0-0.1,0-0.3,0c0-0.1-0.1-0.2-0.1-0.2c0-0.1,0-0.2,0.1-0.3
		c0.1-0.1,0.2-0.1,0.3-0.1h0.8c0,0,0.1,0.1,0.1,0.2c0,0.1,0,0.2,0,0.2s-0.1,0.1-0.1,0.1V21c0,0.2,0.1,0.2,0.2,0.2c0,0.2,0,0.3,0,0.3
		c0,0.2-0.1,0.2-0.2,0.2c-0.1,0-0.3,0-0.5,0c-0.2,0-0.4,0-0.6,0c-0.2,0-0.4,0-0.6,0c-0.2,0-0.4,0-0.5,0c0-0.1,0-0.1,0-0.2
		c0-0.2,0.1-0.3,0.2-0.4c0,0,0-0.1,0-0.2c0-0.1,0-0.2,0-0.4c0-0.3,0-0.6,0-0.7c0-0.6,0-1-0.1-1.2c0-0.1-0.1-0.3-0.2-0.5
		c0,0,0-0.1,0.1-0.1c0,0,0.1-0.1,0.1-0.1c0.1-0.1,0.2-0.1,0.2-0.1c0.2,0.1,0.4,0.1,0.6,0.1c0.3,0,0.6,0.1,0.9,0.1c0.5,0,0.7,0,0.9,0
		c0.1,0,0.1,0,0.2-0.1c0.1,0,0.1,0,0.2-0.1c0.3,0,0.5,0.2,0.5,0.3c-0.1,0.2-0.1,0.5-0.2,0.9c0,0.4-0.1,0.7-0.1,1.1
		c0,0.5,0,0.8,0.1,1.1c0,0,0.1,0,0.1,0c0.1,0,0.1,0,0.2,0C16.9,21.3,17,21.3,17.1,21.3L17.1,21.3z"/>
	<path fill="#FFFFFF" d="M17.7,17L17.7,17c-0.3,0-0.6,0-1.1,0c-0.6,0-1,0-1.3,0.1c-0.1,0-0.1-0.1-0.1-0.2c0,0,0-0.1,0-0.1
		c0,0,0-0.1,0-0.1v-0.1c0-0.1-0.1-0.2-0.2-0.2c0,0,0,0-0.1,0c0,0-0.1,0-0.1,0c0-0.1,0.1-0.2,0.2-0.3c0.2-0.1,0.3-0.2,0.5-0.2
		c0.1,0,0.2,0,0.2,0c0.1,0,0.1,0.1,0.1,0.3v0.5c0.2,0,0.3-0.1,0.5-0.1c0.2,0,0.3,0,0.5,0c0.2,0,0.4,0.1,0.5,0.2
		C17.5,16.7,17.6,16.9,17.7,17z"/>
	<path fill="#FFFFFF" d="M21.2,21.6c-0.1,0.1-0.1,0.1-0.2,0.2c-0.2,0.1-0.3,0.2-0.5,0.2c-0.1,0-0.2,0-0.3-0.1
		c-0.1,0-0.1-0.1-0.1-0.2V20l-1.7,0.1l0,1.1c0,0.2,0.1,0.3,0.2,0.4c0,0.1-0.1,0.2-0.2,0.3C18.2,21.9,18.1,22,18,22
		c-0.1,0-0.2-0.1-0.4-0.2c-0.1-0.1-0.2-0.2-0.2-0.2c0.1-0.1,0.2-0.2,0.2-0.4l0.1-2.5c0,0-0.1,0-0.1,0c0,0,0,0-0.1,0
		c-0.1,0-0.2,0-0.3-0.1c-0.1-0.1-0.1-0.2-0.1-0.4c0-0.1,0-0.1,0-0.2c0.1,0,0.2,0,0.3,0c0.1,0,0.1,0,0.2,0c0.1,0,0.2,0,0.3-0.1
		c0.1,0,0.2-0.1,0.2-0.1c0.1,0,0.2,0,0.3,0.1c0.1,0.1,0.2,0.2,0.2,0.3c0,0-0.1,0.1-0.1,0.1c0,0,0,0-0.1,0.1
		c-0.1,0.1-0.1,0.2-0.1,0.3l0,0.9l2.4-0.1v1.1c0,0.4,0,0.6,0,0.8c0,0.1,0.1,0.2,0.2,0.3C21.1,21.5,21.1,21.5,21.2,21.6L21.2,21.6z
		 M21.2,19c0,0.1,0,0.1,0,0.2c-0.1,0.1-0.1,0.1-0.2,0.1c0,0,0,0-0.1,0c-0.1,0-0.1,0-0.2,0c-0.1,0-0.1,0-0.2,0c-0.1,0-0.1,0-0.2,0
		c0,0-0.1,0-0.2,0c-0.1,0-0.2,0-0.2,0c-0.1,0-0.2,0-0.2,0c-0.1,0-0.1,0-0.1,0c-0.1,0-0.2,0-0.2-0.1c-0.1-0.1-0.1-0.1,0-0.2
		c0.1-0.1,0.1-0.3,0.1-0.5c0-0.1,0-0.2,0-0.3c0-0.1,0-0.1,0-0.2c0-0.1,0.1-0.1,0.2-0.1c0.1,0,0.2,0,0.3,0c0,0,0.1,0,0.1,0
		c0,0,0.1,0,0.1,0h0.1c0.2,0,0.4,0,0.5,0c0,0,0.1,0,0.1,0c0,0,0.1,0.1,0.1,0.1C21.1,18.4,21.1,18.7,21.2,19z M20.6,18.8l-0.1-0.5H20
		l-0.1,0.5H20.6z"/>
	<path fill="#FFFFFF" d="M24.9,21.5c0,0.1,0,0.1-0.1,0.2c0,0.1-0.1,0.1-0.2,0.1c-0.1,0-0.1,0.1-0.2,0.1c-0.1,0-0.1,0-0.2,0
		c-0.1-0.1-0.2-0.1-0.3-0.2c-0.2-0.1-0.3-0.1-0.6-0.1c-0.2,0-0.4,0-0.6,0c0,0,0,0,0,0c0,0,0,0-0.1,0v0.1c0,0.1-0.1,0.1-0.3,0.1h-0.1
		c-0.2,0-0.3,0-0.3-0.1v-0.3v-0.1v-0.1c0-0.1,0-0.2,0-0.3c0-0.1,0-0.2,0-0.4c0,0,0.1,0,0.1,0c0,0,0.1,0,0.1,0c0.3,0,0.5,0.2,0.5,0.5
		c0.2,0,0.4,0,0.5,0c0.1,0,0.1,0,0.2,0c0.1,0,0.2,0,0.3,0c0.1,0,0.2,0,0.3,0.1v-2.5c-0.1,0-0.2,0-0.4,0.1c-0.1,0-0.2,0-0.4,0H23
		c-0.1,0-0.1,0-0.2,0c-0.1,0-0.1,0-0.1,0c0,0.2,0,0.3-0.1,0.4c-0.1,0.1-0.2,0.1-0.4,0.1c0,0,0,0-0.1,0c0,0-0.1,0-0.1,0
		c0-0.1,0-0.3,0-0.6c0-0.1,0-0.1,0-0.2c0-0.1,0-0.1,0-0.2v-0.2c0-0.1,0-0.1,0.1-0.1c0.1,0,0.1,0,0.2,0h0.1c0.2,0,0.3,0,0.3,0.2V18
		c0.1,0,0.2,0,0.3,0c0.1,0,0.3,0,0.4,0c0.2,0,0.4,0,0.5-0.1c0.1,0,0.2-0.1,0.3-0.2c0.1,0,0.3,0,0.4,0.1c0.1,0.1,0.2,0.2,0.3,0.3
		c0,0,0,0.1-0.1,0.1c0,0,0,0,0,0c-0.1,0.1-0.1,0.3-0.1,0.4V21c0,0.1,0,0.3,0,0.3C24.8,21.4,24.8,21.4,24.9,21.5z"/>
	<path fill="#FFFFFF" d="M26.4,16.9L26.4,16.9c-0.2,0-0.4,0-0.6,0c-0.2,0-0.5,0-0.8,0c-0.2,0-0.4,0-0.7,0c-0.3,0-0.6,0-0.7,0.1
		c-0.2,0-0.3,0-0.3,0c-0.2,0-0.3-0.1-0.3-0.2v-0.9c0-0.2,0-0.3,0.1-0.3c0.1,0,0.2-0.1,0.3-0.1c0.2,0,0.3,0.1,0.5,0.2
		c0.2,0.1,0.3,0.2,0.3,0.3c-0.1,0-0.1,0.1-0.2,0.1c-0.1,0.1-0.2,0.2-0.2,0.4c0.1,0,0.2,0,0.3-0.1c0.1,0,0.3,0,0.5-0.1
		c0.2,0,0.3,0,0.5-0.1c0.2,0,0.3,0,0.4,0c0.3,0,0.5,0.1,0.7,0.2C26.1,16.6,26.3,16.7,26.4,16.9z"/>
	<path fill="#FFFFFF" d="M29.6,20.4c-0.1,0.1-0.1,0.3-0.2,0.4c0,0.1,0,0.2-0.1,0.4c0,0.2-0.1,0.4-0.1,0.6c0,0.1-0.1,0.1-0.2,0.1
		c-0.1,0-0.2,0-0.3,0c-0.1,0-0.2,0-0.3,0h-0.2c0,0-0.1,0-0.1,0c0,0-0.1,0-0.2,0c-0.1,0-0.1,0-0.2,0c0,0-0.1-0.1-0.1-0.1
		c0-0.1,0-0.3-0.1-0.5c0-0.2-0.1-0.4-0.1-0.6h-0.9l0,0.5c0,0.2,0.1,0.3,0.2,0.4c0,0.1-0.1,0.2-0.2,0.3c-0.1,0.1-0.2,0.1-0.3,0.1
		c-0.1,0-0.2-0.1-0.4-0.2c-0.1-0.1-0.2-0.2-0.2-0.2c0.1-0.1,0.2-0.2,0.2-0.4l0.1-2.5c0,0-0.1,0-0.1,0c0,0,0,0-0.1,0
		c-0.1,0-0.2,0-0.3-0.1c-0.1-0.1-0.1-0.2-0.1-0.4c0-0.1,0-0.1,0-0.2c0.1,0,0.2,0,0.3,0c0.1,0,0.1,0,0.2,0c0.1,0,0.2,0,0.3-0.1
		c0.1,0,0.2-0.1,0.2-0.1c0.1,0,0.2,0,0.3,0.1c0.1,0.1,0.2,0.2,0.2,0.3c0,0-0.1,0.1-0.1,0.1c0,0,0,0-0.1,0.1
		c-0.1,0.1-0.1,0.2-0.1,0.3l-0.1,1.5h1.5v-0.2v-0.2v-0.2v-0.2v-0.2V19v-0.1v-0.1c0-0.1,0-0.2,0-0.3c0-0.1,0-0.2,0-0.3
		c0-0.1,0-0.2,0.1-0.2c0.1,0,0.1-0.1,0.2-0.1c0.2,0,0.3,0.1,0.5,0.2c0,0,0.1,0.1,0.2,0.2l0,0c-0.1,0-0.1,0-0.1,0c0,0-0.1,0-0.1,0.1
		c0,0,0,0.1-0.1,0.1c0,0,0,0.1,0,0.2c0,0.1,0,0.2,0,0.3v0.6v0.5v0.2l0.5,0c0.1,0,0.2,0,0.2,0.1C29.6,20.3,29.6,20.3,29.6,20.4z
		 M28.9,20.7h-0.7l0.1,0.7h0.5L28.9,20.7z"/>
</g>
</svg>
