<!-- Generator: Adobe Illustrator 18.0.0, SVG Export Plug-In  -->
<svg version="1.1"
	 xmlns="http://www.w3.org/2000/svg" xmlns:xlink="http://www.w3.org/1999/xlink" xmlns:a="http://ns.adobe.com/AdobeSVGViewerExtensions/3.0/"
	 x="0px" y="0px" width="33.7px" height="32.3px" viewBox="0 0 33.7 32.3" enable-background="new 0 0 33.7 32.3"
	 xml:space="preserve">
<defs>
</defs>
<g>
	<g>
		
			<radialGradient id="SVGID_1_" cx="525.8041" cy="276.5382" r="13.6552" gradientTransform="matrix(-1.1268 0.3027 -0.3027 -1.1268 692.6809 168.7577)" gradientUnits="userSpaceOnUse">
			<stop  offset="0.25" style="stop-color:#E5DEDB"/>
			<stop  offset="0.6386" style="stop-color:#E3DCD9"/>
			<stop  offset="0.7786" style="stop-color:#DDD6D3"/>
			<stop  offset="0.878" style="stop-color:#D2CBC9"/>
			<stop  offset="0.9239" style="stop-color:#CAC4C2"/>
			<stop  offset="1" style="stop-color:#E5E1DC"/>
		</radialGradient>
		<circle fill="url(#SVGID_1_)" cx="16.5" cy="16.3" r="15.9"/>
		
			<linearGradient id="SVGID_2_" gradientUnits="userSpaceOnUse" x1="543.2863" y1="347.7051" x2="543.2863" y2="322.7087" gradientTransform="matrix(-0.9658 0.2594 -0.2594 -0.9658 628.9196 201.8721)">
			<stop  offset="0" style="stop-color:#E5DEDB"/>
			<stop  offset="1" style="stop-color:#E5E1DC"/>
		</linearGradient>
		<path fill="url(#SVGID_2_)" d="M4.2,22.6c1.8,6.7,9.1,10.5,16.3,8.6c7.2-1.9,11.6-8.9,9.8-15.6C28.6,8.9,21.3,5.1,14,7
			C6.8,9,2.4,15.9,4.2,22.6z"/>
		
			<linearGradient id="SVGID_3_" gradientUnits="userSpaceOnUse" x1="543.2863" y1="336.5407" x2="543.2863" y2="323.6535" gradientTransform="matrix(-0.9658 0.2594 -0.2594 -0.9658 628.9196 201.8721)">
			<stop  offset="5.076140e-03" style="stop-color:#E5E1DC"/>
			<stop  offset="1" style="stop-color:#FFFAF6"/>
		</linearGradient>
		<path fill="url(#SVGID_3_)" d="M7.8,25.2c1.2,4.3,6.8,6.6,12.5,5.1c5.7-1.5,9.4-6.3,8.3-10.6c-1.2-4.3-5.9-3.3-11.6-1.8
			C11.2,19.3,6.6,20.8,7.8,25.2z"/>
	</g>
	<g>
		<defs>
			<path id="SVGID_4_" d="M33,12.9c-0.1,0.3-0.2,0.5-0.3,0.8c-2,3.5-8.7,3.4-14.9-0.2c-6.2-3.6-9.7-9.3-7.7-12.8
				c0.1-0.2,0.3-0.5,0.5-0.7c-3.8,0.9-7,3-8.9,6.3C-2.4,13.4,1.1,23,9.5,27.9c8.4,4.8,18.5,3,22.5-4.1C33.9,20.5,34.2,16.6,33,12.9z
				"/>
		</defs>
		<clipPath id="SVGID_5_">
			<use xlink:href="#SVGID_4_"  overflow="visible"/>
		</clipPath>
		<g clip-path="url(#SVGID_5_)">
			<g>
				<g>
					<g>
						
							<radialGradient id="SVGID_6_" cx="525.8042" cy="276.5385" r="13.6552" gradientTransform="matrix(-1.1268 0.3027 -0.3027 -1.1268 692.6811 168.7579)" gradientUnits="userSpaceOnUse">
							<stop  offset="0.25" style="stop-color:#D9A428"/>
							<stop  offset="0.631" style="stop-color:#DBA628"/>
							<stop  offset="0.7683" style="stop-color:#E1AA29"/>
							<stop  offset="0.8657" style="stop-color:#EBB32B"/>
							<stop  offset="0.9239" style="stop-color:#F6BB2F"/>
							<stop  offset="1" style="stop-color:#FAD57C"/>
						</radialGradient>
						<circle fill="url(#SVGID_6_)" cx="16.5" cy="16.3" r="15.9"/>
						
							<linearGradient id="SVGID_7_" gradientUnits="userSpaceOnUse" x1="543.2863" y1="347.7051" x2="543.2863" y2="322.7087" gradientTransform="matrix(-0.9658 0.2594 -0.2594 -0.9658 628.9196 201.8721)">
							<stop  offset="0" style="stop-color:#D9A428"/>
							<stop  offset="1" style="stop-color:#FADF7E"/>
						</linearGradient>
						<path fill="url(#SVGID_7_)" d="M4.2,22.6c1.8,6.7,9.1,10.5,16.3,8.6c7.2-1.9,11.6-8.9,9.8-15.6C28.6,8.9,21.3,5.1,14,7
							C6.8,9,2.4,15.9,4.2,22.6z"/>
						
							<linearGradient id="SVGID_8_" gradientUnits="userSpaceOnUse" x1="543.2863" y1="336.5407" x2="543.2863" y2="323.6535" gradientTransform="matrix(-0.9658 0.2594 -0.2594 -0.9658 628.9196 201.8721)">
							<stop  offset="5.076140e-03" style="stop-color:#EAC12B"/>
							<stop  offset="1" style="stop-color:#FAF7ED"/>
						</linearGradient>
						<path fill="url(#SVGID_8_)" d="M7.8,25.2c1.2,4.3,6.8,6.6,12.5,5.1c5.7-1.5,9.4-6.3,8.3-10.6c-1.2-4.3-5.9-3.3-11.6-1.8
							C11.2,19.3,6.6,20.8,7.8,25.2z"/>
					</g>
				</g>
			</g>
		</g>
	</g>
	<g>
		<g>
			<path d="M13,16.4c-0.4,0.5-0.8,0.7-1.2,0.7c-0.4,0-0.8-0.1-1.2-0.4c-0.7-0.5-0.8-1.1-0.4-1.7c0.2,0.2,0.4,0.3,0.6,0.5
				c-0.1,0.3-0.1,0.6,0.2,0.8c0.5,0.3,0.9,0.2,1.4-0.3c0.5-0.6,0.4-1,0-1.3c-0.3-0.2-0.6-0.2-0.9,0c-0.2-0.1-0.4-0.3-0.6-0.5
				c0.6-0.4,1.2-0.4,1.8,0c0.4,0.3,0.6,0.6,0.7,0.9C13.4,15.6,13.3,16,13,16.4z"/>
			<path d="M13.5,18.7c-0.2-0.1-0.4-0.3-0.6-0.4c0.5-0.6,1-1.2,1.4-1.8c0.1-0.1,0.1-0.2,0-0.3c-0.1-0.1-0.2-0.2-0.3-0.3
				c-0.1,0-0.2-0.1-0.3-0.1c0.1-0.2,0.2-0.3,0.3-0.5c0.1,0.1,0.3,0.1,0.4,0.2c0.3,0.2,0.5,0.4,0.6,0.6c0.1,0.2,0.1,0.5-0.1,0.7
				C14.5,17.4,14,18.1,13.5,18.7z"/>
			<path d="M17.6,15.8c0,0.1-0.1,0.1-0.2,0.2c-0.1,0.1-0.2,0.1-0.2,0.2c-0.7,1.1-1.4,2.2-2.3,3.3c-0.2-0.1-0.4-0.2-0.7-0.4
				c0.8-1.1,1.6-2.2,2.3-3.3c0-0.1,0.1-0.1,0.2-0.2c0.1,0,0.2-0.1,0.2-0.1c0,0,0-0.1-0.1-0.1c0,0,0,0,0,0c-0.1,0-0.3,0-0.4,0
				c-0.2-0.2-0.3-0.5-0.5-0.8c0.2,0,0.3,0,0.5,0c0.1,0.1,0.1,0.2,0.2,0.4c0.1,0,0.2,0,0.3,0c0.1,0.1,0.2,0.1,0.3,0.2
				C17.6,15.4,17.7,15.6,17.6,15.8z"/>
			<path d="M19,20.2c-0.4,0.7-1.2,0.8-2.2,0.3c-1-0.5-1.2-1.1-0.7-1.8c0.2,0.1,0.5,0.2,0.7,0.3c-0.3,0.4-0.2,0.7,0.3,1
				c0.5,0.2,0.9,0.2,1.1-0.1c0.1-0.2,0-0.5-0.4-0.7c-0.5-0.3-0.8-0.5-0.9-0.6c-0.2-0.2-0.2-0.5,0-0.8c0.2-0.2,0.4-0.4,0.7-0.4
				c0.4,0,0.7,0,1.1,0.2c0.4,0.2,0.7,0.4,0.9,0.6c0.2,0.3,0.2,0.6,0.1,0.9c-0.2-0.1-0.5-0.2-0.7-0.3c0.1-0.2,0-0.3-0.1-0.4
				c-0.1-0.1-0.2-0.2-0.4-0.3C18.2,18,18.1,18,17.9,18c-0.2,0-0.3,0-0.3,0.1c-0.1,0.1,0,0.2,0.2,0.3c0.1,0.1,0.3,0.2,0.5,0.3
				c0.4,0.2,0.6,0.4,0.8,0.6C19.2,19.6,19.2,19.9,19,20.2z"/>
			<path d="M22.1,22.4c-0.3-0.1-0.5-0.2-0.8-0.2c0.5-0.8,0.9-1.6,1.3-2.4c-0.2,0.1-0.4,0.2-0.6,0.2c-0.1-0.2-0.3-0.5-0.4-0.7
				c-0.2,0-0.5,0-0.7,0.2c-0.2,0.1-0.4,0.3-0.5,0.5c-0.2,0.3-0.2,0.5-0.2,0.8c0.1,0.3,0.3,0.4,0.6,0.5c0.2,0.1,0.3,0.1,0.5,0.1
				c-0.1,0.2-0.2,0.4-0.3,0.6c-0.2,0-0.4-0.1-0.6-0.2c-0.6-0.2-0.9-0.5-1-0.9c-0.1-0.4,0-0.8,0.2-1.2c0.2-0.4,0.6-0.7,1-0.8
				c0.4-0.2,0.9-0.2,1.4-0.1c0.1,0.2,0.2,0.4,0.3,0.5c0.2-0.1,0.4-0.1,0.7-0.2c0.2,0.1,0.5,0.1,0.7,0.2
				C23.2,20.4,22.7,21.4,22.1,22.4z"/>
			<path d="M23.9,19c-1-0.2-1.9-0.5-2.8-0.8c0.1-0.1,0.1-0.3,0.2-0.4c0.7,0.2,1.3,0.4,2,0.6c0.1-0.1,0.1-0.3,0.2-0.4
				c0.2,0.1,0.5,0.1,0.8,0.2C24.1,18.4,24,18.7,23.9,19z"/>
			<path d="M24.8,18c-0.5-0.1-1.1-0.3-1.6-0.4c0,0,0-0.1,0.1-0.1c0.1-0.1,0-0.2-0.1-0.3c0,0-0.1,0-0.1,0c0.1-0.1,0.1-0.3,0.2-0.4
				c0.2,0.1,0.4,0.1,0.5,0.1c0.3,0.1,0.4,0.2,0.3,0.5c0.3,0.1,0.6,0.1,0.9,0.2C24.9,17.8,24.8,17.9,24.8,18z"/>
			<path d="M3.1,18c-0.2-0.2-0.4-0.4-0.5-0.6c0.9-0.6,1.8-1.2,2.7-1.9c0.2,0.2,0.3,0.3,0.5,0.5C4.9,16.7,4,17.4,3.1,18z"/>
			<path d="M5.9,20.6c-0.2-0.2-0.4-0.3-0.6-0.5c0.6-0.4,1.2-0.9,1.8-1.4c0.3-0.2,0.2-0.5-0.2-0.9c-0.3-0.3-0.6-0.4-0.8-0.3
				c0,0.2,0,0.3,0,0.4c0,0-0.1,0.1-0.3,0.1c-0.1,0-0.2,0-0.3,0.1c-0.5,0.3-0.9,0.7-1.4,1c-0.2-0.2-0.4-0.4-0.6-0.5
				c0.5-0.3,1-0.7,1.4-1c0.1,0,0.1-0.1,0.3,0c0.1,0,0.2,0,0.2,0c0,0,0-0.2-0.1-0.4c0.3-0.1,0.6-0.2,1-0.1c0.3,0.1,0.6,0.3,1,0.5
				c0.3,0.3,0.5,0.6,0.6,0.9c0.1,0.3,0,0.6-0.3,0.8C7.1,19.7,6.5,20.2,5.9,20.6z"/>
			<path d="M9.9,22.3c-0.6,0.5-1.2,0.5-2,0c-0.4-0.3-0.6-0.7-0.6-1.1c-0.1,0.1-0.2,0.2-0.4,0.3c-0.2-0.2-0.4-0.3-0.6-0.5
				c0.9-0.7,1.8-1.4,2.6-2.2c0.2,0.2,0.4,0.3,0.6,0.5c-0.5,0.5-1,0.9-1.5,1.4c-0.1,0.1-0.2,0.3-0.2,0.5c0,0.3,0.2,0.5,0.4,0.7
				c0.3,0.3,0.7,0.3,0.9,0c0.6-0.5,1.2-1.1,1.7-1.6c0.2,0.1,0.4,0.3,0.7,0.4C11,21.3,10.5,21.8,9.9,22.3z"/>
			<path d="M12.5,25.2c-0.3-0.1-0.5-0.3-0.7-0.4c0.4-0.4,0.8-0.8,1.2-1.2c-0.2,0-0.6-0.2-1.1-0.5c-0.4-0.2-0.8-0.3-1,0
				c-0.2,0.2-0.1,0.4,0.2,0.7c0.2,0.1,0.4,0.2,0.6,0.3c-0.2,0.2-0.3,0.3-0.5,0.5c-0.3-0.1-0.5-0.2-0.6-0.3c-0.8-0.5-0.9-1-0.4-1.5
				c0.5-0.4,1.1-0.5,1.9-0.1c0.3,0.1,0.5,0.3,0.8,0.4c0.3,0.1,0.5,0.1,0.7,0c0.1-0.1,0.1-0.2,0-0.3c-0.1-0.1-0.2-0.3-0.4-0.4
				c-0.2-0.1-0.4-0.2-0.6-0.2c-0.2,0-0.4,0-0.5,0.1c-0.2-0.1-0.5-0.3-0.7-0.4c0.3-0.2,0.7-0.3,1.1-0.3c0.4,0,0.7,0.2,1.1,0.4
				c0.2,0.1,0.3,0.2,0.5,0.3c0.1,0,0.3,0,0.3-0.1c0.3,0.1,0.5,0.3,0.8,0.4c-0.1,0.2-0.4,0.2-0.7,0.2c0.1,0.3,0.1,0.5-0.1,0.8
				C13.7,24,13.1,24.6,12.5,25.2z"/>
			<path d="M16.1,21.6c-0.1-0.1-0.2-0.1-0.4-0.2c-0.2-0.1-0.3-0.1-0.4,0.1c0,0,0,0,0,0.1c-0.2-0.1-0.4-0.2-0.6-0.3
				c0.1-0.1,0.1-0.1,0.2-0.2c0.2-0.3,0.5-0.3,0.9-0.1c0.2,0.1,0.5,0.2,0.7,0.3C16.3,21.4,16.2,21.5,16.1,21.6z"/>
			<path d="M18,22.6c-0.3-0.1-0.5-0.2-0.8-0.4c-0.2-0.1-0.3-0.1-0.4-0.1c0,0,0,0.1,0.1,0.3c0.1,0.1,0,0.3-0.1,0.4
				C16,23.9,15.1,25,14.1,26c-0.3-0.1-0.5-0.3-0.8-0.4c1-1,1.8-2,2.7-3c0.1-0.1,0.1-0.3,0.1-0.4c0-0.2,0-0.3,0-0.4
				c0.1-0.1,0.2-0.2,0.4-0.2c0.2,0,0.4,0,0.7,0.1c0.4,0.2,0.7,0.3,1.1,0.5C18.2,22.3,18.1,22.5,18,22.6z"/>
			<path d="M19.2,26.6c-0.3,0.4-0.7,0.6-1.3,0.7c-0.5,0-1,0-1.6-0.3c-0.5-0.2-1-0.4-1.4-0.6c0.8-0.9,1.6-1.8,2.3-2.7
				c0.3,0.1,0.5,0.2,0.8,0.3c-0.6,0.8-1.2,1.5-1.9,2.3c0.2,0.1,0.4,0.2,0.6,0.3c0.3,0.1,0.6,0.2,0.9,0.1c0.3,0,0.6-0.1,0.8-0.4
				c0.1-0.2,0.2-0.3,0.1-0.5c-0.1-0.2-0.2-0.3-0.5-0.4c-0.2-0.1-0.4-0.1-0.5-0.2c0.1-0.2,0.3-0.3,0.4-0.5c0.2,0.1,0.4,0.1,0.5,0.2
				c0.5,0.2,0.9,0.1,1.1-0.4c0.3,0.1,0.5,0.2,0.8,0.3c0,0,0,0.1-0.1,0.1c-0.2,0.3-0.7,0.5-1.2,0.5c0.2,0.1,0.3,0.3,0.3,0.5
				C19.4,26.2,19.4,26.4,19.2,26.6z"/>
			<path d="M23.6,27.5c-0.4,0.6-0.9,0.9-1.5,1.1c-0.5,0.1-1.1,0.1-1.6-0.1c-1-0.3-1.4-0.9-1.1-1.6c0.3,0.1,0.6,0.2,0.9,0.3
				c-0.1,0.4,0.1,0.6,0.5,0.8c0.7,0.2,1.3,0,1.8-0.7c0.5-0.7,0.3-1.1-0.3-1.3c-0.4-0.1-0.8,0-1.2,0.2c-0.3-0.1-0.6-0.2-0.9-0.3
				c0.7-0.6,1.5-0.8,2.5-0.5c0.6,0.1,0.9,0.4,1.1,0.7C24,26.5,23.9,27,23.6,27.5z"/>
			<path d="M25.5,24.7c-0.1,0-0.3-0.1-0.4-0.1c-0.2,0-0.4,0-0.4,0.2c0,0,0,0,0,0.1c-0.3-0.1-0.5-0.1-0.8-0.2c0-0.1,0.1-0.2,0.1-0.2
				c0.2-0.3,0.5-0.4,1-0.3c0.3,0.1,0.5,0.1,0.8,0.2C25.6,24.4,25.6,24.5,25.5,24.7z"/>
		</g>
	</g>
</g>
</svg>
