<!-- Generator: Adobe Illustrator 18.0.0, SVG Export Plug-In  -->
<svg version="1.1"
	 xmlns="http://www.w3.org/2000/svg" xmlns:xlink="http://www.w3.org/1999/xlink" xmlns:a="http://ns.adobe.com/AdobeSVGViewerExtensions/3.0/"
	 x="0px" y="0px" width="31.9px" height="31.9px" viewBox="0 0 31.9 31.9" enable-background="new 0 0 31.9 31.9"
	 xml:space="preserve">
<defs>
</defs>
<g>
	<g>
		<g>
			<g>
				<g>
					
						<radialGradient id="SVGID_1_" cx="35.8152" cy="6.0146" r="13.6516" gradientTransform="matrix(1.1667 0 0 1.1667 -25.8583 8.9101)" gradientUnits="userSpaceOnUse">
						<stop  offset="0.25" style="stop-color:#EE5725"/>
						<stop  offset="0.5864" style="stop-color:#EE5925"/>
						<stop  offset="0.7075" style="stop-color:#EF5F26"/>
						<stop  offset="0.7939" style="stop-color:#F16928"/>
						<stop  offset="0.8632" style="stop-color:#F3762C"/>
						<stop  offset="0.9224" style="stop-color:#F68632"/>
						<stop  offset="0.9239" style="stop-color:#F68633"/>
						<stop  offset="1" style="stop-color:#FBB040"/>
					</radialGradient>
					<circle fill="url(#SVGID_1_)" cx="15.9" cy="15.9" r="15.9"/>
					<linearGradient id="SVGID_2_" gradientUnits="userSpaceOnUse" x1="15.9273" y1="25.5545" x2="15.9273" y2="0.565">
						<stop  offset="0" style="stop-color:#EE5725"/>
						<stop  offset="1" style="stop-color:#FBB040"/>
					</linearGradient>
					<ellipse fill="url(#SVGID_2_)" cx="15.9" cy="13.1" rx="13.5" ry="12.5"/>
					<linearGradient id="SVGID_3_" gradientUnits="userSpaceOnUse" x1="15.9273" y1="14.3931" x2="15.9273" y2="1.5096">
						<stop  offset="5.076140e-03" style="stop-color:#F68733"/>
						<stop  offset="1" style="stop-color:#FAF0ED"/>
					</linearGradient>
					<path fill="url(#SVGID_3_)" d="M26.7,9.6c0-4.5-4.8-8.1-10.7-8.1C10,1.5,5.2,5.2,5.2,9.6c0,4.5,4.8,4.7,10.7,4.7
						C21.9,14.4,26.7,14.1,26.7,9.6z"/>
				</g>
			</g>
		</g>
	</g>
	<g>
		<g>
			<path d="M6.5,13.9c-0.2,0-0.4,0-0.6,0.1c0-1.2,0-2.4,0-3.6c-0.2,0-0.3,0-0.5,0.1c-0.5,0.1-0.9,0.4-1.2,0.7
				c-0.4,0.4-0.6,0.8-0.6,1.3c0,0.4,0.1,0.6,0.3,0.8c0.2,0.2,0.5,0.2,0.8,0.2c0.1,0,0.2,0,0.3-0.1c0,0.2,0,0.5,0,0.7
				c-0.1,0-0.2,0-0.4,0.1c-0.5,0.1-0.9,0-1.1-0.3c-0.3-0.3-0.5-0.7-0.5-1.2c0-0.6,0.2-1.2,0.7-1.7c0.4-0.5,1-0.9,1.7-1.1
				c0.2,0,0.3-0.1,0.5-0.1c0-0.5-0.4-0.7-1.2-0.4C4,9.5,3.5,9.9,3.1,10.5c0-0.2,0-0.5,0-0.7c0.4-0.6,1-1,1.7-1.3
				c0.5-0.2,0.9-0.2,1.2-0.1C6.3,8.6,6.5,9,6.5,9.6C6.5,11.1,6.5,12.5,6.5,13.9z"/>
			<path d="M8.4,8.5C8.3,8.8,8.2,9.1,8.1,9.3C7.7,9.4,7.4,9.5,7,9.6c0-0.4,0-0.7,0-1.1c0.2-0.1,0.4-0.1,0.6-0.2c0,0.1,0,0.2,0,0.4
				C7.9,8.6,8.1,8.5,8.4,8.5z M8.4,12.2c-0.1,0.3-0.2,0.6-0.3,0.8c-0.4,0-0.7,0.1-1.1,0.1c0-0.4,0-0.7,0-1.1c0.2,0,0.4-0.1,0.6-0.1
				c0,0.1,0,0.2,0,0.4C7.9,12.2,8.1,12.2,8.4,12.2z"/>
			<path d="M12.5,13.6c-0.2,0-0.4,0-0.7,0c0-1.6,0-3.2,0-4.8c0-0.9-0.4-1.3-1.2-1.2C9.9,7.8,9.5,8.3,9.5,9.1c0,0.2,0,0.4,0,0.6
				c0.4-0.1,0.8-0.1,1.2-0.1c0,0.3,0,0.6,0,0.8c-0.4,0-0.8,0.1-1.2,0.1c0,1,0,2.1,0,3.1c-0.2,0-0.4,0-0.7,0c0-1.5,0-3.1,0-4.6
				c0-0.7,0.2-1.2,0.6-1.6c0.3-0.4,0.7-0.6,1.2-0.6c0.5-0.1,0.9,0,1.2,0.3c0.4,0.3,0.6,0.8,0.6,1.6C12.5,10.3,12.5,12,12.5,13.6z"/>
			<path d="M16.5,11.5c0,0.8-0.2,1.4-0.5,1.7c-0.3,0.3-0.7,0.5-1.3,0.5c-0.7,0-1.2-0.2-1.6-0.6c0-0.3,0-0.7,0-1
				c0.4,0.5,0.9,0.8,1.5,0.8c0.8,0,1.2-0.5,1.2-1.4c0-0.7-0.3-1.1-1-1.3c-0.6-0.1-1-0.3-1.2-0.5C13.2,9.4,13,9,13,8.4
				c0-0.5,0.2-1,0.5-1.3c0.3-0.3,0.7-0.5,1.2-0.5c0.7,0,1.2,0.3,1.6,0.7c0,0.3,0,0.7,0,1c-0.4-0.5-0.9-0.8-1.5-0.8
				c-0.3,0-0.5,0.1-0.7,0.2c-0.2,0.2-0.3,0.4-0.3,0.7c0,0.3,0.1,0.5,0.4,0.6c0.2,0.1,0.4,0.2,0.8,0.3C16,9.6,16.5,10.3,16.5,11.5z"
				/>
			<path d="M6.9,21.2c0,1-0.2,1.8-0.6,2.2c-0.4,0.4-0.8,0.4-1.4,0.2c-0.6-0.2-1-0.7-1.3-1.2C3.2,21.7,3,21,3,20.1
				c0-0.2,0-0.5,0.1-0.7c0.4,0.1,0.9,0.2,1.3,0.3c0,0.2,0,0.5,0,0.7c-0.3-0.1-0.5-0.1-0.8-0.2c0,0,0,0.1,0,0.1C3.6,21,3.7,21.5,4,22
				c0.2,0.4,0.5,0.7,0.9,0.9c0.4,0.2,0.7,0.1,1-0.2c0.3-0.3,0.4-0.9,0.4-1.6c0-0.8-0.1-1.4-0.4-1.8c-0.2-0.4-0.6-0.7-1-0.7
				c-0.5-0.1-0.9,0.2-1.1,0.7c-0.2,0-0.4-0.1-0.6-0.1c0.3-0.9,0.9-1.3,1.8-1.2c0.6,0.1,1,0.3,1.4,0.9C6.7,19.3,6.9,20.1,6.9,21.2z"
				/>
			<path d="M11.4,21.8c0,1.2-0.2,2-0.6,2.6c-0.4,0.5-0.9,0.7-1.5,0.5c-0.6-0.1-1.1-0.5-1.4-1.1c-0.4-0.7-0.6-1.5-0.6-2.6
				c0-0.3,0-0.6,0.1-0.9c0.5,0.1,0.9,0.1,1.4,0.2c0,0.3,0,0.6,0,0.8c-0.3,0-0.6-0.1-0.8-0.1c0,0.1,0,0.1,0,0.2c0,0.8,0.1,1.5,0.4,2
				c0.2,0.5,0.6,0.7,1,0.8c0.4,0.1,0.8-0.1,1-0.5c0.3-0.4,0.4-1.1,0.4-1.9c0-0.9-0.1-1.5-0.4-2c-0.3-0.5-0.6-0.7-1-0.7
				c-0.6,0-1,0.3-1.2,0.9c-0.2,0-0.5-0.1-0.7-0.1c0.3-1.2,0.9-1.7,1.9-1.7c0.6,0,1.1,0.3,1.5,0.9C11.2,19.7,11.4,20.6,11.4,21.8z"/>
			<path d="M15.5,25.3c-0.2,0-0.4,0-0.7,0c0-0.3,0-0.6,0-1c-0.4,0.7-0.9,1.1-1.5,1.1c-0.9,0-1.4-0.8-1.4-2.2c0-1.6,0-3.2,0-4.8
				c0.2,0,0.4,0,0.7,0c0,1.6,0,3.2,0,4.8c0,0.9,0.3,1.4,0.8,1.4c0.4,0,0.8-0.2,1-0.6c0.3-0.4,0.4-0.8,0.4-1.2c0-1.4,0-2.9,0-4.3
				c0.2,0,0.4,0,0.7,0C15.5,20.7,15.5,23,15.5,25.3z"/>
			<path d="M17.2,25.2c-0.2,0-0.4,0-0.7,0.1c0-2.3,0-4.6,0-6.8c0.2,0,0.4,0,0.7,0C17.2,20.7,17.2,22.9,17.2,25.2z M18.6,25
				c-0.2,0-0.4,0.1-0.7,0.1c0-2.2,0-4.5,0-6.7c0.2,0,0.4,0,0.7,0C18.6,20.6,18.6,22.8,18.6,25z"/>
			<path d="M23.5,20.9c0,1-0.2,1.8-0.6,2.4c-0.4,0.6-0.8,1-1.4,1.2c-0.6,0.2-1.1,0-1.4-0.4c-0.4-0.5-0.6-1.3-0.6-2.5
				c0-0.3,0-0.6,0.1-1c0.5,0,1-0.1,1.4-0.2c0,0.3,0,0.5,0,0.8c-0.3,0-0.6,0.1-0.8,0.1c0,0.1,0,0.1,0,0.2c0,0.8,0.1,1.4,0.4,1.8
				c0.2,0.4,0.6,0.5,1,0.4c0.4-0.1,0.7-0.4,1-0.8c0.3-0.5,0.4-1.1,0.4-1.9c0-0.7-0.1-1.3-0.4-1.7c-0.2-0.4-0.6-0.5-1-0.5
				c-0.6,0.1-1,0.4-1.2,1.2c-0.2,0-0.5,0-0.7,0.1c0.3-1.3,0.9-1.9,1.9-2c0.6,0,1.1,0.2,1.4,0.6C23.3,19.2,23.5,19.9,23.5,20.9z"/>
			<path d="M27.1,20.6c0,0.5-0.2,1-0.5,1.4c-0.3,0.4-0.7,0.7-1.2,0.9c-0.6,0.3-1.2,0.4-1.5,0.2c0-0.3,0-0.5,0-0.8
				c0.4,0.3,0.8,0.3,1.4,0.1c0.8-0.3,1.1-0.8,1.1-1.5c0-0.5-0.3-0.6-0.9-0.6c-0.5,0.1-0.9,0-1.2,0c-0.4-0.1-0.6-0.5-0.6-1
				c0-0.4,0.2-0.8,0.5-1.1c0.3-0.3,0.7-0.5,1.1-0.5c0.6-0.1,1.1,0,1.5,0.3c0,0.2,0,0.4,0,0.6c-0.4-0.3-0.8-0.4-1.4-0.3
				c-0.3,0-0.5,0.1-0.7,0.3c-0.2,0.2-0.3,0.4-0.3,0.6c0,0.2,0.1,0.4,0.4,0.4c0.1,0,0.4,0.1,0.8,0C26.6,19.6,27.1,19.9,27.1,20.6z"/>
			<path d="M27.3,15.2c-0.1,0.1-0.2,0.3-0.2,0.4c-0.1,0-0.2,0-0.3,0c-0.2,0-0.3,0.1-0.3,0.3c0,0,0,0.1,0,0.1c-0.2,0-0.4,0-0.6,0
				c0-0.1,0-0.2,0-0.3c0-0.4,0.2-0.6,0.7-0.6C26.8,15.2,27,15.2,27.3,15.2z"/>
		</g>
	</g>
</g>
</svg>
