<!-- Generator: Adobe Illustrator 18.0.0, SVG Export Plug-In  -->
<svg version="1.1"
	 xmlns="http://www.w3.org/2000/svg" xmlns:xlink="http://www.w3.org/1999/xlink" xmlns:a="http://ns.adobe.com/AdobeSVGViewerExtensions/3.0/"
	 x="0px" y="0px" width="31.8px" height="31.8px" viewBox="0 0 31.8 31.8" enable-background="new 0 0 31.8 31.8"
	 xml:space="preserve">
<defs>
</defs>
<g>
	<g>
		<g>
			<g>
				<g>
					
						<radialGradient id="SVGID_1_" cx="68.2942" cy="-5.4281" r="13.6242" gradientTransform="matrix(1.1667 0 0 1.1667 -63.7835 22.2283)" gradientUnits="userSpaceOnUse">
						<stop  offset="0.25" style="stop-color:#262262"/>
						<stop  offset="0.5881" style="stop-color:#282362"/>
						<stop  offset="0.7099" style="stop-color:#2F2465"/>
						<stop  offset="0.7967" style="stop-color:#3B266A"/>
						<stop  offset="0.8664" style="stop-color:#4B2870"/>
						<stop  offset="0.9239" style="stop-color:#5E2A79"/>
						<stop  offset="1" style="stop-color:#92278F"/>
					</radialGradient>
					<circle fill="url(#SVGID_1_)" cx="15.9" cy="15.9" r="15.9"/>
					<linearGradient id="SVGID_2_" gradientUnits="userSpaceOnUse" x1="15.8955" y1="25.5032" x2="15.8955" y2="0.5634">
						<stop  offset="0" style="stop-color:#262262"/>
						<stop  offset="1" style="stop-color:#A2459A"/>
					</linearGradient>
					<ellipse fill="url(#SVGID_2_)" cx="15.9" cy="13" rx="13.5" ry="12.5"/>
					<linearGradient id="SVGID_3_" gradientUnits="userSpaceOnUse" x1="15.8952" y1="14.3642" x2="15.8952" y2="1.5063">
						<stop  offset="5.076140e-03" style="stop-color:#5E2A79"/>
						<stop  offset="1" style="stop-color:#E7BED9"/>
					</linearGradient>
					<path fill="url(#SVGID_3_)" d="M26.6,9.6c0-4.5-4.8-8.1-10.7-8.1C10,1.5,5.2,5.1,5.2,9.6c0,4.5,4.8,4.7,10.7,4.7
						C21.8,14.4,26.6,14.1,26.6,9.6z"/>
				</g>
			</g>
		</g>
	</g>
	<g>
		<g>
			<path fill="#FFFFFF" d="M9,8.1C9,8.3,8.9,8.4,8.8,8.5C8.9,8.8,9,9.2,9,9.6c0,1.2,0,2.5,0,3.7c0,0.2,0,0.3-0.1,0.4
				c-0.1,0.1-0.2,0.2-0.3,0.2c-0.1,0-0.2,0-0.3-0.1C8.1,13.6,8,13.5,8,13.3c0-0.8,0-1.5,0-2.3c-0.1,0-0.1,0.1-0.2,0.1
				c-0.1,0-0.2,0.1-0.4,0.1c-0.1,0-0.3,0.1-0.4,0.1c-0.1,0-0.2,0.1-0.3,0.1c-0.1,0-0.2,0.1-0.2,0.1c-0.1,0-0.1,0.1-0.2,0.2
				c-0.1,0.1-0.1,0.2-0.1,0.2c0,0.1-0.1,0.2-0.1,0.3c0,0.4,0.1,0.5,0.4,0.5c0.1,0,0.1,0,0.1,0c0,0,0.1,0,0.1,0c0,0,0,0,0.1,0
				c0.2,0,0.3,0.1,0.4,0.3c0,0.1,0,0.1,0,0.2c0,0.3-0.1,0.5-0.4,0.6c0,0-0.1,0-0.2,0.1c-0.1,0-0.1,0-0.2,0c-0.4,0-0.7-0.1-0.9-0.3
				c-0.3-0.3-0.4-0.7-0.4-1.2c0-0.5,0.2-0.9,0.5-1.3c0.3-0.3,0.6-0.5,1.1-0.7c0.5-0.2,0.8-0.3,0.8-0.3C7.8,10,8,9.8,8,9.5
				c0-0.1,0-0.2-0.1-0.2c0-0.1-0.1-0.1-0.2-0.2C7.7,9,7.6,9,7.5,9c-0.1,0-0.2,0-0.3,0C6.9,9,6.8,9.1,6.6,9.2
				C6.4,9.4,6.3,9.5,6.3,9.8c0,0.2-0.2,0.4-0.4,0.4c0,0-0.1,0-0.1,0c0,0-0.1,0-0.1,0C5.5,10.1,5.4,10,5.4,9.7c0,0,0,0,0-0.1
				c0,0,0-0.1,0-0.1c0-0.2,0.1-0.4,0.2-0.6C5.7,8.8,5.8,8.7,6,8.5c0.2-0.1,0.3-0.3,0.5-0.4C6.7,8,6.9,7.9,7.2,7.9c0.1,0,0.3,0,0.4,0
				c0.1,0,0.3,0,0.4,0C8,7.7,8.1,7.6,8.2,7.5c0.1-0.2,0.2-0.3,0.4-0.3c0.1,0,0.2,0,0.4,0.1c0.1,0.1,0.2,0.3,0.2,0.5
				C9.2,7.9,9.1,8,9,8.1z"/>
			<path fill="#FFFFFF" d="M9,16c0,0.2,0,0.3-0.1,0.4c-0.1,0.1-0.2,0.1-0.3,0.1c-0.1,0-0.2-0.1-0.3-0.2c-0.1-0.1-0.1-0.2-0.1-0.4
				c0-0.2,0-0.4,0-0.7c0,0-0.1,0-0.1,0c-0.1,0-0.3-0.1-0.3-0.2c-0.1-0.1-0.1-0.2-0.1-0.4c0-0.2,0-0.3,0.1-0.4
				c0.1-0.1,0.2-0.2,0.4-0.2c0.2,0,0.4,0,0.6,0c0.2,0,0.3,0,0.4,0.2C9,14.4,9,14.6,9,14.8C9,15.2,9,15.6,9,16z"/>
			<path fill="#FFFFFF" d="M13,11.7c0,0.7-0.1,1.2-0.5,1.6c-0.3,0.4-0.7,0.5-1.2,0.5c-0.5,0-0.9-0.1-1.2-0.4
				c-0.3-0.3-0.5-0.9-0.5-1.5c0-0.4,0-0.9,0-1.3c0-0.3,0.2-0.7,0.5-1.1c0.2-0.2,0.3-0.4,0.3-0.5c0-0.2-0.1-0.3-0.2-0.2
				c-0.1,0-0.2,0-0.3,0.1c-0.3,0-0.5-0.1-0.5-0.5c0-0.2,0-0.3,0.1-0.5C9.7,7.6,9.9,7.6,10,7.5c0.2,0,0.4-0.1,0.6-0.1
				c0.1,0,0.2,0,0.3,0c0.1,0,0.2,0.1,0.3,0.2c0.1,0.1,0.1,0.2,0.2,0.3c0,0.1,0.1,0.3,0.1,0.5c0,0.5-0.1,0.9-0.4,1.3
				c-0.3,0.3-0.4,0.6-0.4,0.8c0,0.4,0,0.8,0,1.3c0,0.3,0.1,0.5,0.2,0.7c0.1,0.2,0.3,0.2,0.5,0.2c0.5,0,0.7-0.3,0.7-1
				c0-1.3,0-2.6,0-4c0-0.2,0-0.3,0.1-0.5c0.1-0.1,0.2-0.2,0.3-0.2c0.1,0,0.2,0,0.3,0.1C13,7.4,13,7.5,13,7.7C13,9,13,10.4,13,11.7z"
				/>
			<path fill="#FFFFFF" d="M17.8,13.1c0,0.2,0,0.4-0.1,0.5c-0.1,0.1-0.2,0.1-0.3,0.1c-0.1,0-0.3,0-0.3-0.1c-0.1-0.1-0.1-0.3-0.1-0.5
				c0-1.2,0-2.4,0-3.6c0-0.2,0-0.4-0.1-0.6c-0.1-0.2-0.1-0.3-0.2-0.5c-0.1-0.1-0.2-0.2-0.3-0.3c-0.1-0.1-0.3-0.1-0.4-0.1
				c-0.2,0-0.4,0.1-0.6,0.2c-0.2,0.1-0.3,0.3-0.3,0.5c0,0,0,0.1,0,0.2C15,9,15,9,15.1,9.1c0.1,0.1,0.1,0.2,0.2,0.2
				c0,0.1,0.1,0.1,0.1,0.1c0,0,0,0.1-0.1,0.1c0,0.1-0.1,0.1-0.2,0.3c-0.1,0.2-0.2,0.4-0.2,0.5c0,0.9,0,1.7,0,2.6
				c0,0.2,0,0.3-0.1,0.5c-0.1,0.1-0.2,0.2-0.4,0.2c-0.2,0-0.4,0-0.6,0c-0.2,0-0.3-0.1-0.3-0.2c-0.1-0.1-0.1-0.3-0.1-0.4
				c0-0.4,0.2-0.6,0.5-0.6c0,0,0.1,0,0.1,0c0-0.7,0-1.4,0-2.1c0-0.2,0.1-0.3,0.2-0.5c0.1-0.1,0.1-0.2,0.2-0.3
				c-0.1-0.1-0.2-0.2-0.3-0.3c-0.1-0.1-0.1-0.2-0.1-0.3c0-0.3,0.1-0.6,0.2-0.8c0.1-0.2,0.3-0.5,0.4-0.6c0.2-0.2,0.4-0.3,0.6-0.4
				c0.2-0.1,0.4-0.1,0.7-0.2c0.6,0,1.1,0.2,1.4,0.6c0.4,0.5,0.6,1.2,0.6,2C17.8,10.8,17.8,11.9,17.8,13.1z"/>
			<path fill="#FFFFFF" d="M21,13.2c0,0.2,0,0.3-0.1,0.4c-0.1,0.1-0.2,0.1-0.3,0.1c-0.1,0-0.3,0-0.4-0.1c-0.1-0.1-0.1-0.2-0.1-0.5
				c0-1.2,0-2.5,0-3.7C20,9.3,20,9.2,20,9c0-0.1-0.1-0.2-0.1-0.3c-0.1-0.1-0.1-0.2-0.2-0.2c-0.1-0.1-0.2-0.1-0.3-0.1
				c-0.1,0-0.1,0-0.2,0c-0.1,0-0.1,0-0.2,0.1c-0.1,0-0.1,0-0.2,0.1c0,0-0.1,0-0.1,0c-0.1,0-0.1,0-0.2-0.1c-0.1,0-0.1-0.1-0.1-0.2
				c0-0.1-0.1-0.1-0.1-0.2c0-0.1,0-0.2,0-0.2c0-0.2,0.1-0.4,0.3-0.6c0.1-0.1,0.2-0.1,0.3-0.2c0.1-0.1,0.3-0.1,0.5-0.1
				c0.2,0,0.5,0.1,0.7,0.2c0.2,0.1,0.4,0.3,0.5,0.5c0.1,0.2,0.3,0.5,0.3,0.7C20.9,8.8,21,9.1,21,9.4C21,10.7,21,11.9,21,13.2z"/>
			<path fill="#FFFFFF" d="M26.4,12.2c0,0.6-0.1,1-0.4,1.3c-0.2,0.3-0.6,0.4-1,0.4c-0.2,0-0.4-0.1-0.5-0.2c-0.2-0.1-0.3-0.3-0.4-0.4
				c-0.1,0.2-0.2,0.3-0.4,0.4c-0.2,0.1-0.4,0.1-0.5,0.1c-0.5,0-0.8-0.2-1.1-0.5c-0.3-0.3-0.4-0.9-0.4-1.5c0-1.3,0-2.6,0-3.9
				c0-0.2,0-0.3,0.1-0.4c0.1-0.1,0.2-0.1,0.3-0.1c0.1,0,0.2,0.1,0.3,0.2c0.1,0.1,0.1,0.3,0.1,0.5c0,1.3,0,2.6,0,3.9
				c0,0.6,0.2,0.9,0.5,0.9c0.3,0,0.5-0.2,0.5-0.8c0-1.3,0-2.6,0-3.9c0-0.2,0-0.3,0.1-0.4c0.1-0.1,0.2-0.1,0.3-0.1
				c0.1,0,0.2,0.1,0.3,0.2c0.1,0.1,0.1,0.3,0.1,0.4c0,1.3,0,2.6,0,3.8c0,0.5,0.2,0.8,0.5,0.8c0.3,0,0.5-0.2,0.5-0.8
				c0-1.2,0-2.4,0-3.7c0-0.2,0-0.3,0.1-0.4C25.7,8,25.8,8,26,8c0.1,0,0.2,0.1,0.3,0.2c0.1,0.1,0.1,0.3,0.1,0.4
				C26.4,9.8,26.4,11,26.4,12.2z"/>
			<path fill="#FFFFFF" d="M5.7,22c0,0.2,0,0.3-0.1,0.3c-0.1,0.1-0.2,0.1-0.3,0c-0.1,0-0.2-0.1-0.3-0.2c-0.1-0.1-0.1-0.2-0.1-0.4
				c0-1,0-2.1,0-3.1c0-0.3-0.1-0.6-0.2-0.8c-0.2-0.2-0.4-0.3-0.7-0.3c-0.3,0-0.5,0-0.7,0.2c-0.2,0.1-0.3,0.4-0.3,0.6
				c0,0.1,0,0.2,0,0.3c0.3,0.1,0.6,0.1,0.9,0.2c0.1,0,0.3,0.1,0.3,0.2c0.1,0.1,0.1,0.2,0.1,0.4c0,0.1,0,0.2-0.1,0.3
				c-0.1,0.1-0.2,0.1-0.4,0.1c-0.3-0.1-0.6-0.1-0.9-0.2c0,0.5,0,1.1,0,1.6c0,0.1,0,0.2-0.1,0.3c-0.1,0-0.2,0-0.3,0
				c-0.1,0-0.2-0.1-0.3-0.2C2,21.2,2,21.1,2,20.9c0-0.9,0-1.7,0-2.6c0-0.3,0-0.5,0.1-0.7c0.1-0.2,0.2-0.4,0.4-0.5
				c0.2-0.1,0.4-0.2,0.6-0.3c0.2-0.1,0.5-0.1,0.8-0.1c0.3,0,0.5,0.1,0.7,0.2C4.8,17,5,17.2,5.2,17.3c0.2,0.2,0.3,0.4,0.4,0.7
				c0.1,0.3,0.1,0.6,0.1,0.9C5.7,20,5.7,21,5.7,22z"/>
			<path fill="#FFFFFF" d="M10.1,20.3c0,0.9-0.2,1.7-0.6,2.2C9.2,23,8.7,23.2,8,23.1c-0.5-0.1-0.9-0.3-1.2-0.7
				c-0.3-0.4-0.5-0.8-0.6-1.2c0-0.1,0-0.2,0-0.3c0-0.1,0.1-0.1,0.1-0.2c0.1,0,0.1-0.1,0.2-0.1c0.1,0,0.1,0,0.2,0
				c0.2,0,0.4,0.2,0.4,0.6c0,0.1,0,0.2,0.1,0.3c0.1,0.1,0.1,0.2,0.2,0.3c0.1,0.1,0.2,0.2,0.3,0.2C7.8,22,7.9,22,8,22
				c0.4,0.1,0.6-0.1,0.8-0.5c0.2-0.3,0.2-0.8,0.2-1.4c0-0.6-0.1-1.1-0.2-1.4C8.7,18.3,8.4,18.1,8,18c-0.1,0-0.2,0-0.3,0
				c-0.1,0-0.2,0.1-0.3,0.1c-0.1,0.1-0.1,0.1-0.2,0.2c-0.1,0.1-0.1,0.2-0.1,0.3c0,0.2-0.1,0.3-0.2,0.4c-0.1,0.1-0.2,0.1-0.3,0.1
				c-0.1,0-0.1,0-0.2-0.1c-0.1,0-0.1-0.1-0.2-0.1c0-0.1-0.1-0.1-0.1-0.2c0-0.1,0-0.2,0-0.3c0.1-0.4,0.2-0.8,0.6-1.1
				c0.3-0.3,0.8-0.5,1.2-0.4c0.3,0,0.6,0.1,0.9,0.3c0.3,0.2,0.5,0.4,0.6,0.7c0.2,0.3,0.3,0.6,0.4,1C10,19.3,10.1,19.8,10.1,20.3z"/>
			<path fill="#FFFFFF" d="M13.1,23.2c0,0.2,0,0.3-0.1,0.4c-0.1,0.1-0.2,0.1-0.3,0.1c-0.1,0-0.3-0.1-0.4-0.2
				c-0.1-0.1-0.1-0.3-0.1-0.5c0-1.2,0-2.5,0-3.7c0-0.1,0-0.3-0.1-0.4c0-0.1-0.1-0.2-0.1-0.3c-0.1-0.1-0.1-0.2-0.2-0.2
				c-0.1-0.1-0.2-0.1-0.3-0.1c-0.1,0-0.1,0-0.2,0c-0.1,0-0.1,0-0.2,0.1c-0.1,0-0.1,0-0.2,0.1c0,0-0.1,0-0.1,0c-0.1,0-0.1,0-0.2-0.1
				c-0.1,0-0.1-0.1-0.1-0.2c0-0.1-0.1-0.1-0.1-0.2c0-0.1,0-0.1,0-0.2c0-0.2,0.1-0.4,0.3-0.6c0.1-0.1,0.2-0.1,0.3-0.2
				c0.1-0.1,0.3-0.1,0.5-0.1c0.2,0,0.5,0.1,0.7,0.2c0.2,0.1,0.4,0.3,0.5,0.5c0.1,0.2,0.3,0.4,0.3,0.7c0.1,0.3,0.1,0.6,0.1,0.9
				C13.1,20.7,13.1,21.9,13.1,23.2z"/>
			<path fill="#FFFFFF" d="M17.8,21.3c0,0.9-0.2,1.5-0.5,2c-0.3,0.4-0.7,0.6-1.2,0.6c-0.4,0-0.8-0.2-1.1-0.6
				c-0.1,0.3-0.4,0.5-0.7,0.5c-0.1,0-0.2,0-0.3-0.1c-0.1-0.1-0.2-0.1-0.3-0.2c-0.1-0.1-0.1-0.2-0.2-0.3c0-0.1-0.1-0.2-0.1-0.4
				c0-0.2,0-0.4,0.1-0.5c0.1-0.1,0.2-0.3,0.4-0.3c0-1.4,0-2.9,0-4.3c0-0.2,0-0.3,0.1-0.5c0.1-0.1,0.2-0.2,0.3-0.2
				c0.1,0,0.2,0.1,0.3,0.2c0.1,0.1,0.1,0.3,0.1,0.5c0,1.2,0,2.4,0,3.6c0,0.4,0.1,0.8,0.3,1c0.2,0.2,0.4,0.4,0.7,0.4
				c0.3,0,0.5-0.1,0.7-0.4c0.1-0.2,0.2-0.6,0.2-1.2c0-1.2,0-2.3,0-3.5c0-0.2,0-0.3,0.1-0.5c0.1-0.1,0.2-0.2,0.3-0.2
				c0.1,0,0.2,0.1,0.3,0.2c0.1,0.1,0.1,0.3,0.1,0.5C17.8,18.9,17.8,20.1,17.8,21.3z"/>
			<path fill="#FFFFFF" d="M22.2,20.3c0,0.5,0,1-0.1,1.4c-0.1,0.4-0.2,0.8-0.4,1.1c-0.2,0.3-0.4,0.5-0.6,0.7
				c-0.2,0.2-0.5,0.3-0.8,0.3c-0.1,0-0.3,0-0.4,0c-0.1,0-0.2,0-0.3,0c-0.1,0-0.2,0-0.3-0.1c-0.1-0.1-0.1-0.1-0.2-0.2
				c0-0.1-0.1-0.2-0.1-0.4c-0.2-1.1-0.4-2.2-0.6-3.3c0-0.1,0-0.3,0-0.4c0-0.1,0.1-0.2,0.1-0.2c0.1-0.1,0.1-0.1,0.2-0.1
				c0.1,0,0.1,0,0.2,0c0.2,0,0.4,0.1,0.4,0.5c0.2,1.1,0.4,2.2,0.6,3.3c0.1,0,0.2,0,0.4,0c0.1,0,0.3-0.1,0.4-0.2
				c0.1-0.1,0.2-0.3,0.3-0.5c0.1-0.2,0.2-0.4,0.2-0.7c0.1-0.3,0.1-0.5,0.1-0.8c0-0.3,0-0.5-0.1-0.8c0-0.2-0.1-0.5-0.2-0.6
				c-0.1-0.2-0.2-0.3-0.3-0.4c-0.1-0.1-0.3-0.1-0.4-0.1c-0.1,0-0.2,0-0.3,0.1c-0.1,0-0.2,0.1-0.3,0.1c-0.1,0-0.1,0-0.1,0
				c-0.2,0-0.3-0.1-0.4-0.2c-0.1-0.1-0.1-0.3-0.1-0.5c0-0.1,0-0.2,0.1-0.3c0.1-0.1,0.1-0.2,0.2-0.3c0.1-0.1,0.2-0.1,0.3-0.2
				c0.1,0,0.3-0.1,0.4-0.1c0.6,0,1.1,0.2,1.4,0.7c0.2,0.3,0.3,0.6,0.4,1C22.1,19.3,22.2,19.7,22.2,20.3z"/>
			<path fill="#FFFFFF" d="M25.2,22.4c0,0.2,0,0.3-0.1,0.4C25,23,24.8,23,24.7,23.1c-0.1,0-0.3,0-0.3-0.1c-0.1-0.1-0.1-0.2-0.1-0.4
				c0-1.2,0-2.3,0-3.5c0-0.1,0-0.3-0.1-0.4c0-0.1-0.1-0.2-0.1-0.3c-0.1-0.1-0.1-0.1-0.2-0.2c-0.1,0-0.2-0.1-0.3-0.1
				c-0.1,0-0.1,0-0.2,0c-0.1,0-0.1,0.1-0.2,0.1c-0.1,0-0.1,0.1-0.2,0.1c0,0-0.1,0-0.1,0c-0.1,0-0.1,0-0.2,0c-0.1,0-0.1-0.1-0.1-0.1
				c0-0.1-0.1-0.1-0.1-0.2c0-0.1,0-0.1,0-0.2c0-0.2,0.1-0.4,0.3-0.6c0.1-0.1,0.2-0.1,0.3-0.2c0.1-0.1,0.3-0.1,0.5-0.1
				c0.2,0,0.5,0,0.7,0.1c0.2,0.1,0.4,0.2,0.5,0.4c0.1,0.2,0.3,0.4,0.3,0.6c0.1,0.2,0.1,0.5,0.1,0.8C25.2,20.1,25.2,21.3,25.2,22.4z"
				/>
			<path fill="#FFFFFF" d="M29.8,19.7c0,0.7-0.2,1.2-0.5,1.6c-0.3,0.4-0.7,0.7-1.1,0.8c-0.4,0.1-0.8,0.1-1.1-0.1
				c-0.1,0.3-0.4,0.5-0.7,0.6c-0.1,0-0.2,0-0.3,0c-0.1,0-0.2-0.1-0.2-0.1c-0.1-0.1-0.1-0.1-0.2-0.2c0-0.1-0.1-0.2-0.1-0.3
				c0-0.2,0-0.3,0.1-0.5c0.1-0.1,0.2-0.3,0.3-0.4c0-1.3,0-2.5,0-3.8c0-0.2,0-0.3,0.1-0.4c0.1-0.1,0.2-0.2,0.3-0.2
				c0.1,0,0.2,0,0.3,0.1c0.1,0.1,0.1,0.2,0.1,0.4c0,1,0,2,0,3.1c0,0.4,0.1,0.6,0.3,0.8c0.2,0.1,0.4,0.2,0.7,0.1
				c0.3-0.1,0.5-0.2,0.7-0.5c0.1-0.2,0.2-0.5,0.2-0.9c0-0.9,0-1.8,0-2.7c0-0.2,0-0.3,0.1-0.4c0.1-0.1,0.2-0.1,0.3-0.1
				c0.1,0,0.2,0,0.3,0.1c0.1,0.1,0.1,0.2,0.1,0.3C29.8,18,29.8,18.9,29.8,19.7z"/>
		</g>
	</g>
</g>
</svg>
