<!-- Generator: Adobe Illustrator 18.0.0, SVG Export Plug-In  -->
<svg version="1.1"
	 xmlns="http://www.w3.org/2000/svg" xmlns:xlink="http://www.w3.org/1999/xlink" xmlns:a="http://ns.adobe.com/AdobeSVGViewerExtensions/3.0/"
	 x="0px" y="0px" width="31.9px" height="31.9px" viewBox="0 0 31.9 31.9" enable-background="new 0 0 31.9 31.9"
	 xml:space="preserve">
<defs>
</defs>
<g>
	<g>
		<g>
			<g>
				<g>
					
						<radialGradient id="SVGID_1_" cx="52.151" cy="0.4362" r="13.6907" gradientTransform="matrix(1.1667 0 0 1.1667 -44.8716 15.464)" gradientUnits="userSpaceOnUse">
						<stop  offset="0.25" style="stop-color:#D9A428"/>
						<stop  offset="0.631" style="stop-color:#DBA628"/>
						<stop  offset="0.7683" style="stop-color:#E1AA29"/>
						<stop  offset="0.8657" style="stop-color:#EBB32B"/>
						<stop  offset="0.9239" style="stop-color:#F6BB2F"/>
						<stop  offset="1" style="stop-color:#FAD57C"/>
					</radialGradient>
					<circle fill="url(#SVGID_1_)" cx="16" cy="16" r="16"/>
					<linearGradient id="SVGID_2_" gradientUnits="userSpaceOnUse" x1="15.9731" y1="25.6276" x2="15.9731" y2="0.5661">
						<stop  offset="0" style="stop-color:#D9A428"/>
						<stop  offset="1" style="stop-color:#FADF7E"/>
					</linearGradient>
					<ellipse fill="url(#SVGID_2_)" cx="16" cy="13.1" rx="13.6" ry="12.5"/>
					<linearGradient id="SVGID_3_" gradientUnits="userSpaceOnUse" x1="15.9731" y1="14.4343" x2="15.9731" y2="1.5137">
						<stop  offset="5.076140e-03" style="stop-color:#EAC12B"/>
						<stop  offset="1" style="stop-color:#FAF7ED"/>
					</linearGradient>
					<path fill="url(#SVGID_3_)" d="M26.8,9.7c0-4.5-4.8-8.2-10.8-8.2c-6,0-10.8,3.7-10.8,8.2c0,4.5,4.8,4.8,10.8,4.8
						C21.9,14.4,26.8,14.2,26.8,9.7z"/>
				</g>
			</g>
		</g>
	</g>
	<g>
		<g>
			<path d="M8.9,11.2c-0.3,0-0.7,0.1-1,0.1C7.7,11.1,7.2,11,6.6,11c-0.3,0-0.5,0.1-0.7,0.2c-0.2,0.1-0.3,0.2-0.3,0.4
				c0,0.2,0.5,0.3,1.3,0.3c0.6,0,1,0,1.3,0.1C8.8,12.1,9,12.4,9,12.8c0,0.4-0.1,0.8-0.5,1.1c-0.4,0.3-0.8,0.4-1.5,0.5
				c-0.6,0.1-1.1,0-1.5-0.2c-0.4-0.2-0.7-0.6-0.7-1.1c0.3,0,0.7-0.1,1-0.1c0.1,0.5,0.5,0.8,1.3,0.7c0.3,0,0.5-0.1,0.7-0.2
				C8,13.3,8,13.2,8,13c0-0.3-0.5-0.4-1.3-0.4c-1.3,0.1-1.9-0.2-2-0.8c0-0.4,0.1-0.7,0.5-0.9c0.3-0.2,0.8-0.4,1.3-0.5
				C7.8,10.2,8.6,10.5,8.9,11.2z"/>
			<path d="M11.5,13.9c-0.3,0-0.7,0-1,0.1c-0.1-1.1-0.2-2.2-0.2-3.2c-0.4,0-0.7,0.1-1.1,0.1c0-0.2,0-0.5-0.1-0.7
				c0.7-0.1,1.4-0.1,2.2-0.2C11.3,11.3,11.4,12.6,11.5,13.9z"/>
			<path d="M16.3,13.7c-0.3,0-0.5,0-0.8,0c-1.2,0-2.1-0.2-2.8-0.7c-0.6-0.5-0.9-1.1-0.9-2c0.4,0,0.8,0,1.1-0.1
				c-0.3-0.4-0.6-0.7-1-1.1c0.9-0.1,1.7-0.1,2.6-0.1c0,0.2,0,0.4,0,0.7c-0.3,0-0.6,0-1,0c0.3,0.3,0.6,0.7,0.9,1
				c-0.5,0-1.1,0-1.6,0.1c0.1,0.4,0.4,0.8,0.8,1c0.4,0.3,1,0.4,1.6,0.4c0-1.1,0-2.2,0-3.3c0.3,0,0.7,0,1,0
				C16.3,11.1,16.3,12.4,16.3,13.7z"/>
			<path d="M21,13.8c-0.3,0-0.7,0-1,0c0-0.9,0.1-1.8,0.1-2.7c0-0.5-0.3-0.7-1.1-0.7c-0.5,0-0.8,0.1-1,0.3c0.2,0.1,0.4,0.3,0.6,0.4
				c-0.4,0.2-0.6,0.3-0.6,0.5c0,0.7,0,1.4,0,2.1c-0.3,0-0.7,0-1,0c0-0.7,0-1.4,0-2.1c0-0.2,0.1-0.4,0.4-0.5
				c-0.2-0.1-0.4-0.2-0.5-0.3c0.1-0.4,0.4-0.7,0.8-0.9c0.4-0.2,0.9-0.3,1.4-0.3c0.6,0,1.1,0.1,1.4,0.3c0.4,0.2,0.6,0.6,0.6,1
				C21.1,11.9,21.1,12.9,21,13.8z"/>
			<path d="M23.5,14c-0.3,0-0.7-0.1-1-0.1c0.1-1.1,0.2-2.2,0.2-3.3c-0.4,0-0.7,0-1.1-0.1c0-0.2,0-0.5,0-0.7c0.7,0,1.4,0.1,2.2,0.1
				C23.8,11.3,23.6,12.6,23.5,14z"/>
			<path d="M28.6,11.6c-0.3,0-0.7-0.1-1-0.1c-0.1-0.3-0.5-0.5-1.1-0.6c-0.3,0-0.5,0-0.7,0.1c-0.2,0.1-0.3,0.2-0.3,0.3
				c0,0.2,0.4,0.4,1.2,0.6c0.6,0.1,1,0.3,1.3,0.4c0.4,0.2,0.5,0.6,0.5,1c-0.1,0.5-0.3,0.8-0.7,1c-0.4,0.2-0.9,0.2-1.6,0.2
				c-0.6-0.1-1.1-0.2-1.5-0.5c-0.4-0.3-0.5-0.7-0.5-1.2c0.3,0,0.7,0.1,1,0.1c0,0.6,0.4,0.9,1.1,1c0.3,0,0.5,0,0.7-0.1
				c0.2-0.1,0.3-0.2,0.3-0.4c0-0.3-0.4-0.6-1.2-0.7c-1.2-0.2-1.8-0.7-1.7-1.3c0-0.4,0.3-0.7,0.8-0.8c0.4-0.2,0.9-0.2,1.4-0.2
				C27.8,10.2,28.5,10.7,28.6,11.6z"/>
			<path d="M10.1,22.6c-0.2,0-0.5,0-0.7,0.1c-0.7-0.4-1.5-0.7-2.3-1.1c0.1,0.4,0.1,0.9,0.2,1.3C7,22.9,6.7,23,6.4,23
				c-0.1-0.9-0.2-1.8-0.4-2.7c1,0.4,2.1,0.9,3.1,1.3C9,21.1,9,20.6,8.9,20c0-0.2-0.2-0.4-0.4-0.5c-0.2-0.1-0.5-0.1-0.8-0.1
				c-0.6,0.1-1,0.3-1,0.6c-0.3,0-0.6,0.1-0.9,0.1c0-0.4,0.3-0.7,0.7-1c0.3-0.2,0.8-0.4,1.3-0.4c0.6-0.1,1,0,1.4,0.2
				c0.4,0.2,0.7,0.5,0.7,1C9.9,20.8,10,21.7,10.1,22.6z"/>
			<path d="M9.6,16.9c-0.3,0-0.6,0.1-1,0.1c0-0.3-0.1-0.6-0.1-0.9c0.3,0,0.6-0.1,1-0.1C9.5,16.3,9.5,16.6,9.6,16.9z"/>
			<path d="M12.3,22.5c-0.3,0-0.6,0-0.9,0c-0.1-1.1-0.1-2.2-0.2-3.2c-0.3,0-0.7,0-1,0.1c0-0.2,0-0.5-0.1-0.7
				c0.6-0.1,1.3-0.1,1.9-0.1C12.1,19.9,12.2,21.2,12.3,22.5z"/>
			<path d="M16.6,22.4c-0.2,0-0.5,0-0.7,0c-0.7-0.4-1.4-0.9-2.1-1.3c0,0.4,0,0.9,0,1.3c-0.3,0-0.6,0-0.9,0c0-0.9-0.1-1.8-0.1-2.7
				c1,0.5,2,1,2.9,1.6c0-0.5,0-1.1,0-1.6c0-0.2-0.1-0.4-0.4-0.5c-0.2-0.1-0.5-0.2-0.8-0.1c-0.6,0-1,0.2-1.1,0.5c-0.3,0-0.6,0-0.9,0
				c0.1-0.4,0.3-0.7,0.7-0.9c0.4-0.2,0.8-0.3,1.3-0.3c0.2,0,0.4,0,0.6,0c0-0.1,0.1-0.2,0.1-0.3c0.3,0,0.7,0,1,0
				c-0.1,0.2-0.3,0.4-0.4,0.5c0.4,0.2,0.7,0.6,0.7,1C16.6,20.6,16.6,21.5,16.6,22.4z"/>
			<path d="M16.6,24.1c-0.3,0-0.6,0-0.9,0c0-0.2,0-0.5,0-0.7c-0.2,0-0.4,0-0.6,0c0.1-0.2,0.2-0.4,0.2-0.6c0.4,0,0.8,0,1.2,0
				C16.6,23.2,16.6,23.7,16.6,24.1z"/>
			<path d="M20.9,22.6c-0.3,0-0.6,0-0.9-0.1c0.1-1.1,0.1-2.2,0.2-3.3c-0.3,0-0.6,0-1,0c-0.4,0-0.7,0.1-0.9,0.4
				c-0.2,0.3-0.4,0.6-0.4,0.9c0,0.4,0.1,0.7,0.3,1c0.2,0.3,0.5,0.4,0.8,0.4c0.2,0,0.3,0,0.5-0.1c-0.1,0.2-0.2,0.5-0.4,0.7
				c-0.1,0-0.2,0-0.3,0c-0.6,0-1.1-0.2-1.4-0.6c-0.3-0.4-0.5-0.8-0.5-1.4c0-0.6,0.2-1,0.6-1.4c0.4-0.4,1-0.6,1.6-0.5
				c0.6,0,1.2,0.1,1.9,0.1C21.1,19.9,21,21.2,20.9,22.6z"/>
		</g>
	</g>
</g>
</svg>
