<!-- Generator: Adobe Illustrator 18.0.0, SVG Export Plug-In  -->
<svg version="1.1"
	 xmlns="http://www.w3.org/2000/svg" xmlns:xlink="http://www.w3.org/1999/xlink" xmlns:a="http://ns.adobe.com/AdobeSVGViewerExtensions/3.0/"
	 x="0px" y="0px" width="423.9px" height="481.3px" viewBox="0 0 423.9 481.3" enable-background="new 0 0 423.9 481.3"
	 xml:space="preserve">
<defs>
</defs>
<path d="M267.4,117.6c30.5,0,62.9,0,95.3,0c6.9,0,13.9,0.1,20.8,0.9c20.9,2.5,36.9,18.5,39.5,39.2c0.5,4.2,0.8,8.5,0.8,12.7
	c0,86,0.1,172.1,0,258.1c0,27.7-11.7,44.9-34.3,51.2c-4.4,1.2-9.1,1.5-13.7,1.5c-109.2,0.1-218.4,0.1-327.5,0
	C19,481.2,0.1,462.2,0,432.6C0,344.3,0,255.9,0,167.6c0-30.5,17.8-49.2,48.6-49.8c33.9-0.6,67.9-0.2,101.8-0.2c4,0,8,0,12.5,0
	c-12.9-13.8-24.5-26.4-36.4-38.8c-6.4-6.7-13.4-12.8-19.9-19.4c-8.2-8.4-8.8-16.2-2.1-23.5c6.6-7.3,16.1-7.5,24.5,0.4
	c25.2,23.9,50.1,48.1,75.1,72.2c2.8,2.7,5.6,5.2,9.5,8.8c4.6-4.2,9.2-8.1,13.5-12.2C261.1,72.7,295,40,329.3,7.7
	c4-3.8,9.9-8,14.6-7.7c5.1,0.3,12.9,4.7,14.2,9c1.7,5.4,0,14.3-3.7,18.4c-13.5,14.7-29,27.7-42.9,42.1
	C296.2,85.2,281.9,101.7,267.4,117.6z M211.1,450.4c52.8,0,105.7,0,158.5,0c18.8,0,22.7-3.7,22.7-22c0-86,0-172,0-258
	c0-17.4-3.8-21.3-20.9-21.4c-106.4,0-212.9,0-319.3,0c-16.7,0-21.2,4.5-21.2,21.3c0,86,0,172,0,258c0,17.3,4.6,22,21.7,22
	C105.4,450.4,158.3,450.4,211.1,450.4z"/>
</svg>
